<?xml version="1.0" encoding="UTF-8" standalone="yes"?>
<!-- Created with sK1/UniConvertor (http://sk1project.org/) -->
<svg xmlns="http://www.w3.org/2000/svg" xmlns:xlink="http://www.w3.org/1999/xlink"
  width="589.6pt" height="481.6pt" viewBox="0 0 589.6 481.6"
  fill-rule="evenodd">
<g>
<path style="stroke:none; fill:#ffffff" d="M 0 0L 0 19.2L 0.8 19.2C 2.32749 10.6363 9.34168 4.32468 17.6 2.20865C 23.8375 0.610413 31.1964 1.60001 37.6 1.60001L 76.8 1.60001C 85.252 1.60001 94.6192 0.293457 102.4 4.22159C 111.099 8.61337 113.718 17.0846 116.842 25.6C 121.062 37.0976 125.947 48.3989 129.866 60C 131.44 64.658 134.721 79.747 140.086 80.6816C 151.105 82.6008 164.006 80.8 175.2 80.8L 248.8 80.8L 476.8 80.8L 555.2 80.8C 568.905 80.8 581.759 80.2664 588.8 94.4L 589.6 94.4L 589.6 0L 0 0z"/>
<path style="stroke:none; fill:#575757" d="M 18.1334 1.86667C 17.7778 2.22226 18.6222 2.17773 18.6666 2.13336C 19.0223 1.77765 18.1778 1.82227 18.1334 1.86667z"/>
<path style="stroke:none; fill:#292929" d="M 19.2 1.60001L 19.2 2.39999L 95.2 2.39999C 88.8968 -0.244965 78.827 1.60001 72 1.60001L 19.2 1.60001z"/>
<path style="stroke:none; fill:#838383" d="M 95.7336 1.86667C 95.3776 2.22223 96.2224 2.17789 96.2664 2.13336C 96.6224 1.77774 95.7776 1.82227 95.7336 1.86667z"/>
<path style="stroke:none; fill:#010101" d="M 196 359.2C 163.318 372.879 152.381 417.359 168.258 447.2C 182.62 474.191 214.81 487.464 244 478.419C 253.225 475.561 261.804 470.678 268.799 463.969C 276.96 456.141 282.411 446.698 285.863 436C 290.069 422.97 289.266 409.039 285.6 396L 416.8 396C 414.138 402.299 413.6 410.014 413.6 416.8C 413.6 463.022 463.196 496.186 505.6 474.984C 554.143 450.713 550.942 378.917 502.4 357.05C 483.09 348.35 458.242 352 437.6 352L 309.6 352L 259.2 352C 254.53 352 244.102 353.937 240.399 350.718C 234.109 345.247 230.664 327.874 228 320L 406.4 320L 487.2 320C 498.082 320 512.226 322.582 521.588 315.956C 533.907 307.238 536.118 282.403 540.536 268.8C 554.478 225.863 567.788 182.523 580.461 139.2C 585.153 123.158 598.369 98.1808 581.599 85.1152C 572.648 78.1408 557.806 80.8 547.2 80.8L 465.6 80.8L 241.6 80.8L 172 80.8C 162.314 80.8 149.382 83.076 140.044 80.5456C 134.578 79.0646 131.588 64.8881 129.874 60L 116.842 25.6C 113.951 17.7215 111.601 9.50745 104 4.79572C 97.1856 0.571503 86.8824 2.39999 79.2 2.39999L 36.8 2.39999C 30.1878 2.39999 22.4756 1.31207 16 2.71237C 9.2844 4.16455 3.82158 9.64545 1.57222 16C -2.4464 27.3529 3.17151 41.4966 15.2 44.9685C 27.8338 48.6151 45.2598 45.6 58.4 45.6C 64.425 45.6 76.0694 43.1034 79.1161 49.6154C 94.5296 82.5624 105.099 118.756 117.94 152.8C 143.898 221.619 169.528 290.578 196 359.2z"/>
<path style="stroke:none; fill:#838383" d="M 99.2 2.39999L 100 3.20001L 99.2 2.39999z"/>
<path style="stroke:none; fill:#575757" d="M 12.8 3.20001L 13.6 4L 12.8 3.20001M 11.2 4L 12 4.80002L 11.2 4M 9.6 4.80002L 10.4 5.60001L 9.6 4.80002z"/>
<path style="stroke:none; fill:#838383" d="M 105.6 5.60001L 106.4 6.39999L 105.6 5.60001z"/>
<path style="stroke:none; fill:#575757" d="M 106.4 6.39999L 107.2 7.20001L 106.4 6.39999z"/>
<path style="stroke:none; fill:#838383" d="M 6.4 7.20001L 7.2 8L 6.4 7.20001z"/>
<path style="stroke:none; fill:#575757" d="M 107.2 7.20001L 108 8L 107.2 7.20001z"/>
<path style="stroke:none; fill:#838383" d="M 5.6 8L 6.4 8.80002L 5.6 8z"/>
<path style="stroke:none; fill:#575757" d="M 108 8L 108.8 8.80002L 108 8M 108.8 8.80002L 109.6 9.60001L 108.8 8.80002z"/>
<path style="stroke:none; fill:#838383" d="M 109.6 9.60001L 110.4 10.4L 109.6 9.60001z"/>
<path style="stroke:none; fill:#575757" d="M 3.2 11.2L 4 12L 3.2 11.2z"/>
<path style="stroke:none; fill:#838383" d="M 111.2 12L 112 12.8L 111.2 12z"/>
<path style="stroke:none; fill:#575757" d="M 2.4 12.8L 3.2 13.6L 2.4 12.8z"/>
<path style="stroke:none; fill:#838383" d="M 112 13.6L 112.8 14.4L 112 13.6z"/>
<path style="stroke:none; fill:#575757" d="M 1.6 14.4L 2.4 15.2L 1.6 14.4z"/>
<path style="stroke:none; fill:#838383" d="M 112.8 15.2L 113.6 16L 112.8 15.2M 0.8 16L 1.6 16.8L 0.8 16z"/>
<path style="stroke:none; fill:#575757" d="M 113.6 17.6L 114.4 18.4L 113.6 17.6M 0.266666 19.7334C 0.222153 19.7779 0.17785 20.6221 0.533334 20.2666C 0.577774 20.2223 0.622297 19.3778 0.266666 19.7334z"/>
<path style="stroke:none; fill:#838383" d="M 114.4 19.2L 115.2 20L 114.4 19.2z"/>
<path style="stroke:none; fill:#292929" d="M 0.266666 21.3334C 0.222226 21.3778 0.177813 22.2222 0.533334 21.8666C 0.577737 21.8222 0.62226 20.9778 0.266666 21.3334z"/>
<path style="stroke:none; fill:#838383" d="M 115.2 21.6L 116 22.4L 115.2 21.6z"/>
<path style="stroke:none; fill:#575757" d="M 116 24L 116.8 24.8L 116 24z"/>
<path style="stroke:none; fill:#292929" d="M 0.266666 26.1334C 0.222226 26.1778 0.177813 27.0222 0.533334 26.6667C 0.57781 26.6222 0.622224 25.7778 0.266666 26.1334z"/>
<path style="stroke:none; fill:#575757" d="M 116.8 26.4L 117.6 27.2L 116.8 26.4M 0 27.2L 0.8 28L 0 27.2z"/>
<path style="stroke:none; fill:#9d9d9d" d="M 0 28L 0.8 28.8L 0 28z"/>
<path style="stroke:none; fill:#838383" d="M 117.6 28L 118.4 28.8L 117.6 28z"/>
<path style="stroke:none; fill:#ffffff" d="M 0 28.8L 0 481.6L 217.6 481.6L 217.6 480.8C 183.157 480.089 159.432 443.682 160.831 412C 161.454 397.909 168.389 383.154 177.739 372.803C 181.095 369.087 194.278 362.291 194.682 357.517C 195.222 351.146 189.11 341.93 186.956 336L 165.642 279.2C 145.235 223.589 124.594 167.869 102.76 112.8L 85.9392 68C 83.6744 61.9966 82.1032 53.3812 78.2204 48.2543C 74.7629 43.6889 58.1806 46.4 52.8 46.4C 40.3653 46.4 21.1047 50.0393 10.4 42.5598C 5.09286 38.8518 3.02417 34.1523 0 28.8z"/>
<path style="stroke:none; fill:#575757" d="M 0.8 30.4L 1.6 31.2L 0.8 30.4M 118.4 30.4L 119.2 31.2L 118.4 30.4z"/>
<path style="stroke:none; fill:#9d9d9d" d="M 0.8 31.2L 1.6 32L 0.8 31.2z"/>
<path style="stroke:none; fill:#838383" d="M 119.2 32L 120 32.8L 119.2 32M 1.6 32.8L 2.4 33.6L 1.6 32.8M 2.4 34.4L 3.2 35.2L 2.4 34.4z"/>
<path style="stroke:none; fill:#575757" d="M 120 34.4L 120.8 35.2L 120 34.4z"/>
<path style="stroke:none; fill:#9d9d9d" d="M 3.2 36L 4 36.8L 3.2 36z"/>
<path style="stroke:none; fill:#575757" d="M 4 36.8L 4.8 37.6L 4 36.8z"/>
<path style="stroke:none; fill:#838383" d="M 121.6 38.4L 122.4 39.2L 121.6 38.4z"/>
<path style="stroke:none; fill:#575757" d="M 8 40.8L 8.8 41.6L 8 40.8M 122.4 40.8L 123.2 41.6L 122.4 40.8z"/>
<path style="stroke:none; fill:#838383" d="M 8.8 41.6L 9.6 42.4L 8.8 41.6z"/>
<path style="stroke:none; fill:#9d9d9d" d="M 11.2 43.2L 12 44L 11.2 43.2z"/>
<path style="stroke:none; fill:#575757" d="M 123.2 43.2L 124 44L 123.2 43.2z"/>
<path style="stroke:none; fill:#9d9d9d" d="M 12.8 44L 13.6 44.8L 12.8 44z"/>
<path style="stroke:none; fill:#838383" d="M 15.2 44.8L 16 45.6L 15.2 44.8M 18.9334 45.8666C 18.5778 46.2222 19.4222 46.1778 19.4666 46.1334C 19.8223 45.7776 18.9778 45.8222 18.9334 45.8666z"/>
<path style="stroke:none; fill:#575757" d="M 20 45.6L 20 46.4L 77.6 46.4C 72.4512 44.2394 64.7607 45.6 59.2 45.6L 20 45.6z"/>
<path style="stroke:none; fill:#9d9d9d" d="M 77.6 46.4L 78.4 47.2L 77.6 46.4z"/>
<path style="stroke:none; fill:#838383" d="M 124.8 47.2L 125.6 48L 124.8 47.2z"/>
<path style="stroke:none; fill:#575757" d="M 78.4 48L 79.2 48.8L 78.4 48z"/>
<path style="stroke:none; fill:#9d9d9d" d="M 78.4 48.8L 79.2 49.6L 78.4 48.8z"/>
<path style="stroke:none; fill:#575757" d="M 79.2 50.4L 80 51.2L 79.2 50.4z"/>
<path style="stroke:none; fill:#838383" d="M 126.4 51.2L 127.2 52L 126.4 51.2M 80 52.8L 80.8 53.6L 80 52.8z"/>
<path style="stroke:none; fill:#575757" d="M 127.2 53.6L 128 54.4L 127.2 53.6z"/>
<path style="stroke:none; fill:#838383" d="M 81.0664 54.9334C 81.0224 54.9778 80.9776 55.8222 81.3336 55.4666C 81.3776 55.4221 81.4224 54.5779 81.0664 54.9334M 128 55.2L 128.8 56L 128 55.2z"/>
<path style="stroke:none; fill:#575757" d="M 81.6 56.8L 82.4 57.6L 81.6 56.8M 128.8 57.6L 129.6 58.4L 128.8 57.6z"/>
<path style="stroke:none; fill:#838383" d="M 82.4 59.2L 83.2 60L 82.4 59.2M 129.6 60L 130.4 60.8L 129.6 60z"/>
<path style="stroke:none; fill:#9d9d9d" d="M 83.2 61.6L 84 62.4L 83.2 61.6z"/>
<path style="stroke:none; fill:#575757" d="M 130.4 62.4L 131.2 63.2L 130.4 62.4M 84 63.2L 84.8 64L 84 63.2z"/>
<path style="stroke:none; fill:#838383" d="M 84.8 65.6L 85.6 66.4L 84.8 65.6z"/>
<path style="stroke:none; fill:#575757" d="M 132 66.4L 132.8 67.2L 132 66.4M 85.6 67.2L 86.4 68L 85.6 67.2z"/>
<path style="stroke:none; fill:#9d9d9d" d="M 85.6 68L 86.4 68.8L 85.6 68z"/>
<path style="stroke:none; fill:#838383" d="M 86.4 69.6L 87.2 70.4L 86.4 69.6z"/>
<path style="stroke:none; fill:#575757" d="M 133.6 70.4L 134.4 71.2L 133.6 70.4z"/>
<path style="stroke:none; fill:#838383" d="M 87.2 72L 88 72.8L 87.2 72z"/>
<path style="stroke:none; fill:#575757" d="M 134.4 72.8L 135.2 73.6L 134.4 72.8M 88 73.6L 88.8 74.4L 88 73.6z"/>
<path style="stroke:none; fill:#9d9d9d" d="M 88 74.4L 88.8 75.2L 88 74.4z"/>
<path style="stroke:none; fill:#838383" d="M 135.2 74.4L 136 75.2L 135.2 74.4z"/>
<path style="stroke:none; fill:#575757" d="M 88.8 76L 89.6 76.8L 88.8 76M 136 76.8L 136.8 77.6L 136 76.8z"/>
<path style="stroke:none; fill:#838383" d="M 89.6 78.4L 90.4 79.2L 89.6 78.4z"/>
<path style="stroke:none; fill:#575757" d="M 136.8 79.2L 137.6 80L 136.8 79.2M 90.4 80L 91.2 80.8L 90.4 80M 572 80.8L 572.8 81.6L 572 80.8M 575.2 81.6L 576 82.4L 575.2 81.6z"/>
<path style="stroke:none; fill:#838383" d="M 91.2 82.4L 92 83.2L 91.2 82.4M 577.6 82.4L 578.4 83.2L 577.6 82.4M 579.2 83.2L 580 84L 579.2 83.2z"/>
<path style="stroke:none; fill:#575757" d="M 582.4 85.6L 583.2 86.4L 582.4 85.6z"/>
<path style="stroke:none; fill:#838383" d="M 92.8 86.4L 93.6 87.2L 92.8 86.4z"/>
<path style="stroke:none; fill:#575757" d="M 583.2 86.4L 584 87.2L 583.2 86.4M 584 87.2L 584.8 88L 584 87.2z"/>
<path style="stroke:none; fill:#838383" d="M 584.8 88L 585.6 88.8L 584.8 88M 93.6 88.8L 94.4 89.6L 93.6 88.8z"/>
<path style="stroke:none; fill:#575757" d="M 94.4 90.4L 95.2 91.2L 94.4 90.4z"/>
<path style="stroke:none; fill:#9d9d9d" d="M 94.4 91.2L 95.2 92L 94.4 91.2z"/>
<path style="stroke:none; fill:#838383" d="M 587.2 91.2L 588 92L 587.2 91.2z"/>
<path style="stroke:none; fill:#575757" d="M 95.2 92.8L 96 93.6L 95.2 92.8z"/>
<path style="stroke:none; fill:#838383" d="M 588 92.8L 588.8 93.6L 588 92.8z"/>
<path style="stroke:none; fill:#9d9d9d" d="M 95.2 93.6L 96 94.4L 95.2 93.6z"/>
<path style="stroke:none; fill:#575757" d="M 589.066 94.9336C 589.022 94.9776 588.978 95.8224 589.334 95.4664C 589.378 95.4224 589.422 94.5776 589.066 94.9336z"/>
<path style="stroke:none; fill:#838383" d="M 96 95.2L 96.8 96L 96 95.2z"/>
<path style="stroke:none; fill:#9d9d9d" d="M 96.8 97.6L 97.6 98.4L 96.8 97.6z"/>
<path style="stroke:none; fill:#575757" d="M 97.6 99.2L 98.4 100L 97.6 99.2z"/>
<path style="stroke:none; fill:#838383" d="M 98.4 101.6L 99.2 102.4L 98.4 101.6z"/>
<path style="stroke:none; fill:#575757" d="M 99.2 103.2L 100 104L 99.2 103.2z"/>
<path style="stroke:none; fill:#9d9d9d" d="M 99.2 104L 100 104.8L 99.2 104z"/>
<path style="stroke:none; fill:#838383" d="M 100 105.6L 100.8 106.4L 100 105.6M 100.8 108L 101.6 108.8L 100.8 108M 101.866 110.134C 101.822 110.178 101.778 111.022 102.134 110.666C 102.178 110.622 102.222 109.778 101.866 110.134M 588.8 110.4L 589.6 111.2L 588.8 110.4z"/>
<path style="stroke:none; fill:#ffffff" d="M 588.8 111.2C 584.343 130.641 577.138 149.757 571.221 168.8C 561.7 199.435 552.878 230.298 542.936 260.8C 537.766 276.661 535.217 304.898 521.597 315.688C 513.502 322.102 504.573 319.97 495.2 320.001C 478.518 320.054 461.454 319.302 444.8 320.031C 373.027 323.174 300.658 320 228.8 320C 229.86 330.574 236.179 342.095 240 352C 260.686 349.97 282.407 351.982 303.2 352L 421.603 351.998C 448.296 352.198 481.07 346.322 505.6 358.616C 551.518 381.631 552.634 449.641 507.2 473.774C 500.047 477.574 492.187 480.63 484 480.8L 484 481.6L 589.6 481.6L 589.6 219.2L 589.6 144C 589.6 134.654 592.406 119.794 588.8 111.2z"/>
<path style="stroke:none; fill:#575757" d="M 102.4 112L 103.2 112.8L 102.4 112z"/>
<path style="stroke:none; fill:#9d9d9d" d="M 102.4 112.8L 103.2 113.6L 102.4 112.8z"/>
<path style="stroke:none; fill:#575757" d="M 588 112.8L 588.8 113.6L 588 112.8z"/>
<path style="stroke:none; fill:#838383" d="M 103.2 114.4L 104 115.2L 103.2 114.4z"/>
<path style="stroke:none; fill:#575757" d="M 104.8 118.4L 105.6 119.2L 104.8 118.4z"/>
<path style="stroke:none; fill:#838383" d="M 586.4 118.4L 587.2 119.2L 586.4 118.4z"/>
<path style="stroke:none; fill:#9d9d9d" d="M 105.6 120.8L 106.4 121.6L 105.6 120.8z"/>
<path style="stroke:none; fill:#838383" d="M 585.6 120.8L 586.4 121.6L 585.6 120.8z"/>
<path style="stroke:none; fill:#575757" d="M 106.4 122.4L 107.2 123.2L 106.4 122.4z"/>
<path style="stroke:none; fill:#838383" d="M 584.8 123.2L 585.6 124L 584.8 123.2M 107.2 124.8L 108 125.6L 107.2 124.8M 154.4 124.8L 154.4 125.6L 165.6 125.6C 162.226 124.185 158.033 124.8 154.4 124.8z"/>
<path style="stroke:none; fill:#ffffff" d="M 154.4 125.6C 160.887 141.416 166.866 157.545 172.758 173.6C 174.488 178.315 176.327 188.978 180.519 191.978C 185.727 195.705 201.635 192.8 208 192.8L 281.6 192.8C 281.414 170.389 276.974 148.03 276.8 125.6C 236.372 122.492 194.954 125.6 154.4 125.6z"/>
<path style="stroke:none; fill:#838383" d="M 167.2 124.8L 168 125.6L 167.2 124.8M 170.4 124.8L 171.2 125.6L 170.4 124.8M 173.6 124.8L 174.4 125.6L 173.6 124.8M 176.8 124.8L 176.8 125.6L 189.6 125.6C 185.821 124.014 180.872 124.8 176.8 124.8M 191.2 124.8L 192 125.6L 191.2 124.8M 194.4 124.8L 195.2 125.6L 194.4 124.8M 197.6 124.8L 198.4 125.6L 197.6 124.8M 200.8 124.8L 200.8 125.6L 213.6 125.6C 209.821 124.014 204.872 124.8 200.8 124.8M 215.2 124.8L 216 125.6L 215.2 124.8M 218.4 124.8L 219.2 125.6L 218.4 124.8M 221.6 124.8L 222.4 125.6L 221.6 124.8M 224.8 124.8L 224.8 125.6L 237.6 125.6C 233.821 124.014 228.872 124.8 224.8 124.8M 239.2 124.8L 240 125.6L 239.2 124.8M 242.4 124.8L 243.2 125.6L 242.4 124.8M 245.6 124.8L 246.4 125.6L 245.6 124.8M 248.8 124.8L 248.8 125.6L 261.6 125.6C 257.821 124.014 252.872 124.8 248.8 124.8M 263.2 124.8L 264 125.6L 263.2 124.8M 266.4 124.8L 267.2 125.6L 266.4 124.8M 269.6 124.8L 270.4 125.6L 269.6 124.8M 272.8 124.8L 272.8 125.6L 276.8 125.6C 275.385 124.977 274.371 124.87 272.8 124.8z"/>
<path style="stroke:none; fill:#575757" d="M 298.4 124.8L 299.2 125.6L 298.4 124.8z"/>
<path style="stroke:none; fill:#ffffff" d="M 299.2 124.8L 298.4 125.6C 303.418 146.674 302.293 171.168 304 192.8L 398.4 192.8C 398.4 170.341 403.014 148.027 403.2 125.6C 381.066 125.6 358.919 124.49 336.799 124.969C 325.189 125.221 310.504 127.491 299.2 124.8z"/>
<path style="stroke:none; fill:#838383" d="M 300 124.8L 300 125.6L 309.6 125.6C 306.642 124.358 303.186 124.8 300 124.8M 311.2 124.8L 312 125.6L 311.2 124.8M 314.4 124.8L 315.2 125.6L 314.4 124.8M 317.6 124.8L 318.4 125.6L 317.6 124.8M 320.8 124.8L 320.8 125.6L 333.6 125.6C 329.821 124.014 324.872 124.8 320.8 124.8M 335.2 124.8L 336 125.6L 335.2 124.8M 338.4 124.8L 339.2 125.6L 338.4 124.8M 341.6 124.8L 342.4 125.6L 341.6 124.8M 344.8 124.8L 344.8 125.6L 357.6 125.6C 353.821 124.014 348.872 124.8 344.8 124.8M 359.2 124.8L 360 125.6L 359.2 124.8M 362.4 124.8L 363.2 125.6L 362.4 124.8M 365.6 124.8L 366.4 125.6L 365.6 124.8M 368.8 124.8L 368.8 125.6L 381.6 125.6C 377.821 124.014 372.872 124.8 368.8 124.8M 383.2 124.8L 384 125.6L 383.2 124.8M 386.4 124.8L 387.2 125.6L 386.4 124.8M 389.6 124.8L 390.4 125.6L 389.6 124.8M 392.8 124.8L 392.8 125.6L 403.2 125.6C 400.033 124.271 396.21 124.8 392.8 124.8M 425.6 124.8L 425.6 125.6L 429.6 125.6C 428.185 124.977 427.171 124.87 425.6 124.8z"/>
<path style="stroke:none; fill:#9d9d9d" d="M 429.6 124.8L 429.6 125.6L 440.8 125.6C 437.426 124.185 433.233 124.8 429.6 124.8z"/>
<path style="stroke:none; fill:#838383" d="M 440.8 124.8L 440.8 125.6L 453.6 125.6C 449.821 124.014 444.872 124.8 440.8 124.8z"/>
<path style="stroke:none; fill:#9d9d9d" d="M 453.6 124.8L 453.6 125.6L 464.8 125.6C 461.427 124.185 457.233 124.8 453.6 124.8z"/>
<path style="stroke:none; fill:#838383" d="M 464.8 124.8L 464.8 125.6L 477.6 125.6C 473.821 124.014 468.872 124.8 464.8 124.8z"/>
<path style="stroke:none; fill:#9d9d9d" d="M 477.6 124.8L 477.6 125.6L 488.8 125.6C 485.426 124.185 481.233 124.8 477.6 124.8z"/>
<path style="stroke:none; fill:#838383" d="M 488.8 124.8L 488.8 125.6L 501.6 125.6C 497.821 124.014 492.872 124.8 488.8 124.8z"/>
<path style="stroke:none; fill:#9d9d9d" d="M 501.6 124.8L 501.6 125.6L 512.8 125.6C 509.426 124.185 505.233 124.8 501.6 124.8z"/>
<path style="stroke:none; fill:#838383" d="M 512.8 124.8L 512.8 125.6L 525.6 125.6C 521.821 124.014 516.872 124.8 512.8 124.8z"/>
<path style="stroke:none; fill:#9d9d9d" d="M 525.6 124.8L 525.6 125.6L 538.4 125.6C 534.621 124.014 529.672 124.8 525.6 124.8z"/>
<path style="stroke:none; fill:#575757" d="M 425.066 126.134C 425.022 126.178 424.978 127.022 425.334 126.666C 425.378 126.622 425.422 125.778 425.066 126.134z"/>
<path style="stroke:none; fill:#ffffff" d="M 425.6 125.6C 423.899 147.146 424.988 171.847 420 192.8L 491.2 192.8C 497.289 192.8 512.178 195.534 517.19 191.978C 520.812 189.407 522.432 178.597 523.661 174.4C 528.414 158.165 534.588 142.078 538.4 125.6L 425.6 125.6z"/>
<path style="stroke:none; fill:#575757" d="M 538.4 125.6L 539.2 126.4L 538.4 125.6M 584 125.6L 584.8 126.4L 584 125.6M 108 126.4L 108.8 127.2L 108 126.4M 298.4 126.4L 298.4 129.6L 299.2 129.6C 299.061 128.252 298.946 127.605 298.4 126.4z"/>
<path style="stroke:none; fill:#9d9d9d" d="M 108 127.2L 108.8 128L 108 127.2M 424.8 127.2L 424.8 129.6L 425.6 129.6C 425.399 128.438 425.348 128.198 424.8 127.2M 537.6 127.2L 538.4 128L 537.6 127.2z"/>
<path style="stroke:none; fill:#575757" d="M 155.2 128L 156 128.8L 155.2 128M 537.6 128L 538.4 128.8L 537.6 128z"/>
<path style="stroke:none; fill:#838383" d="M 583.466 128.534C 583.422 128.578 583.378 129.422 583.734 129.066C 583.778 129.022 583.822 128.178 583.466 128.534z"/>
<path style="stroke:none; fill:#575757" d="M 108.8 128.8L 109.6 129.6L 108.8 128.8z"/>
<path style="stroke:none; fill:#9d9d9d" d="M 108.8 129.6L 109.6 130.4L 108.8 129.6z"/>
<path style="stroke:none; fill:#838383" d="M 156 129.6L 156.8 130.4L 156 129.6z"/>
<path style="stroke:none; fill:#575757" d="M 276.8 129.6L 276.8 132L 277.6 132C 277.399 130.838 277.348 130.598 276.8 129.6z"/>
<path style="stroke:none; fill:#292929" d="M 298.4 129.6L 298.4 132L 299.2 132C 298.999 130.838 298.948 130.598 298.4 129.6z"/>
<path style="stroke:none; fill:#9d9d9d" d="M 536.8 129.6L 537.6 130.4L 536.8 129.6z"/>
<path style="stroke:none; fill:#575757" d="M 582.666 130.934C 582.622 130.978 582.578 131.822 582.934 131.466C 582.978 131.422 583.022 130.578 582.666 130.934M 109.6 131.2L 110.4 132L 109.6 131.2z"/>
<path style="stroke:none; fill:#838383" d="M 402.4 131.2L 402.4 133.6L 403.2 133.6C 402.999 132.438 402.948 132.198 402.4 131.2z"/>
<path style="stroke:none; fill:#575757" d="M 156.8 132L 157.6 132.8L 156.8 132z"/>
<path style="stroke:none; fill:#9d9d9d" d="M 536 132L 536.8 132.8L 536 132z"/>
<path style="stroke:none; fill:#838383" d="M 276.8 132.8L 277.6 133.6L 276.8 132.8z"/>
<path style="stroke:none; fill:#575757" d="M 536 132.8L 536.8 133.6L 536 132.8z"/>
<path style="stroke:none; fill:#9d9d9d" d="M 110.4 133.6L 111.2 134.4L 110.4 133.6z"/>
<path style="stroke:none; fill:#292929" d="M 402.4 133.6L 402.4 136L 403.2 136C 402.999 134.838 402.948 134.598 402.4 133.6z"/>
<path style="stroke:none; fill:#575757" d="M 581.6 133.6L 582.4 134.4L 581.6 133.6M 157.6 134.4L 158.4 135.2L 157.6 134.4M 424 134.4L 424 136.8L 424.8 136.8C 424.599 135.638 424.548 135.398 424 134.4M 111.2 135.2L 112 136L 111.2 135.2M 535.2 135.2L 536 136L 535.2 135.2z"/>
<path style="stroke:none; fill:#838383" d="M 581.066 136.534C 581.022 136.578 580.978 137.422 581.334 137.066C 581.378 137.022 581.422 136.178 581.066 136.534z"/>
<path style="stroke:none; fill:#575757" d="M 158.4 136.8L 159.2 137.6L 158.4 136.8z"/>
<path style="stroke:none; fill:#838383" d="M 299.2 136.8L 299.2 139.2L 300 139.2C 299.799 138.038 299.748 137.798 299.2 136.8M 424 136.8L 424 139.2L 424.8 139.2C 424.599 138.038 424.548 137.798 424 136.8M 112 137.6L 112.8 138.4L 112 137.6M 534.4 137.6L 535.2 138.4L 534.4 137.6M 159.2 138.4L 160 139.2L 159.2 138.4z"/>
<path style="stroke:none; fill:#292929" d="M 277.6 138.4L 277.6 140.8L 278.4 140.8C 278.199 139.638 278.148 139.398 277.6 138.4z"/>
<path style="stroke:none; fill:#9d9d9d" d="M 112.8 140L 113.6 140.8L 112.8 140z"/>
<path style="stroke:none; fill:#575757" d="M 299.2 140L 300 140.8L 299.2 140M 533.866 140.534C 533.822 140.578 533.778 141.422 534.134 141.066C 534.178 141.022 534.222 140.178 533.866 140.534M 160 140.8L 160.8 141.6L 160 140.8M 277.6 140.8L 277.6 143.2L 278.4 143.2C 278.199 142.038 278.148 141.798 277.6 140.8z"/>
<path style="stroke:none; fill:#292929" d="M 299.2 140.8L 299.2 143.2L 300 143.2C 299.799 142.038 299.748 141.798 299.2 140.8z"/>
<path style="stroke:none; fill:#838383" d="M 401.6 140.8L 401.6 143.2L 402.4 143.2C 402.199 142.038 402.148 141.798 401.6 140.8z"/>
<path style="stroke:none; fill:#575757" d="M 113.6 141.6L 114.4 142.4L 113.6 141.6z"/>
<path style="stroke:none; fill:#838383" d="M 579.2 141.6L 580 142.4L 579.2 141.6M 160.8 142.4L 161.6 143.2L 160.8 142.4M 533.066 142.934C 533.022 142.978 532.978 143.822 533.334 143.466C 533.378 143.422 533.422 142.578 533.066 142.934z"/>
<path style="stroke:none; fill:#292929" d="M 401.866 143.734C 401.822 143.778 401.778 144.622 402.134 144.266C 402.178 144.222 402.222 143.378 401.866 143.734z"/>
<path style="stroke:none; fill:#838383" d="M 114.4 144L 115.2 144.8L 114.4 144M 277.6 144L 278.4 144.8L 277.6 144z"/>
<path style="stroke:none; fill:#292929" d="M 423.466 144.534C 423.422 144.578 423.378 145.422 423.734 145.066C 423.778 145.022 423.822 144.178 423.466 144.534z"/>
<path style="stroke:none; fill:#838383" d="M 578.4 144L 579.2 144.8L 578.4 144z"/>
<path style="stroke:none; fill:#575757" d="M 161.6 144.8L 162.4 145.6L 161.6 144.8M 115.2 145.6L 116 146.4L 115.2 145.6z"/>
<path style="stroke:none; fill:#838383" d="M 423.2 145.6L 423.2 148L 424 148C 423.799 146.838 423.748 146.598 423.2 145.6z"/>
<path style="stroke:none; fill:#9d9d9d" d="M 532 145.6L 532.8 146.4L 532 145.6M 115.2 146.4L 116 147.2L 115.2 146.4z"/>
<path style="stroke:none; fill:#838383" d="M 300 146.4L 300 148.8L 300.8 148.8C 300.599 147.638 300.548 147.398 300 146.4M 577.6 146.4L 578.4 147.2L 577.6 146.4z"/>
<path style="stroke:none; fill:#575757" d="M 116 148L 116.8 148.8L 116 148z"/>
<path style="stroke:none; fill:#292929" d="M 278.4 148L 278.4 150.4L 279.2 150.4C 278.999 149.238 278.948 148.998 278.4 148z"/>
<path style="stroke:none; fill:#9d9d9d" d="M 423.466 148.534C 423.422 148.578 423.378 149.422 423.734 149.066C 423.778 149.022 423.822 148.178 423.466 148.534M 531.2 148L 532 148.8L 531.2 148M 116 148.8L 116.8 149.6L 116 148.8z"/>
<path style="stroke:none; fill:#838383" d="M 163.2 148.8L 164 149.6L 163.2 148.8z"/>
<path style="stroke:none; fill:#575757" d="M 300 148.8L 300 151.2L 300.8 151.2C 300.599 150.038 300.548 149.798 300 148.8M 531.2 148.8L 532 149.6L 531.2 148.8M 576.8 148.8L 577.6 149.6L 576.8 148.8z"/>
<path style="stroke:none; fill:#838383" d="M 116.8 150.4L 117.6 151.2L 116.8 150.4z"/>
<path style="stroke:none; fill:#575757" d="M 278.4 150.4L 278.4 152.8L 279.2 152.8C 278.999 151.638 278.948 151.398 278.4 150.4z"/>
<path style="stroke:none; fill:#9d9d9d" d="M 530.4 150.4L 531.2 151.2L 530.4 150.4z"/>
<path style="stroke:none; fill:#575757" d="M 164 151.2L 164.8 152L 164 151.2z"/>
<path style="stroke:none; fill:#292929" d="M 300.266 151.734C 300.222 151.778 300.178 152.622 300.534 152.266C 300.578 152.222 300.622 151.378 300.266 151.734z"/>
<path style="stroke:none; fill:#575757" d="M 530.4 151.2L 531.2 152L 530.4 151.2z"/>
<path style="stroke:none; fill:#838383" d="M 576.266 151.734C 576.222 151.778 576.178 152.622 576.534 152.266C 576.578 152.222 576.622 151.378 576.266 151.734z"/>
<path style="stroke:none; fill:#575757" d="M 400.8 152L 400.8 154.4L 401.6 154.4C 401.399 153.238 401.348 152.998 400.8 152z"/>
<path style="stroke:none; fill:#9d9d9d" d="M 117.6 152.8L 118.4 153.6L 117.6 152.8z"/>
<path style="stroke:none; fill:#838383" d="M 278.666 153.334C 278.622 153.378 278.578 154.222 278.934 153.866C 278.978 153.822 279.022 152.978 278.666 153.334z"/>
<path style="stroke:none; fill:#575757" d="M 164.8 153.6L 165.6 154.4L 164.8 153.6z"/>
<path style="stroke:none; fill:#292929" d="M 422.666 154.134C 422.622 154.178 422.578 155.022 422.934 154.666C 422.978 154.622 423.022 153.778 422.666 154.134z"/>
<path style="stroke:none; fill:#575757" d="M 529.6 153.6L 530.4 154.4L 529.6 153.6M 118.4 154.4L 119.2 155.2L 118.4 154.4z"/>
<path style="stroke:none; fill:#292929" d="M 401.066 154.934C 401.022 154.978 400.978 155.822 401.334 155.466C 401.378 155.422 401.422 154.578 401.066 154.934z"/>
<path style="stroke:none; fill:#575757" d="M 575.2 154.4L 576 155.2L 575.2 154.4z"/>
<path style="stroke:none; fill:#838383" d="M 165.6 155.2L 166.4 156L 165.6 155.2z"/>
<path style="stroke:none; fill:#575757" d="M 422.666 155.734C 422.622 155.778 422.578 156.622 422.934 156.266C 422.978 156.222 423.022 155.378 422.666 155.734M 528.8 156L 529.6 156.8L 528.8 156z"/>
<path style="stroke:none; fill:#292929" d="M 574.666 156.534C 574.622 156.578 574.578 157.422 574.934 157.066C 574.978 157.022 575.022 156.178 574.666 156.534z"/>
<path style="stroke:none; fill:#838383" d="M 119.2 156.8L 120 157.6L 119.2 156.8z"/>
<path style="stroke:none; fill:#9d9d9d" d="M 422.4 156.8L 422.4 159.2L 423.2 159.2C 422.999 158.038 422.948 157.798 422.4 156.8z"/>
<path style="stroke:none; fill:#575757" d="M 166.4 157.6L 167.2 158.4L 166.4 157.6z"/>
<path style="stroke:none; fill:#838383" d="M 300.8 157.6L 300.8 160.8L 301.6 160.8C 301.461 159.452 301.346 158.805 300.8 157.6z"/>
<path style="stroke:none; fill:#575757" d="M 120 158.4L 120.8 159.2L 120 158.4z"/>
<path style="stroke:none; fill:#838383" d="M 528 158.4L 528.8 159.2L 528 158.4z"/>
<path style="stroke:none; fill:#292929" d="M 279.2 159.2L 279.2 162.4L 280 162.4C 279.861 161.052 279.746 160.405 279.2 159.2z"/>
<path style="stroke:none; fill:#575757" d="M 167.2 160L 168 160.8L 167.2 160z"/>
<path style="stroke:none; fill:#838383" d="M 573.6 160L 574.4 160.8L 573.6 160M 120.8 160.8L 121.6 161.6L 120.8 160.8z"/>
<path style="stroke:none; fill:#575757" d="M 527.466 161.334C 527.422 161.378 527.378 162.222 527.734 161.866C 527.778 161.822 527.822 160.978 527.466 161.334z"/>
<path style="stroke:none; fill:#838383" d="M 168 161.6L 168.8 162.4L 168 161.6z"/>
<path style="stroke:none; fill:#575757" d="M 300.8 161.6L 301.6 162.4L 300.8 161.6z"/>
<path style="stroke:none; fill:#838383" d="M 400 161.6L 400 164L 400.8 164C 400.599 162.838 400.548 162.598 400 161.6z"/>
<path style="stroke:none; fill:#575757" d="M 121.6 162.4L 122.4 163.2L 121.6 162.4M 279.2 162.4L 279.2 164.8L 280 164.8C 279.799 163.638 279.748 163.398 279.2 162.4M 572.8 162.4L 573.6 163.2L 572.8 162.4z"/>
<path style="stroke:none; fill:#9d9d9d" d="M 121.6 163.2L 122.4 164L 121.6 163.2M 526.4 163.2L 527.2 164L 526.4 163.2z"/>
<path style="stroke:none; fill:#575757" d="M 168.8 164L 169.6 164.8L 168.8 164z"/>
<path style="stroke:none; fill:#292929" d="M 400 164L 400 168L 400.8 168C 400.73 166.429 400.623 165.415 400 164z"/>
<path style="stroke:none; fill:#575757" d="M 526.4 164L 527.2 164.8L 526.4 164M 122.4 164.8L 123.2 165.6L 122.4 164.8z"/>
<path style="stroke:none; fill:#838383" d="M 279.466 165.334C 279.422 165.378 279.378 166.222 279.734 165.866C 279.778 165.822 279.822 164.978 279.466 165.334z"/>
<path style="stroke:none; fill:#575757" d="M 421.6 164.8L 421.6 167.2L 422.4 167.2C 422.199 166.038 422.148 165.798 421.6 164.8M 572 164.8L 572.8 165.6L 572 164.8z"/>
<path style="stroke:none; fill:#9d9d9d" d="M 122.4 165.6L 123.2 166.4L 122.4 165.6z"/>
<path style="stroke:none; fill:#575757" d="M 525.866 166.934C 525.822 166.978 525.778 167.822 526.134 167.466C 526.178 167.422 526.222 166.578 525.866 166.934M 123.2 167.2L 124 168L 123.2 167.2z"/>
<path style="stroke:none; fill:#838383" d="M 421.6 167.2L 421.6 169.6L 422.4 169.6C 422.199 168.438 422.148 168.198 421.6 167.2z"/>
<path style="stroke:none; fill:#575757" d="M 571.2 167.2L 572 168L 571.2 167.2M 170.4 168L 171.2 168.8L 170.4 168z"/>
<path style="stroke:none; fill:#838383" d="M 301.866 168.534C 301.822 168.578 301.778 169.422 302.134 169.066C 302.178 169.022 302.222 168.178 301.866 168.534z"/>
<path style="stroke:none; fill:#9d9d9d" d="M 524.8 168.8L 525.6 169.6L 524.8 168.8M 124 169.6L 124.8 170.4L 124 169.6z"/>
<path style="stroke:none; fill:#575757" d="M 301.6 169.6L 301.6 172L 302.4 172C 302.199 170.838 302.148 170.598 301.6 169.6M 524.8 169.6L 525.6 170.4L 524.8 169.6M 570.4 169.6L 571.2 170.4L 570.4 169.6M 171.2 170.4L 172 171.2L 171.2 170.4z"/>
<path style="stroke:none; fill:#838383" d="M 399.2 170.4L 399.2 172.8L 400 172.8C 399.799 171.638 399.748 171.398 399.2 170.4z"/>
<path style="stroke:none; fill:#575757" d="M 124.8 171.2L 125.6 172L 124.8 171.2z"/>
<path style="stroke:none; fill:#292929" d="M 280 171.2L 280 173.6L 280.8 173.6C 280.599 172.438 280.548 172.198 280 171.2z"/>
<path style="stroke:none; fill:#9d9d9d" d="M 524 171.2L 524.8 172L 524 171.2z"/>
<path style="stroke:none; fill:#575757" d="M 172.266 172.534C 172.222 172.578 172.178 173.422 172.534 173.066C 172.578 173.022 172.622 172.178 172.266 172.534M 524 172L 524.8 172.8L 524 172M 399.2 172.8L 399.2 176L 400 176C 399.861 174.652 399.746 174.005 399.2 172.8z"/>
<path style="stroke:none; fill:#838383" d="M 569.6 172.8L 570.4 173.6L 569.6 172.8z"/>
<path style="stroke:none; fill:#575757" d="M 125.6 173.6L 126.4 174.4L 125.6 173.6z"/>
<path style="stroke:none; fill:#838383" d="M 280 173.6L 280 176L 280.8 176C 280.599 174.838 280.548 174.598 280 173.6M 172.8 174.4L 173.6 175.2L 172.8 174.4z"/>
<path style="stroke:none; fill:#575757" d="M 420.8 174.4L 421.6 175.2L 420.8 174.4M 523.2 174.4L 524 175.2L 523.2 174.4z"/>
<path style="stroke:none; fill:#838383" d="M 568.8 175.2L 569.6 176L 568.8 175.2z"/>
<path style="stroke:none; fill:#9d9d9d" d="M 126.4 176L 127.2 176.8L 126.4 176z"/>
<path style="stroke:none; fill:#292929" d="M 399.2 176L 399.2 179.2L 400 179.2C 399.861 177.852 399.746 177.205 399.2 176z"/>
<path style="stroke:none; fill:#838383" d="M 420.8 176L 420.8 178.4L 421.6 178.4C 421.399 177.238 421.348 176.998 420.8 176z"/>
<path style="stroke:none; fill:#575757" d="M 173.6 176.8L 174.4 177.6L 173.6 176.8z"/>
<path style="stroke:none; fill:#838383" d="M 522.4 176.8L 523.2 177.6L 522.4 176.8z"/>
<path style="stroke:none; fill:#575757" d="M 127.2 177.6L 128 178.4L 127.2 177.6M 568 177.6L 568.8 178.4L 568 177.6z"/>
<path style="stroke:none; fill:#9d9d9d" d="M 421.066 178.934C 421.022 178.978 420.978 179.822 421.334 179.466C 421.378 179.422 421.422 178.578 421.066 178.934z"/>
<path style="stroke:none; fill:#838383" d="M 302.4 179.2L 302.4 181.6L 303.2 181.6C 302.999 180.438 302.948 180.198 302.4 179.2z"/>
<path style="stroke:none; fill:#9d9d9d" d="M 521.6 179.2L 522.4 180L 521.6 179.2z"/>
<path style="stroke:none; fill:#838383" d="M 128 180L 128.8 180.8L 128 180z"/>
<path style="stroke:none; fill:#575757" d="M 175.2 180.8L 176 181.6L 175.2 180.8z"/>
<path style="stroke:none; fill:#838383" d="M 567.2 180.8L 568 181.6L 567.2 180.8z"/>
<path style="stroke:none; fill:#575757" d="M 128.8 181.6L 129.6 182.4L 128.8 181.6z"/>
<path style="stroke:none; fill:#292929" d="M 302.666 182.134C 302.622 182.178 302.578 183.022 302.934 182.666C 302.978 182.622 303.022 181.778 302.666 182.134z"/>
<path style="stroke:none; fill:#9d9d9d" d="M 520.8 181.6L 521.6 182.4L 520.8 181.6M 128.8 182.4L 129.6 183.2L 128.8 182.4z"/>
<path style="stroke:none; fill:#838383" d="M 398.4 182.4L 398.4 184.8L 399.2 184.8C 398.999 183.638 398.948 183.398 398.4 182.4z"/>
<path style="stroke:none; fill:#575757" d="M 520.8 182.4L 521.6 183.2L 520.8 182.4M 280.8 183.2L 280.8 185.6L 281.6 185.6C 281.399 184.438 281.348 184.198 280.8 183.2z"/>
<path style="stroke:none; fill:#292929" d="M 420 183.2L 420 185.6L 420.8 185.6C 420.599 184.438 420.548 184.198 420 183.2z"/>
<path style="stroke:none; fill:#838383" d="M 566.4 183.2L 567.2 184L 566.4 183.2z"/>
<path style="stroke:none; fill:#575757" d="M 129.6 184L 130.4 184.8L 129.6 184z"/>
<path style="stroke:none; fill:#9d9d9d" d="M 520 184L 520.8 184.8L 520 184z"/>
<path style="stroke:none; fill:#838383" d="M 176.8 184.8L 177.6 185.6L 176.8 184.8z"/>
<path style="stroke:none; fill:#575757" d="M 398.666 185.334C 398.622 185.378 398.578 186.222 398.934 185.866C 398.978 185.822 399.022 184.978 398.666 185.334M 520 184.8L 520.8 185.6L 520 184.8z"/>
<path style="stroke:none; fill:#838383" d="M 281.066 186.134C 281.022 186.178 280.978 187.022 281.334 186.666C 281.378 186.622 281.422 185.778 281.066 186.134z"/>
<path style="stroke:none; fill:#575757" d="M 420 185.6L 420 188L 420.8 188C 420.599 186.838 420.548 186.598 420 185.6M 565.6 185.6L 566.4 186.4L 565.6 185.6M 130.4 186.4L 131.2 187.2L 130.4 186.4z"/>
<path style="stroke:none; fill:#292929" d="M 398.4 186.4L 398.4 188.8L 399.2 188.8C 398.999 187.638 398.948 187.398 398.4 186.4z"/>
<path style="stroke:none; fill:#838383" d="M 519.466 186.934C 519.422 186.978 519.378 187.822 519.734 187.466C 519.778 187.422 519.822 186.578 519.466 186.934z"/>
<path style="stroke:none; fill:#575757" d="M 177.6 187.2L 178.4 188L 177.6 187.2z"/>
<path style="stroke:none; fill:#838383" d="M 420 188L 420 190.4L 420.8 190.4C 420.599 189.238 420.548 188.998 420 188z"/>
<path style="stroke:none; fill:#575757" d="M 564.8 188L 565.6 188.8L 564.8 188z"/>
<path style="stroke:none; fill:#838383" d="M 131.2 188.8L 132 189.6L 131.2 188.8M 303.466 189.334C 303.422 189.378 303.378 190.222 303.734 189.866C 303.778 189.822 303.822 188.978 303.466 189.334z"/>
<path style="stroke:none; fill:#575757" d="M 178.4 189.6L 179.2 190.4L 178.4 189.6M 518.666 190.134C 518.622 190.178 518.578 191.022 518.934 190.666C 518.978 190.622 519.022 189.778 518.666 190.134M 132 190.4L 132.8 191.2L 132 190.4z"/>
<path style="stroke:none; fill:#292929" d="M 303.2 190.4L 303.2 192.8L 304 192.8C 303.799 191.638 303.748 191.398 303.2 190.4z"/>
<path style="stroke:none; fill:#9d9d9d" d="M 420.266 190.934C 420.222 190.978 420.178 191.822 420.534 191.466C 420.578 191.422 420.622 190.578 420.266 190.934z"/>
<path style="stroke:none; fill:#838383" d="M 179.2 191.2L 180 192L 179.2 191.2M 564 191.2L 564.8 192L 564 191.2z"/>
<path style="stroke:none; fill:#9d9d9d" d="M 517.6 192L 518.4 192.8L 517.6 192z"/>
<path style="stroke:none; fill:#838383" d="M 132.8 192.8L 133.6 193.6L 132.8 192.8z"/>
<path style="stroke:none; fill:#575757" d="M 180 192.8L 180 193.6L 281.6 193.6C 273.578 190.234 259.917 192.8 251.2 192.8L 180 192.8M 304 192.8L 304 193.6L 397.6 193.6C 389.959 190.394 377.098 192.8 368.8 192.8L 304 192.8M 420 192.8L 420 193.6L 517.6 193.6C 509.769 190.314 496.507 192.8 488 192.8L 420 192.8z"/>
<path style="stroke:none; fill:#838383" d="M 563.2 193.6L 564 194.4L 563.2 193.6z"/>
<path style="stroke:none; fill:#9d9d9d" d="M 133.6 195.2L 134.4 196L 133.6 195.2z"/>
<path style="stroke:none; fill:#838383" d="M 562.4 196L 563.2 196.8L 562.4 196z"/>
<path style="stroke:none; fill:#575757" d="M 134.4 196.8L 135.2 197.6L 134.4 196.8M 561.6 198.4L 562.4 199.2L 561.6 198.4z"/>
<path style="stroke:none; fill:#9d9d9d" d="M 135.2 199.2L 136 200L 135.2 199.2z"/>
<path style="stroke:none; fill:#292929" d="M 561.066 200.534C 561.022 200.578 560.978 201.422 561.334 201.066C 561.378 201.022 561.422 200.178 561.066 200.534z"/>
<path style="stroke:none; fill:#575757" d="M 136 200.8L 136.8 201.6L 136 200.8z"/>
<path style="stroke:none; fill:#838383" d="M 560.8 201.6L 561.6 202.4L 560.8 201.6M 136.8 203.2L 137.6 204L 136.8 203.2z"/>
<path style="stroke:none; fill:#575757" d="M 560 204L 560.8 204.8L 560 204z"/>
<path style="stroke:none; fill:#838383" d="M 137.6 205.6L 138.4 206.4L 137.6 205.6z"/>
<path style="stroke:none; fill:#575757" d="M 559.2 206.4L 560 207.2L 559.2 206.4M 138.4 207.2L 139.2 208L 138.4 207.2z"/>
<path style="stroke:none; fill:#9d9d9d" d="M 138.4 208L 139.2 208.8L 138.4 208z"/>
<path style="stroke:none; fill:#575757" d="M 139.2 209.6L 140 210.4L 139.2 209.6z"/>
<path style="stroke:none; fill:#838383" d="M 140 212L 140.8 212.8L 140 212z"/>
<path style="stroke:none; fill:#575757" d="M 140.8 213.6L 141.6 214.4L 140.8 213.6z"/>
<path style="stroke:none; fill:#838383" d="M 556.8 214.4L 557.6 215.2L 556.8 214.4z"/>
<path style="stroke:none; fill:#9d9d9d" d="M 188.8 215.2L 189.6 216L 188.8 215.2z"/>
<path style="stroke:none; fill:#ffffff" d="M 188.8 216C 193.802 230.784 199.643 245.506 205.44 260C 206.988 263.87 208.396 272.654 211.762 275.178C 215.686 278.121 227.199 276 232 276L 288 276C 287.601 256.682 286.724 234.983 283.2 216C 258.97 216 234.575 214.274 210.4 215.928C 203.191 216.422 195.87 213.91 188.8 216z"/>
<path style="stroke:none; fill:#9d9d9d" d="M 201.6 215.2L 201.6 216L 213.6 216C 210.023 214.499 205.454 215.2 201.6 215.2M 225.6 215.2L 225.6 216L 237.6 216C 234.023 214.499 229.454 215.2 225.6 215.2M 249.6 215.2L 249.6 216L 261.6 216C 258.023 214.499 253.454 215.2 249.6 215.2M 273.6 215.2L 273.6 216L 283.2 216C 280.242 214.758 276.786 215.2 273.6 215.2z"/>
<path style="stroke:none; fill:#575757" d="M 283.2 215.2L 284 216L 283.2 215.2z"/>
<path style="stroke:none; fill:#838383" d="M 305.6 215.2L 306.4 216L 305.6 215.2z"/>
<path style="stroke:none; fill:#ffffff" d="M 306.4 215.2L 305.6 216C 308.031 226.21 307.357 237.558 308.072 248C 308.709 257.31 310.322 266.663 310.4 276L 391.2 276C 393.666 256.486 395.987 235.672 396 216C 388.625 214.631 381.76 216.157 374.4 215.988C 352.017 215.476 328.664 217.687 306.4 215.2z"/>
<path style="stroke:none; fill:#9d9d9d" d="M 307.2 215.2L 307.2 216L 309.6 216C 308.602 215.452 308.362 215.401 307.2 215.2M 321.6 215.2L 321.6 216L 333.6 216C 330.023 214.499 325.454 215.2 321.6 215.2M 345.6 215.2L 345.6 216L 357.6 216C 354.023 214.499 349.454 215.2 345.6 215.2M 369.6 215.2L 369.6 216L 381.6 216C 378.023 214.499 373.454 215.2 369.6 215.2M 393.6 215.2L 393.6 216L 396 216C 395.002 215.452 394.762 215.401 393.6 215.2z"/>
<path style="stroke:none; fill:#575757" d="M 396.266 215.734C 396.222 215.778 396.178 216.622 396.534 216.266C 396.578 216.222 396.622 215.378 396.266 215.734z"/>
<path style="stroke:none; fill:#9d9d9d" d="M 418.4 215.2L 418.4 216L 429.6 216C 426.226 214.585 422.033 215.2 418.4 215.2z"/>
<path style="stroke:none; fill:#ffffff" d="M 418.4 216C 418.248 234.403 417.851 257.343 413.6 275.2C 419.774 277.025 427.186 276 433.6 276L 472 276C 476.823 276 487.556 278.012 491.592 275.178C 495.186 272.654 496.085 263.982 497.327 260C 501.735 245.875 509.195 229.95 510.4 215.2L 418.4 216z"/>
<path style="stroke:none; fill:#9d9d9d" d="M 441.6 215.2L 441.6 216L 453.6 216C 450.023 214.499 445.454 215.2 441.6 215.2M 465.6 215.2L 465.6 216L 477.6 216C 474.023 214.499 469.454 215.2 465.6 215.2M 489.6 215.2L 489.6 216L 501.6 216C 498.023 214.499 493.454 215.2 489.6 215.2M 510.666 215.734C 510.622 215.778 510.578 216.622 510.934 216.266C 510.978 216.222 511.022 215.378 510.666 215.734M 141.6 216L 142.4 216.8L 141.6 216z"/>
<path style="stroke:none; fill:#838383" d="M 283.2 216L 283.2 218.4L 284 218.4C 283.799 217.238 283.748 216.998 283.2 216M 188.8 216.8L 189.6 217.6L 188.8 216.8z"/>
<path style="stroke:none; fill:#9d9d9d" d="M 305.866 217.334C 305.822 217.378 305.778 218.222 306.134 217.866C 306.178 217.822 306.222 216.978 305.866 217.334z"/>
<path style="stroke:none; fill:#292929" d="M 396.266 217.334C 396.222 217.378 396.178 218.222 396.534 217.866C 396.578 217.822 396.622 216.978 396.266 217.334z"/>
<path style="stroke:none; fill:#838383" d="M 556 216.8L 556.8 217.6L 556 216.8z"/>
<path style="stroke:none; fill:#575757" d="M 142.4 217.6L 143.2 218.4L 142.4 217.6z"/>
<path style="stroke:none; fill:#838383" d="M 305.866 218.934C 305.822 218.978 305.778 219.822 306.134 219.466C 306.178 219.422 306.222 218.578 305.866 218.934z"/>
<path style="stroke:none; fill:#575757" d="M 417.6 218.4L 417.6 220.8L 418.4 220.8C 418.199 219.638 418.148 219.398 417.6 218.4z"/>
<path style="stroke:none; fill:#9d9d9d" d="M 509.6 218.4L 510.4 219.2L 509.6 218.4z"/>
<path style="stroke:none; fill:#575757" d="M 189.6 219.2L 190.4 220L 189.6 219.2M 509.6 219.2L 510.4 220L 509.6 219.2M 555.2 219.2L 556 220L 555.2 219.2z"/>
<path style="stroke:none; fill:#838383" d="M 143.2 220L 144 220.8L 143.2 220z"/>
<path style="stroke:none; fill:#575757" d="M 305.6 220L 305.6 222.4L 306.4 222.4C 306.199 221.238 306.148 220.998 305.6 220z"/>
<path style="stroke:none; fill:#9d9d9d" d="M 190.4 220.8L 191.2 221.6L 190.4 220.8M 417.866 221.334C 417.822 221.378 417.778 222.222 418.134 221.866C 418.178 221.822 418.222 220.978 417.866 221.334z"/>
<path style="stroke:none; fill:#575757" d="M 508.8 221.6L 509.6 222.4L 508.8 221.6z"/>
<path style="stroke:none; fill:#838383" d="M 554.666 222.134C 554.622 222.178 554.578 223.022 554.934 222.666C 554.978 222.622 555.022 221.778 554.666 222.134M 144 222.4L 144.8 223.2L 144 222.4z"/>
<path style="stroke:none; fill:#292929" d="M 305.6 222.4L 305.6 225.6L 306.4 225.6C 306.261 224.252 306.146 223.605 305.6 222.4z"/>
<path style="stroke:none; fill:#575757" d="M 191.2 223.2L 192 224L 191.2 223.2M 284 223.2L 284.8 224L 284 223.2z"/>
<path style="stroke:none; fill:#838383" d="M 395.2 223.2L 395.2 226.4L 396 226.4C 395.861 225.052 395.746 224.405 395.2 223.2z"/>
<path style="stroke:none; fill:#575757" d="M 508 224L 508.8 224.8L 508 224z"/>
<path style="stroke:none; fill:#838383" d="M 144.8 224.8L 145.6 225.6L 144.8 224.8z"/>
<path style="stroke:none; fill:#9d9d9d" d="M 192 224.8L 192.8 225.6L 192 224.8z"/>
<path style="stroke:none; fill:#838383" d="M 284 224.8L 284 228L 284.8 228C 284.661 226.652 284.546 226.005 284 224.8z"/>
<path style="stroke:none; fill:#575757" d="M 553.6 224.8L 554.4 225.6L 553.6 224.8M 145.6 226.4L 146.4 227.2L 145.6 226.4z"/>
<path style="stroke:none; fill:#292929" d="M 395.2 226.4L 395.2 228.8L 396 228.8C 395.799 227.638 395.748 227.398 395.2 226.4z"/>
<path style="stroke:none; fill:#575757" d="M 507.2 226.4L 508 227.2L 507.2 226.4z"/>
<path style="stroke:none; fill:#9d9d9d" d="M 145.6 227.2L 146.4 228L 145.6 227.2z"/>
<path style="stroke:none; fill:#838383" d="M 192.8 227.2L 193.6 228L 192.8 227.2z"/>
<path style="stroke:none; fill:#9d9d9d" d="M 306.4 227.2L 306.4 229.6L 307.2 229.6C 306.999 228.438 306.948 228.198 306.4 227.2z"/>
<path style="stroke:none; fill:#292929" d="M 417.066 227.734C 417.022 227.778 416.978 228.622 417.334 228.266C 417.378 228.222 417.422 227.378 417.066 227.734z"/>
<path style="stroke:none; fill:#838383" d="M 553.066 227.734C 553.022 227.778 552.978 228.622 553.334 228.266C 553.378 228.222 553.422 227.378 553.066 227.734M 146.4 228.8L 147.2 229.6L 146.4 228.8M 193.866 229.334C 193.822 229.378 193.778 230.222 194.134 229.866C 194.178 229.822 194.222 228.978 193.866 229.334z"/>
<path style="stroke:none; fill:#575757" d="M 417.066 229.334C 417.022 229.378 416.978 230.222 417.334 229.866C 417.378 229.822 417.422 228.978 417.066 229.334z"/>
<path style="stroke:none; fill:#838383" d="M 506.4 228.8L 507.2 229.6L 506.4 228.8M 306.4 229.6L 306.4 232L 307.2 232C 306.999 230.838 306.948 230.598 306.4 229.6M 417.066 230.934C 417.022 230.978 416.978 231.822 417.334 231.466C 417.378 231.422 417.422 230.578 417.066 230.934M 552 230.4L 552.8 231.2L 552 230.4z"/>
<path style="stroke:none; fill:#9d9d9d" d="M 147.2 231.2L 148 232L 147.2 231.2M 194.4 231.2L 195.2 232L 194.4 231.2z"/>
<path style="stroke:none; fill:#575757" d="M 505.866 231.734C 505.822 231.778 505.778 232.622 506.134 232.266C 506.178 232.222 506.222 231.378 505.866 231.734M 194.4 232L 195.2 232.8L 194.4 232z"/>
<path style="stroke:none; fill:#292929" d="M 284.8 232L 284.8 234.4L 285.6 234.4C 285.399 233.238 285.348 232.998 284.8 232z"/>
<path style="stroke:none; fill:#575757" d="M 306.4 232L 306.4 234.4L 307.2 234.4C 306.999 233.238 306.948 232.998 306.4 232M 148 232.8L 148.8 233.6L 148 232.8z"/>
<path style="stroke:none; fill:#838383" d="M 394.4 232.8L 394.4 236L 395.2 236C 395.061 234.652 394.946 234.005 394.4 232.8M 551.2 232.8L 552 233.6L 551.2 232.8z"/>
<path style="stroke:none; fill:#9d9d9d" d="M 195.2 233.6L 196 234.4L 195.2 233.6z"/>
<path style="stroke:none; fill:#838383" d="M 505.066 234.134C 505.022 234.178 504.978 235.022 505.334 234.666C 505.378 234.622 505.422 233.778 505.066 234.134z"/>
<path style="stroke:none; fill:#575757" d="M 284.8 234.4L 284.8 236.8L 285.6 236.8C 285.399 235.638 285.348 235.398 284.8 234.4z"/>
<path style="stroke:none; fill:#292929" d="M 306.4 234.4L 306.4 236.8L 307.2 236.8C 306.999 235.638 306.948 235.398 306.4 234.4z"/>
<path style="stroke:none; fill:#9d9d9d" d="M 148.8 235.2L 149.6 236L 148.8 235.2z"/>
<path style="stroke:none; fill:#838383" d="M 550.4 235.2L 551.2 236L 550.4 235.2z"/>
<path style="stroke:none; fill:#575757" d="M 196 236L 196.8 236.8L 196 236z"/>
<path style="stroke:none; fill:#292929" d="M 394.666 236.534C 394.622 236.578 394.578 237.422 394.934 237.066C 394.978 237.022 395.022 236.178 394.666 236.534z"/>
<path style="stroke:none; fill:#575757" d="M 149.6 236.8L 150.4 237.6L 149.6 236.8z"/>
<path style="stroke:none; fill:#838383" d="M 285.066 237.334C 285.022 237.378 284.978 238.222 285.334 237.866C 285.378 237.822 285.422 236.978 285.066 237.334z"/>
<path style="stroke:none; fill:#9d9d9d" d="M 307.2 236.8L 307.2 240L 308 240C 307.861 238.652 307.746 238.005 307.2 236.8z"/>
<path style="stroke:none; fill:#292929" d="M 416.266 237.334C 416.222 237.378 416.178 238.222 416.534 237.866C 416.578 237.822 416.622 236.978 416.266 237.334z"/>
<path style="stroke:none; fill:#9d9d9d" d="M 504 236.8L 504.8 237.6L 504 236.8z"/>
<path style="stroke:none; fill:#575757" d="M 549.6 237.6L 550.4 238.4L 549.6 237.6z"/>
<path style="stroke:none; fill:#9d9d9d" d="M 284.8 238.4L 284.8 240.8L 285.6 240.8C 285.399 239.638 285.348 239.398 284.8 238.4z"/>
<path style="stroke:none; fill:#575757" d="M 416.266 238.934C 416.222 238.978 416.178 239.822 416.534 239.466C 416.578 239.422 416.622 238.578 416.266 238.934z"/>
<path style="stroke:none; fill:#838383" d="M 150.4 239.2L 151.2 240L 150.4 239.2z"/>
<path style="stroke:none; fill:#9d9d9d" d="M 503.2 239.2L 504 240L 503.2 239.2z"/>
<path style="stroke:none; fill:#838383" d="M 197.6 240L 198.4 240.8L 197.6 240M 307.466 240.534C 307.422 240.578 307.378 241.422 307.734 241.066C 307.778 241.022 307.822 240.178 307.466 240.534M 416.266 240.534C 416.222 240.578 416.178 241.422 416.534 241.066C 416.578 241.022 416.622 240.178 416.266 240.534z"/>
<path style="stroke:none; fill:#575757" d="M 503.2 240L 504 240.8L 503.2 240M 548.8 240L 549.6 240.8L 548.8 240z"/>
<path style="stroke:none; fill:#838383" d="M 151.2 241.6L 152 242.4L 151.2 241.6z"/>
<path style="stroke:none; fill:#292929" d="M 285.6 241.6L 285.6 244L 286.4 244C 286.199 242.838 286.148 242.598 285.6 241.6z"/>
<path style="stroke:none; fill:#575757" d="M 307.2 241.6L 307.2 244L 308 244C 307.799 242.838 307.748 242.598 307.2 241.6M 198.4 242.4L 199.2 243.2L 198.4 242.4z"/>
<path style="stroke:none; fill:#9d9d9d" d="M 393.6 242.4L 393.6 244.8L 394.4 244.8C 394.199 243.638 394.148 243.398 393.6 242.4z"/>
<path style="stroke:none; fill:#575757" d="M 502.4 242.4L 503.2 243.2L 502.4 242.4z"/>
<path style="stroke:none; fill:#838383" d="M 548.266 242.934C 548.222 242.978 548.178 243.822 548.534 243.466C 548.578 243.422 548.622 242.578 548.266 242.934z"/>
<path style="stroke:none; fill:#575757" d="M 152 243.2L 152.8 244L 152 243.2z"/>
<path style="stroke:none; fill:#9d9d9d" d="M 152 244L 152.8 244.8L 152 244z"/>
<path style="stroke:none; fill:#575757" d="M 199.466 244.534C 199.422 244.578 199.378 245.422 199.734 245.066C 199.778 245.022 199.822 244.178 199.466 244.534M 285.6 244L 285.6 248L 286.4 248C 286.33 246.429 286.223 245.415 285.6 244z"/>
<path style="stroke:none; fill:#292929" d="M 307.2 244L 307.2 246.4L 308 246.4C 307.799 245.238 307.748 244.998 307.2 244z"/>
<path style="stroke:none; fill:#575757" d="M 393.6 244.8L 393.6 247.2L 394.4 247.2C 394.199 246.038 394.148 245.798 393.6 244.8z"/>
<path style="stroke:none; fill:#838383" d="M 501.6 244.8L 502.4 245.6L 501.6 244.8z"/>
<path style="stroke:none; fill:#575757" d="M 152.8 245.6L 153.6 246.4L 152.8 245.6z"/>
<path style="stroke:none; fill:#838383" d="M 547.2 245.6L 548 246.4L 547.2 245.6z"/>
<path style="stroke:none; fill:#575757" d="M 200 246.4L 200.8 247.2L 200 246.4z"/>
<path style="stroke:none; fill:#292929" d="M 415.2 246.4L 415.2 248.8L 416 248.8C 415.799 247.638 415.748 247.398 415.2 246.4M 393.866 247.734C 393.822 247.778 393.778 248.622 394.134 248.266C 394.178 248.222 394.222 247.378 393.866 247.734z"/>
<path style="stroke:none; fill:#838383" d="M 500.8 247.2L 501.6 248L 500.8 247.2z"/>
<path style="stroke:none; fill:#9d9d9d" d="M 153.6 248L 154.4 248.8L 153.6 248M 200.8 248L 201.6 248.8L 200.8 248M 285.6 248L 285.6 251.2L 286.4 251.2C 286.261 249.852 286.146 249.205 285.6 248z"/>
<path style="stroke:none; fill:#575757" d="M 546.4 248L 547.2 248.8L 546.4 248M 200.8 248.8L 201.6 249.6L 200.8 248.8M 415.466 249.334C 415.422 249.378 415.378 250.222 415.734 249.866C 415.778 249.822 415.822 248.978 415.466 249.334M 154.4 249.6L 155.2 250.4L 154.4 249.6z"/>
<path style="stroke:none; fill:#838383" d="M 500 249.6L 500.8 250.4L 500 249.6z"/>
<path style="stroke:none; fill:#9d9d9d" d="M 201.6 250.4L 202.4 251.2L 201.6 250.4z"/>
<path style="stroke:none; fill:#838383" d="M 308 250.4L 308 252.8L 308.8 252.8C 308.599 251.638 308.548 251.398 308 250.4z"/>
<path style="stroke:none; fill:#9d9d9d" d="M 415.2 250.4L 415.2 252.8L 416 252.8C 415.799 251.638 415.748 251.398 415.2 250.4z"/>
<path style="stroke:none; fill:#838383" d="M 545.866 250.934C 545.822 250.978 545.778 251.822 546.134 251.466C 546.178 251.422 546.222 250.578 545.866 250.934z"/>
<path style="stroke:none; fill:#575757" d="M 201.6 251.2L 202.4 252L 201.6 251.2z"/>
<path style="stroke:none; fill:#838383" d="M 155.2 252L 156 252.8L 155.2 252z"/>
<path style="stroke:none; fill:#9d9d9d" d="M 393.066 252.534C 393.022 252.578 392.978 253.422 393.334 253.066C 393.378 253.022 393.422 252.178 393.066 252.534M 499.2 252L 500 252.8L 499.2 252z"/>
<path style="stroke:none; fill:#838383" d="M 202.4 252.8L 203.2 253.6L 202.4 252.8z"/>
<path style="stroke:none; fill:#292929" d="M 286.4 252.8L 286.4 255.2L 287.2 255.2C 286.999 254.038 286.948 253.798 286.4 252.8z"/>
<path style="stroke:none; fill:#575757" d="M 308 252.8L 308 255.2L 308.8 255.2C 308.599 254.038 308.548 253.798 308 252.8M 499.2 252.8L 500 253.6L 499.2 252.8M 156 253.6L 156.8 254.4L 156 253.6z"/>
<path style="stroke:none; fill:#838383" d="M 392.8 253.6L 392.8 256.8L 393.6 256.8C 393.461 255.452 393.346 254.805 392.8 253.6M 544.8 253.6L 545.6 254.4L 544.8 253.6z"/>
<path style="stroke:none; fill:#9d9d9d" d="M 156 254.4L 156.8 255.2L 156 254.4z"/>
<path style="stroke:none; fill:#838383" d="M 498.666 254.934C 498.622 254.978 498.578 255.822 498.934 255.466C 498.978 255.422 499.022 254.578 498.666 254.934z"/>
<path style="stroke:none; fill:#575757" d="M 203.2 255.2L 204 256L 203.2 255.2M 286.4 255.2L 287.2 256L 286.4 255.2M 156.8 256L 157.6 256.8L 156.8 256M 544 256L 544.8 256.8L 544 256z"/>
<path style="stroke:none; fill:#9d9d9d" d="M 204 256.8L 204.8 257.6L 204 256.8z"/>
<path style="stroke:none; fill:#838383" d="M 286.4 256.8L 286.4 260L 287.2 260C 287.061 258.652 286.946 258.005 286.4 256.8z"/>
<path style="stroke:none; fill:#292929" d="M 392.8 256.8L 392.8 260.8L 393.6 260.8C 393.53 259.229 393.423 258.215 392.8 256.8z"/>
<path style="stroke:none; fill:#575757" d="M 497.866 258.134C 497.822 258.178 497.778 259.022 498.134 258.666C 498.178 258.622 498.222 257.778 497.866 258.134z"/>
<path style="stroke:none; fill:#838383" d="M 157.6 258.4L 158.4 259.2L 157.6 258.4z"/>
<path style="stroke:none; fill:#575757" d="M 414.666 258.934C 414.622 258.978 414.578 259.822 414.934 259.466C 414.978 259.422 415.022 258.578 414.666 258.934M 543.2 258.4L 544 259.2L 543.2 258.4M 204.8 259.2L 205.6 260L 204.8 259.2z"/>
<path style="stroke:none; fill:#9d9d9d" d="M 308.8 260L 308.8 262.4L 309.6 262.4C 309.399 261.238 309.348 260.998 308.8 260M 414.4 260L 414.4 262.4L 415.2 262.4C 414.999 261.238 414.948 260.998 414.4 260M 496.8 260L 497.6 260.8L 496.8 260z"/>
<path style="stroke:none; fill:#838383" d="M 158.4 260.8L 159.2 261.6L 158.4 260.8z"/>
<path style="stroke:none; fill:#9d9d9d" d="M 205.6 260.8L 206.4 261.6L 205.6 260.8z"/>
<path style="stroke:none; fill:#575757" d="M 496.8 260.8L 497.6 261.6L 496.8 260.8M 542.4 260.8L 543.2 261.6L 542.4 260.8M 159.2 262.4L 160 263.2L 159.2 262.4M 308.8 262.4L 308.8 264.8L 309.6 264.8C 309.399 263.638 309.348 263.398 308.8 262.4z"/>
<path style="stroke:none; fill:#9d9d9d" d="M 496 262.4L 496.8 263.2L 496 262.4M 159.2 263.2L 160 264L 159.2 263.2z"/>
<path style="stroke:none; fill:#838383" d="M 206.4 263.2L 207.2 264L 206.4 263.2z"/>
<path style="stroke:none; fill:#9d9d9d" d="M 392 263.2L 392 265.6L 392.8 265.6C 392.599 264.438 392.548 264.198 392 263.2z"/>
<path style="stroke:none; fill:#575757" d="M 496 263.2L 496.8 264L 496 263.2z"/>
<path style="stroke:none; fill:#292929" d="M 287.2 264L 287.2 266.4L 288 266.4C 287.799 265.238 287.748 264.998 287.2 264z"/>
<path style="stroke:none; fill:#575757" d="M 160 264.8L 160.8 265.6L 160 264.8z"/>
<path style="stroke:none; fill:#9d9d9d" d="M 207.2 264.8L 208 265.6L 207.2 264.8z"/>
<path style="stroke:none; fill:#575757" d="M 207.2 265.6L 208 266.4L 207.2 265.6M 392 265.6L 392 268.8L 392.8 268.8C 392.661 267.452 392.546 266.805 392 265.6M 495.2 265.6L 496 266.4L 495.2 265.6M 287.2 266.4L 287.2 268.8L 288 268.8C 287.799 267.638 287.748 267.398 287.2 266.4z"/>
<path style="stroke:none; fill:#838383" d="M 540.8 266.4L 541.6 267.2L 540.8 266.4z"/>
<path style="stroke:none; fill:#9d9d9d" d="M 160.8 267.2L 161.6 268L 160.8 267.2M 208 267.2L 208.8 268L 208 267.2z"/>
<path style="stroke:none; fill:#292929" d="M 413.866 267.734C 413.822 267.778 413.778 268.622 414.134 268.266C 414.178 268.222 414.222 267.378 413.866 267.734z"/>
<path style="stroke:none; fill:#575757" d="M 208 268L 208.8 268.8L 208 268z"/>
<path style="stroke:none; fill:#838383" d="M 494.4 268L 495.2 268.8L 494.4 268z"/>
<path style="stroke:none; fill:#575757" d="M 161.6 268.8L 162.4 269.6L 161.6 268.8z"/>
<path style="stroke:none; fill:#9d9d9d" d="M 287.2 268.8L 287.2 271.2L 288 271.2C 287.799 270.038 287.748 269.798 287.2 268.8z"/>
<path style="stroke:none; fill:#292929" d="M 392 268.8L 392 272L 392.8 272C 392.661 270.652 392.546 270.005 392 268.8z"/>
<path style="stroke:none; fill:#575757" d="M 413.6 268.8L 413.6 271.2L 414.4 271.2C 414.199 270.038 414.148 269.798 413.6 268.8M 540 268.8L 540.8 269.6L 540 268.8z"/>
<path style="stroke:none; fill:#9d9d9d" d="M 208.8 269.6L 209.6 270.4L 208.8 269.6M 309.6 269.6L 309.6 272.8L 310.4 272.8C 310.261 271.452 310.146 270.805 309.6 269.6z"/>
<path style="stroke:none; fill:#575757" d="M 208.8 270.4L 209.6 271.2L 208.8 270.4z"/>
<path style="stroke:none; fill:#9d9d9d" d="M 493.6 270.4L 494.4 271.2L 493.6 270.4M 162.4 271.2L 163.2 272L 162.4 271.2M 413.6 271.2L 413.6 274.4L 414.4 274.4C 414.261 273.052 414.146 272.405 413.6 271.2z"/>
<path style="stroke:none; fill:#838383" d="M 539.466 271.734C 539.422 271.778 539.378 272.622 539.734 272.266C 539.778 272.222 539.822 271.378 539.466 271.734M 209.6 272L 210.4 272.8L 209.6 272z"/>
<path style="stroke:none; fill:#575757" d="M 163.2 272.8L 164 273.6L 163.2 272.8M 309.866 273.334C 309.822 273.378 309.778 274.222 310.134 273.866C 310.178 273.822 310.222 272.978 309.866 273.334z"/>
<path style="stroke:none; fill:#9d9d9d" d="M 391.2 272.8L 391.2 276L 392 276C 391.861 274.652 391.746 274.005 391.2 272.8M 492.8 272.8L 493.6 273.6L 492.8 272.8z"/>
<path style="stroke:none; fill:#575757" d="M 492.8 273.6L 493.6 274.4L 492.8 273.6M 210.4 274.4L 211.2 275.2L 210.4 274.4z"/>
<path style="stroke:none; fill:#292929" d="M 309.866 274.934C 309.822 274.978 309.778 275.822 310.134 275.466C 310.178 275.422 310.222 274.578 309.866 274.934z"/>
<path style="stroke:none; fill:#838383" d="M 538.4 274.4L 539.2 275.2L 538.4 274.4M 164 275.2L 164.8 276L 164 275.2z"/>
<path style="stroke:none; fill:#9d9d9d" d="M 413.6 275.2L 414.4 276L 413.6 275.2M 492 275.2L 492.8 276L 492 275.2z"/>
<path style="stroke:none; fill:#838383" d="M 165.066 277.334C 165.022 277.378 164.978 278.222 165.334 277.866C 165.378 277.822 165.422 276.978 165.066 277.334z"/>
<path style="stroke:none; fill:#575757" d="M 537.6 276.8L 538.4 277.6L 537.6 276.8M 165.6 279.2L 166.4 280L 165.6 279.2M 536.8 279.2L 537.6 280L 536.8 279.2z"/>
<path style="stroke:none; fill:#9d9d9d" d="M 165.6 280L 166.4 280.8L 165.6 280z"/>
<path style="stroke:none; fill:#575757" d="M 166.4 281.6L 167.2 282.4L 166.4 281.6z"/>
<path style="stroke:none; fill:#838383" d="M 167.2 284L 168 284.8L 167.2 284M 168.8 288L 169.6 288.8L 168.8 288M 533.6 289.6L 534.4 290.4L 533.6 289.6M 170.4 292L 171.2 292.8L 170.4 292M 533.066 292.534C 533.022 292.578 532.978 293.422 533.334 293.066C 533.378 293.022 533.422 292.178 533.066 292.534M 171.2 294.4L 172 295.2L 171.2 294.4M 532 295.2L 532.8 296L 532 295.2M 172.266 296.534C 172.222 296.578 172.178 297.422 172.534 297.066C 172.578 297.022 172.622 296.178 172.266 296.534z"/>
<path style="stroke:none; fill:#575757" d="M 531.2 297.6L 532 298.4L 531.2 297.6M 172.8 298.4L 173.6 299.2L 172.8 298.4z"/>
<path style="stroke:none; fill:#9d9d9d" d="M 172.8 299.2L 173.6 300L 172.8 299.2z"/>
<path style="stroke:none; fill:#575757" d="M 173.6 300.8L 174.4 301.6L 173.6 300.8z"/>
<path style="stroke:none; fill:#838383" d="M 174.4 303.2L 175.2 304L 174.4 303.2z"/>
<path style="stroke:none; fill:#575757" d="M 175.2 304.8L 176 305.6L 175.2 304.8z"/>
<path style="stroke:none; fill:#9d9d9d" d="M 176 307.2L 176.8 308L 176 307.2z"/>
<path style="stroke:none; fill:#838383" d="M 528 307.2L 528.8 308L 528 307.2z"/>
<path style="stroke:none; fill:#575757" d="M 176.8 308.8L 177.6 309.6L 176.8 308.8z"/>
<path style="stroke:none; fill:#838383" d="M 527.2 308.8L 528 309.6L 527.2 308.8z"/>
<path style="stroke:none; fill:#575757" d="M 177.6 311.2L 178.4 312L 177.6 311.2z"/>
<path style="stroke:none; fill:#838383" d="M 525.6 311.2L 526.4 312L 525.6 311.2M 178.4 313.6L 179.2 314.4L 178.4 313.6z"/>
<path style="stroke:none; fill:#575757" d="M 179.2 315.2L 180 316L 179.2 315.2M 521.6 315.2L 522.4 316L 521.6 315.2z"/>
<path style="stroke:none; fill:#9d9d9d" d="M 179.2 316L 180 316.8L 179.2 316z"/>
<path style="stroke:none; fill:#838383" d="M 520.8 316L 521.6 316.8L 520.8 316z"/>
<path style="stroke:none; fill:#575757" d="M 519.2 316.8L 520 317.6L 519.2 316.8M 180 317.6L 180.8 318.4L 180 317.6M 516 318.4L 516.8 319.2L 516 318.4z"/>
<path style="stroke:none; fill:#838383" d="M 513.6 319.2L 514.4 320L 513.6 319.2M 180.8 320L 181.6 320.8L 180.8 320M 228.266 320.534C 228.222 320.578 228.178 321.422 228.534 321.066C 228.578 321.022 228.622 320.178 228.266 320.534M 237.6 320L 237.6 320.8L 249.6 320.8C 246.023 319.299 241.454 320 237.6 320M 261.6 320L 261.6 320.8L 273.6 320.8C 270.023 319.299 265.454 320 261.6 320M 285.6 320L 285.6 320.8L 297.6 320.8C 294.023 319.299 289.454 320 285.6 320M 309.6 320L 309.6 320.8L 321.6 320.8C 318.023 319.299 313.454 320 309.6 320M 333.6 320L 333.6 320.8L 345.6 320.8C 342.023 319.299 337.454 320 333.6 320M 357.6 320L 357.6 320.8L 369.6 320.8C 366.023 319.299 361.454 320 357.6 320M 381.6 320L 381.6 320.8L 393.6 320.8C 390.023 319.299 385.454 320 381.6 320M 405.6 320L 405.6 320.8L 417.6 320.8C 414.023 319.299 409.454 320 405.6 320M 429.6 320L 429.6 320.8L 441.6 320.8C 438.023 319.299 433.454 320 429.6 320M 453.6 320L 453.6 320.8L 465.6 320.8C 462.023 319.299 457.454 320 453.6 320M 477.6 320L 477.6 320.8L 489.6 320.8C 486.023 319.299 481.454 320 477.6 320M 501.6 320L 501.6 320.8L 510.4 320.8C 507.654 319.648 504.56 320 501.6 320z"/>
<path style="stroke:none; fill:#9d9d9d" d="M 181.6 322.4L 182.4 323.2L 181.6 322.4z"/>
<path style="stroke:none; fill:#575757" d="M 228.8 323.2L 229.6 324L 228.8 323.2M 182.4 324L 183.2 324.8L 182.4 324z"/>
<path style="stroke:none; fill:#838383" d="M 229.6 324.8L 230.4 325.6L 229.6 324.8z"/>
<path style="stroke:none; fill:#9d9d9d" d="M 183.2 326.4L 184 327.2L 183.2 326.4z"/>
<path style="stroke:none; fill:#838383" d="M 230.4 327.2L 231.2 328L 230.4 327.2z"/>
<path style="stroke:none; fill:#575757" d="M 184 328L 184.8 328.8L 184 328z"/>
<path style="stroke:none; fill:#838383" d="M 184.8 330.4L 185.6 331.2L 184.8 330.4M 232 331.2L 232.8 332L 232 331.2z"/>
<path style="stroke:none; fill:#9d9d9d" d="M 185.6 332.8L 186.4 333.6L 185.6 332.8z"/>
<path style="stroke:none; fill:#575757" d="M 232.8 333.6L 233.6 334.4L 232.8 333.6M 186.4 334.4L 187.2 335.2L 186.4 334.4z"/>
<path style="stroke:none; fill:#9d9d9d" d="M 186.4 335.2L 187.2 336L 186.4 335.2z"/>
<path style="stroke:none; fill:#838383" d="M 233.6 335.2L 234.4 336L 233.6 335.2z"/>
<path style="stroke:none; fill:#575757" d="M 187.2 336.8L 188 337.6L 187.2 336.8z"/>
<path style="stroke:none; fill:#9d9d9d" d="M 187.2 337.6L 188 338.4L 187.2 337.6z"/>
<path style="stroke:none; fill:#575757" d="M 234.4 337.6L 235.2 338.4L 234.4 337.6z"/>
<path style="stroke:none; fill:#838383" d="M 188 339.2L 188.8 340L 188 339.2z"/>
<path style="stroke:none; fill:#575757" d="M 235.2 340L 236 340.8L 235.2 340M 188.8 340.8L 189.6 341.6L 188.8 340.8M 236 342.4L 236.8 343.2L 236 342.4z"/>
<path style="stroke:none; fill:#838383" d="M 189.6 343.2L 190.4 344L 189.6 343.2M 236.8 344L 237.6 344.8L 236.8 344z"/>
<path style="stroke:none; fill:#9d9d9d" d="M 190.4 345.6L 191.2 346.4L 190.4 345.6z"/>
<path style="stroke:none; fill:#575757" d="M 237.6 346.4L 238.4 347.2L 237.6 346.4M 191.2 347.2L 192 348L 191.2 347.2z"/>
<path style="stroke:none; fill:#838383" d="M 192 349.6L 192.8 350.4L 192 349.6z"/>
<path style="stroke:none; fill:#575757" d="M 239.2 350.4L 240 351.2L 239.2 350.4M 192.8 351.2L 193.6 352L 192.8 351.2z"/>
<path style="stroke:none; fill:#838383" d="M 241.6 351.2L 242.4 352L 241.6 351.2M 243.2 351.2L 244 352L 243.2 351.2M 244.8 351.2L 245.6 352L 244.8 351.2M 246.4 351.2L 247.2 352L 246.4 351.2M 248 351.2L 248.8 352L 248 351.2M 262.4 351.2L 263.2 352L 262.4 351.2M 264 351.2L 264.8 352L 264 351.2M 265.6 351.2L 266.4 352L 265.6 351.2M 267.2 351.2L 268 352L 267.2 351.2M 268.8 351.2L 269.6 352L 268.8 351.2M 270.4 351.2L 271.2 352L 270.4 351.2M 272 351.2L 272.8 352L 272 351.2M 286.4 351.2L 287.2 352L 286.4 351.2M 288 351.2L 288.8 352L 288 351.2M 289.6 351.2L 290.4 352L 289.6 351.2M 291.2 351.2L 292 352L 291.2 351.2M 292.8 351.2L 293.6 352L 292.8 351.2M 294.4 351.2L 295.2 352L 294.4 351.2M 296 351.2L 296.8 352L 296 351.2M 310.4 351.2L 311.2 352L 310.4 351.2M 312 351.2L 312.8 352L 312 351.2M 313.6 351.2L 314.4 352L 313.6 351.2M 315.2 351.2L 316 352L 315.2 351.2M 316.8 351.2L 317.6 352L 316.8 351.2M 318.4 351.2L 319.2 352L 318.4 351.2M 320 351.2L 320.8 352L 320 351.2M 334.4 351.2L 335.2 352L 334.4 351.2M 336 351.2L 336.8 352L 336 351.2M 337.6 351.2L 338.4 352L 337.6 351.2M 339.2 351.2L 340 352L 339.2 351.2M 340.8 351.2L 341.6 352L 340.8 351.2M 342.4 351.2L 343.2 352L 342.4 351.2M 344 351.2L 344.8 352L 344 351.2M 358.4 351.2L 359.2 352L 358.4 351.2M 360 351.2L 360.8 352L 360 351.2M 361.6 351.2L 362.4 352L 361.6 351.2M 363.2 351.2L 364 352L 363.2 351.2M 364.8 351.2L 365.6 352L 364.8 351.2M 366.4 351.2L 367.2 352L 366.4 351.2M 368 351.2L 368.8 352L 368 351.2M 382.4 351.2L 383.2 352L 382.4 351.2M 384 351.2L 384.8 352L 384 351.2M 385.6 351.2L 386.4 352L 385.6 351.2M 387.2 351.2L 388 352L 387.2 351.2M 388.8 351.2L 389.6 352L 388.8 351.2M 390.4 351.2L 391.2 352L 390.4 351.2M 392 351.2L 392.8 352L 392 351.2M 406.4 351.2L 407.2 352L 406.4 351.2M 408 351.2L 408.8 352L 408 351.2M 409.6 351.2L 410.4 352L 409.6 351.2M 411.2 351.2L 412 352L 411.2 351.2M 412.8 351.2L 413.6 352L 412.8 351.2M 414.4 351.2L 415.2 352L 414.4 351.2M 416 351.2L 416.8 352L 416 351.2M 430.4 351.2L 431.2 352L 430.4 351.2M 432 351.2L 432.8 352L 432 351.2M 433.6 351.2L 434.4 352L 433.6 351.2M 435.2 351.2L 436 352L 435.2 351.2M 436.8 351.2L 437.6 352L 436.8 351.2M 438.4 351.2L 439.2 352L 438.4 351.2M 440 351.2L 440.8 352L 440 351.2M 454.4 351.2L 455.2 352L 454.4 351.2M 456 351.2L 456.8 352L 456 351.2M 457.6 351.2L 458.4 352L 457.6 351.2M 459.2 351.2L 460 352L 459.2 351.2M 460.8 351.2L 461.6 352L 460.8 351.2M 462.4 351.2L 463.2 352L 462.4 351.2M 464 351.2L 464.8 352L 464 351.2M 477.6 351.2L 478.4 352L 477.6 351.2z"/>
<path style="stroke:none; fill:#9d9d9d" d="M 192.8 352L 193.6 352.8L 192.8 352z"/>
<path style="stroke:none; fill:#292929" d="M 482.4 352L 482.4 352.8L 485.6 352.8C 484.395 352.254 483.748 352.139 482.4 352z"/>
<path style="stroke:none; fill:#838383" d="M 486.134 352.266C 485.778 352.622 486.622 352.578 486.666 352.534C 487.022 352.178 486.178 352.222 486.134 352.266z"/>
<path style="stroke:none; fill:#292929" d="M 489.334 353.066C 488.978 353.422 489.822 353.378 489.866 353.334C 490.222 352.978 489.378 353.022 489.334 353.066z"/>
<path style="stroke:none; fill:#838383" d="M 490.4 352.8L 491.2 353.6L 490.4 352.8z"/>
<path style="stroke:none; fill:#575757" d="M 193.6 353.6L 194.4 354.4L 193.6 353.6z"/>
<path style="stroke:none; fill:#838383" d="M 493.6 353.6L 494.4 354.4L 493.6 353.6z"/>
<path style="stroke:none; fill:#575757" d="M 496 354.4L 496.8 355.2L 496 354.4M 498.4 355.2L 499.2 356L 498.4 355.2z"/>
<path style="stroke:none; fill:#838383" d="M 194.4 356L 195.2 356.8L 194.4 356M 502.4 356.8L 503.2 357.6L 502.4 356.8z"/>
<path style="stroke:none; fill:#575757" d="M 195.466 358.134C 195.422 358.178 195.378 359.022 195.734 358.666C 195.778 358.622 195.822 357.778 195.466 358.134z"/>
<path style="stroke:none; fill:#838383" d="M 504 357.6L 504.8 358.4L 504 357.6z"/>
<path style="stroke:none; fill:#575757" d="M 505.6 358.4L 506.4 359.2L 505.6 358.4M 194.4 359.2L 195.2 360L 194.4 359.2M 507.2 359.2L 508 360L 507.2 359.2M 192.8 360L 193.6 360.8L 192.8 360z"/>
<path style="stroke:none; fill:#838383" d="M 508.8 360L 509.6 360.8L 508.8 360z"/>
<path style="stroke:none; fill:#9d9d9d" d="M 191.2 360.8L 192 361.6L 191.2 360.8z"/>
<path style="stroke:none; fill:#575757" d="M 511.2 361.6L 512 362.4L 511.2 361.6z"/>
<path style="stroke:none; fill:#838383" d="M 188.8 362.4L 189.6 363.2L 188.8 362.4z"/>
<path style="stroke:none; fill:#575757" d="M 513.6 363.2L 514.4 364L 513.6 363.2z"/>
<path style="stroke:none; fill:#9d9d9d" d="M 186.4 364L 187.2 364.8L 186.4 364z"/>
<path style="stroke:none; fill:#575757" d="M 185.6 364.8L 186.4 365.6L 185.6 364.8z"/>
<path style="stroke:none; fill:#838383" d="M 516.8 365.6L 517.6 366.4L 516.8 365.6z"/>
<path style="stroke:none; fill:#575757" d="M 517.6 366.4L 518.4 367.2L 517.6 366.4z"/>
<path style="stroke:none; fill:#838383" d="M 181.6 368L 182.4 368.8L 181.6 368M 180.8 368.8L 181.6 369.6L 180.8 368.8z"/>
<path style="stroke:none; fill:#9d9d9d" d="M 180 369.6L 180.8 370.4L 180 369.6M 179.2 370.4L 180 371.2L 179.2 370.4M 178.4 371.2L 179.2 372L 178.4 371.2M 177.6 372L 178.4 372.8L 177.6 372M 176.8 372.8L 177.6 373.6L 176.8 372.8M 176 373.6L 176.8 374.4L 176 373.6z"/>
<path style="stroke:none; fill:#575757" d="M 525.6 374.4L 526.4 375.2L 525.6 374.4z"/>
<path style="stroke:none; fill:#838383" d="M 526.4 375.2L 527.2 376L 526.4 375.2z"/>
<path style="stroke:none; fill:#575757" d="M 174.4 376L 175.2 376.8L 174.4 376z"/>
<path style="stroke:none; fill:#838383" d="M 173.6 376.8L 174.4 377.6L 173.6 376.8M 528.8 378.4L 529.6 379.2L 528.8 378.4M 172 379.2L 172.8 380L 172 379.2z"/>
<path style="stroke:none; fill:#575757" d="M 530.4 380.8L 531.2 381.6L 530.4 380.8z"/>
<path style="stroke:none; fill:#838383" d="M 170.4 381.6L 171.2 382.4L 170.4 381.6M 532 383.2L 532.8 384L 532 383.2M 532.8 384.8L 533.6 385.6L 532.8 384.8z"/>
<path style="stroke:none; fill:#9d9d9d" d="M 168 385.6L 168.8 386.4L 168 385.6z"/>
<path style="stroke:none; fill:#575757" d="M 533.6 386.4L 534.4 387.2L 533.6 386.4M 167.2 387.2L 168 388L 167.2 387.2M 534.4 388L 535.2 388.8L 534.4 388z"/>
<path style="stroke:none; fill:#838383" d="M 166.4 388.8L 167.2 389.6L 166.4 388.8M 535.2 389.6L 536 390.4L 535.2 389.6z"/>
<path style="stroke:none; fill:#9d9d9d" d="M 165.6 390.4L 166.4 391.2L 165.6 390.4z"/>
<path style="stroke:none; fill:#838383" d="M 164.8 392.8L 165.6 393.6L 164.8 392.8z"/>
<path style="stroke:none; fill:#575757" d="M 536.8 393.6L 537.6 394.4L 536.8 393.6M 164 395.2L 164.8 396L 164 395.2z"/>
<path style="stroke:none; fill:#838383" d="M 221.334 396.266C 220.978 396.622 221.822 396.578 221.866 396.534C 222.222 396.178 221.378 396.222 221.334 396.266z"/>
<path style="stroke:none; fill:#ffffff" d="M 222.4 396.372C 195.928 401.018 202.1 441.032 228.8 436.539C 253.561 432.373 247.158 392.028 222.4 396.372z"/>
<path style="stroke:none; fill:#575757" d="M 228 396L 228.8 396.8L 228 396z"/>
<path style="stroke:none; fill:#838383" d="M 285.866 396.534C 285.822 396.578 285.778 397.422 286.134 397.066C 286.178 397.022 286.222 396.178 285.866 396.534z"/>
<path style="stroke:none; fill:#ffffff" d="M 286.4 396C 287.156 405.505 289.762 414.302 288.571 424C 285.181 451.602 262.148 479.521 232.8 480.8L 232.8 481.6L 469.6 481.6L 469.6 480.8C 438.248 479.45 415.72 449.157 412.936 420C 412.154 411.818 414.828 403.972 416 396L 286.4 396z"/>
<path style="stroke:none; fill:#575757" d="M 416 396L 416.8 396.8L 416 396z"/>
<path style="stroke:none; fill:#838383" d="M 473.6 396L 474.4 396.8L 473.6 396z"/>
<path style="stroke:none; fill:#ffffff" d="M 474.4 396.372C 447.653 401.067 454.878 441.231 481.6 436.537C 506.476 432.167 499.166 392.025 474.4 396.372z"/>
<path style="stroke:none; fill:#575757" d="M 480.534 396.266C 480.178 396.622 481.022 396.578 481.066 396.534C 481.422 396.178 480.578 396.222 480.534 396.266M 537.6 396L 538.4 396.8L 537.6 396z"/>
<path style="stroke:none; fill:#838383" d="M 218.4 396.8L 219.2 397.6L 218.4 396.8z"/>
<path style="stroke:none; fill:#575757" d="M 231.2 396.8L 232 397.6L 231.2 396.8M 470.4 396.8L 471.2 397.6L 470.4 396.8M 483.2 396.8L 484 397.6L 483.2 396.8z"/>
<path style="stroke:none; fill:#838383" d="M 163.2 397.6L 164 398.4L 163.2 397.6z"/>
<path style="stroke:none; fill:#575757" d="M 216 397.6L 216.8 398.4L 216 397.6M 232.8 397.6L 233.6 398.4L 232.8 397.6M 234.4 398.4L 235.2 399.2L 234.4 398.4z"/>
<path style="stroke:none; fill:#838383" d="M 415.2 398.4L 416 399.2L 415.2 398.4z"/>
<path style="stroke:none; fill:#575757" d="M 538.4 398.4L 539.2 399.2L 538.4 398.4z"/>
<path style="stroke:none; fill:#9d9d9d" d="M 286.4 399.2L 287.2 400L 286.4 399.2z"/>
<path style="stroke:none; fill:#575757" d="M 465.6 399.2L 466.4 400L 465.6 399.2M 488 399.2L 488.8 400L 488 399.2M 212 400L 212.8 400.8L 212 400z"/>
<path style="stroke:none; fill:#838383" d="M 236.8 400L 237.6 400.8L 236.8 400z"/>
<path style="stroke:none; fill:#575757" d="M 286.4 400L 287.2 400.8L 286.4 400M 162.4 400.8L 163.2 401.6L 162.4 400.8z"/>
<path style="stroke:none; fill:#838383" d="M 211.2 400.8L 212 401.6L 211.2 400.8M 237.6 400.8L 238.4 401.6L 237.6 400.8M 414.666 401.334C 414.622 401.378 414.578 402.222 414.934 401.866C 414.978 401.822 415.022 400.978 414.666 401.334M 210.4 401.6L 211.2 402.4L 210.4 401.6z"/>
<path style="stroke:none; fill:#575757" d="M 491.2 401.6L 492 402.4L 491.2 401.6M 539.2 401.6L 540 402.4L 539.2 401.6z"/>
<path style="stroke:none; fill:#838383" d="M 209.6 402.4L 210.4 403.2L 209.6 402.4z"/>
<path style="stroke:none; fill:#292929" d="M 414.666 402.934C 414.622 402.978 414.578 403.822 414.934 403.466C 414.978 403.422 415.022 402.578 414.666 402.934M 539.466 402.934C 539.422 402.978 539.378 403.822 539.734 403.466C 539.778 403.422 539.822 402.578 539.466 402.934z"/>
<path style="stroke:none; fill:#575757" d="M 208.8 403.2L 209.6 404L 208.8 403.2M 287.466 403.734C 287.422 403.778 287.378 404.622 287.734 404.266C 287.778 404.222 287.822 403.378 287.466 403.734z"/>
<path style="stroke:none; fill:#838383" d="M 161.6 404L 162.4 404.8L 161.6 404z"/>
<path style="stroke:none; fill:#575757" d="M 240.8 404L 241.6 404.8L 240.8 404M 460 404.8L 460.8 405.6L 460 404.8M 493.6 404.8L 494.4 405.6L 493.6 404.8M 207.2 405.6L 208 406.4L 207.2 405.6M 413.6 405.6L 413.6 408L 414.4 408C 414.199 406.838 414.148 406.598 413.6 405.6M 540.266 406.134C 540.222 406.178 540.178 407.022 540.534 406.666C 540.578 406.622 540.622 405.778 540.266 406.134M 242.4 406.4L 243.2 407.2L 242.4 406.4z"/>
<path style="stroke:none; fill:#838383" d="M 206.4 407.2L 207.2 408L 206.4 407.2M 288 407.2L 288 409.6L 288.8 409.6C 288.599 408.438 288.548 408.198 288 407.2z"/>
<path style="stroke:none; fill:#292929" d="M 540.266 407.734C 540.222 407.778 540.178 408.622 540.534 408.266C 540.578 408.222 540.622 407.378 540.266 407.734z"/>
<path style="stroke:none; fill:#838383" d="M 161.066 408.534C 161.022 408.578 160.978 409.422 161.334 409.066C 161.378 409.022 161.422 408.178 161.066 408.534z"/>
<path style="stroke:none; fill:#292929" d="M 413.866 408.534C 413.822 408.578 413.778 409.422 414.134 409.066C 414.178 409.022 414.222 408.178 413.866 408.534z"/>
<path style="stroke:none; fill:#575757" d="M 205.6 408.8L 206.4 409.6L 205.6 408.8M 160.8 409.6L 160.8 412L 161.6 412C 161.399 410.838 161.348 410.598 160.8 409.6z"/>
<path style="stroke:none; fill:#292929" d="M 288.266 410.134C 288.222 410.178 288.178 411.022 288.534 410.666C 288.578 410.622 288.622 409.778 288.266 410.134z"/>
<path style="stroke:none; fill:#575757" d="M 457.6 409.6L 458.4 410.4L 457.6 409.6z"/>
<path style="stroke:none; fill:#838383" d="M 496 409.6L 496.8 410.4L 496 409.6M 244.266 410.934C 244.222 410.978 244.178 411.822 244.534 411.466C 244.578 411.422 244.622 410.578 244.266 410.934M 205.066 411.734C 205.022 411.778 204.978 412.622 205.334 412.266C 205.378 412.222 205.422 411.378 205.066 411.734z"/>
<path style="stroke:none; fill:#9d9d9d" d="M 412.8 411.2L 412.8 413.6L 413.6 413.6C 413.399 412.438 413.348 412.198 412.8 411.2z"/>
<path style="stroke:none; fill:#838383" d="M 497.066 412.534C 497.022 412.578 496.978 413.422 497.334 413.066C 497.378 413.022 497.422 412.178 497.066 412.534M 540.8 412L 541.6 412.8L 540.8 412z"/>
<path style="stroke:none; fill:#292929" d="M 244.8 412.8L 244.8 415.2L 245.6 415.2C 245.399 414.038 245.348 413.798 244.8 412.8z"/>
<path style="stroke:none; fill:#838383" d="M 457.066 413.334C 457.022 413.378 456.978 414.222 457.334 413.866C 457.378 413.822 457.422 412.978 457.066 413.334M 412.8 413.6L 412.8 420L 413.6 420C 413.594 417.732 413.678 415.69 412.8 413.6z"/>
<path style="stroke:none; fill:#575757" d="M 540.8 413.6L 540.8 419.2L 541.6 419.2C 541.585 417.166 541.588 415.466 540.8 413.6M 244.8 415.2L 244.8 417.6L 245.6 417.6C 245.399 416.438 245.348 416.198 244.8 415.2z"/>
<path style="stroke:none; fill:#292929" d="M 244.8 417.6L 244.8 420L 245.6 420C 245.399 418.838 245.348 418.598 244.8 417.6z"/>
<path style="stroke:none; fill:#575757" d="M 457.066 419.734C 457.022 419.778 456.978 420.622 457.334 420.266C 457.378 420.222 457.422 419.378 457.066 419.734z"/>
<path style="stroke:none; fill:#9d9d9d" d="M 412.8 420L 412.8 422.4L 413.6 422.4C 413.399 421.238 413.348 420.998 412.8 420z"/>
<path style="stroke:none; fill:#838383" d="M 496.8 420L 497.6 420.8L 496.8 420M 204.8 420.8L 205.6 421.6L 204.8 420.8z"/>
<path style="stroke:none; fill:#575757" d="M 161.066 422.134C 161.022 422.178 160.978 423.022 161.334 422.666C 161.378 422.622 161.422 421.778 161.066 422.134M 244 421.6L 244.8 422.4L 244 421.6z"/>
<path style="stroke:none; fill:#292929" d="M 288.266 422.934C 288.222 422.978 288.178 423.822 288.534 423.466C 288.578 423.422 288.622 422.578 288.266 422.934z"/>
<path style="stroke:none; fill:#838383" d="M 457.6 422.4L 458.4 423.2L 457.6 422.4z"/>
<path style="stroke:none; fill:#9d9d9d" d="M 161.066 423.734C 161.022 423.778 160.978 424.622 161.334 424.266C 161.378 424.222 161.422 423.378 161.066 423.734z"/>
<path style="stroke:none; fill:#575757" d="M 496 423.2L 496.8 424L 496 423.2M 243.2 424L 244 424.8L 243.2 424z"/>
<path style="stroke:none; fill:#838383" d="M 288.266 424.534C 288.222 424.578 288.178 425.422 288.534 425.066C 288.578 425.022 288.622 424.178 288.266 424.534z"/>
<path style="stroke:none; fill:#292929" d="M 413.866 424.534C 413.822 424.578 413.778 425.422 414.134 425.066C 414.178 425.022 414.222 424.178 413.866 424.534M 540.266 424.534C 540.222 424.578 540.178 425.422 540.534 425.066C 540.578 425.022 540.622 424.178 540.266 424.534z"/>
<path style="stroke:none; fill:#575757" d="M 458.4 424.8L 459.2 425.6L 458.4 424.8z"/>
<path style="stroke:none; fill:#838383" d="M 495.2 424.8L 496 425.6L 495.2 424.8z"/>
<path style="stroke:none; fill:#575757" d="M 206.4 425.6L 207.2 426.4L 206.4 425.6z"/>
<path style="stroke:none; fill:#838383" d="M 242.4 425.6L 243.2 426.4L 242.4 425.6z"/>
<path style="stroke:none; fill:#575757" d="M 413.866 426.134C 413.822 426.178 413.778 427.022 414.134 426.666C 414.178 426.622 414.222 425.778 413.866 426.134M 540 425.6L 540 428L 540.8 428C 540.599 426.838 540.548 426.598 540 425.6M 459.2 426.4L 460 427.2L 459.2 426.4z"/>
<path style="stroke:none; fill:#838383" d="M 494.4 426.4L 495.2 427.2L 494.4 426.4M 241.6 427.2L 242.4 428L 241.6 427.2z"/>
<path style="stroke:none; fill:#9d9d9d" d="M 413.6 427.2L 414.4 428L 413.6 427.2z"/>
<path style="stroke:none; fill:#838383" d="M 161.866 428.534C 161.822 428.578 161.778 429.422 162.134 429.066C 162.178 429.022 162.222 428.178 161.866 428.534M 208 428L 208.8 428.8L 208 428z"/>
<path style="stroke:none; fill:#575757" d="M 287.2 428.8L 288 429.6L 287.2 428.8M 460.8 428.8L 461.6 429.6L 460.8 428.8M 492.8 428.8L 493.6 429.6L 492.8 428.8z"/>
<path style="stroke:none; fill:#9d9d9d" d="M 287.2 429.6L 288 430.4L 287.2 429.6z"/>
<path style="stroke:none; fill:#292929" d="M 539.466 430.134C 539.422 430.178 539.378 431.022 539.734 430.666C 539.778 430.622 539.822 429.778 539.466 430.134z"/>
<path style="stroke:none; fill:#575757" d="M 239.2 430.4L 240 431.2L 239.2 430.4M 414.4 430.4L 415.2 431.2L 414.4 430.4M 238.4 431.2L 239.2 432L 238.4 431.2z"/>
<path style="stroke:none; fill:#9d9d9d" d="M 414.4 431.2L 415.2 432L 414.4 431.2z"/>
<path style="stroke:none; fill:#575757" d="M 539.2 431.2L 540 432L 539.2 431.2M 162.4 432L 163.2 432.8L 162.4 432z"/>
<path style="stroke:none; fill:#838383" d="M 464 432L 464.8 432.8L 464 432z"/>
<path style="stroke:none; fill:#9d9d9d" d="M 162.4 432.8L 163.2 433.6L 162.4 432.8z"/>
<path style="stroke:none; fill:#838383" d="M 286.4 432.8L 287.2 433.6L 286.4 432.8z"/>
<path style="stroke:none; fill:#575757" d="M 464.8 432.8L 465.6 433.6L 464.8 432.8z"/>
<path style="stroke:none; fill:#838383" d="M 488.8 432.8L 489.6 433.6L 488.8 432.8z"/>
<path style="stroke:none; fill:#575757" d="M 213.6 433.6L 214.4 434.4L 213.6 433.6z"/>
<path style="stroke:none; fill:#838383" d="M 235.2 433.6L 236 434.4L 235.2 433.6z"/>
<path style="stroke:none; fill:#575757" d="M 415.2 433.6L 416 434.4L 415.2 433.6z"/>
<path style="stroke:none; fill:#838383" d="M 215.2 434.4L 216 435.2L 215.2 434.4z"/>
<path style="stroke:none; fill:#9d9d9d" d="M 415.2 434.4L 416 435.2L 415.2 434.4z"/>
<path style="stroke:none; fill:#575757" d="M 467.2 434.4L 468 435.2L 467.2 434.4z"/>
<path style="stroke:none; fill:#838383" d="M 486.4 434.4L 487.2 435.2L 486.4 434.4M 538.4 434.4L 539.2 435.2L 538.4 434.4M 163.2 435.2L 164 436L 163.2 435.2M 216.8 435.2L 217.6 436L 216.8 435.2M 232 435.2L 232.8 436L 232 435.2M 285.866 435.734C 285.822 435.778 285.778 436.622 286.134 436.266C 286.178 436.222 286.222 435.378 285.866 435.734z"/>
<path style="stroke:none; fill:#575757" d="M 468.8 435.2L 469.6 436L 468.8 435.2z"/>
<path style="stroke:none; fill:#838383" d="M 484.8 435.2L 485.6 436L 484.8 435.2M 218.934 436.266C 218.578 436.622 219.422 436.578 219.466 436.534C 219.822 436.178 218.978 436.222 218.934 436.266z"/>
<path style="stroke:none; fill:#575757" d="M 230.134 436.266C 229.778 436.622 230.622 436.578 230.666 436.534C 231.022 436.178 230.178 436.222 230.134 436.266z"/>
<path style="stroke:none; fill:#838383" d="M 471.734 436.266C 471.378 436.622 472.222 436.578 472.266 436.534C 472.622 436.178 471.778 436.222 471.734 436.266M 482.4 436L 483.2 436.8L 482.4 436z"/>
<path style="stroke:none; fill:#292929" d="M 221.334 437.066C 220.978 437.422 221.822 437.378 221.866 437.334C 222.222 436.978 221.378 437.022 221.334 437.066z"/>
<path style="stroke:none; fill:#575757" d="M 222.4 436.8L 222.4 437.6L 227.2 437.6C 225.558 436.901 224.202 436.838 222.4 436.8z"/>
<path style="stroke:none; fill:#292929" d="M 227.734 437.066C 227.378 437.422 228.222 437.378 228.266 437.334C 228.622 436.978 227.778 437.022 227.734 437.066z"/>
<path style="stroke:none; fill:#9d9d9d" d="M 416 436.8L 416.8 437.6L 416 436.8z"/>
<path style="stroke:none; fill:#292929" d="M 474.134 437.066C 473.778 437.422 474.622 437.378 474.666 437.334C 475.022 436.978 474.178 437.022 474.134 437.066z"/>
<path style="stroke:none; fill:#575757" d="M 475.2 436.8L 475.2 437.6L 479.2 437.6C 477.785 436.977 476.771 436.87 475.2 436.8z"/>
<path style="stroke:none; fill:#292929" d="M 479.734 437.066C 479.378 437.422 480.222 437.378 480.266 437.334C 480.622 436.978 479.778 437.022 479.734 437.066z"/>
<path style="stroke:none; fill:#575757" d="M 537.6 436.8L 538.4 437.6L 537.6 436.8z"/>
<path style="stroke:none; fill:#9d9d9d" d="M 164 437.6L 164.8 438.4L 164 437.6z"/>
<path style="stroke:none; fill:#838383" d="M 285.066 438.134C 285.022 438.178 284.978 439.022 285.334 438.666C 285.378 438.622 285.422 437.778 285.066 438.134z"/>
<path style="stroke:none; fill:#575757" d="M 164.8 439.2L 165.6 440L 164.8 439.2z"/>
<path style="stroke:none; fill:#9d9d9d" d="M 416.8 439.2L 417.6 440L 416.8 439.2z"/>
<path style="stroke:none; fill:#838383" d="M 536.8 439.2L 537.6 440L 536.8 439.2z"/>
<path style="stroke:none; fill:#9d9d9d" d="M 164.8 440L 165.6 440.8L 164.8 440z"/>
<path style="stroke:none; fill:#575757" d="M 284 440L 284.8 440.8L 284 440z"/>
<path style="stroke:none; fill:#9d9d9d" d="M 284 440.8L 284.8 441.6L 284 440.8z"/>
<path style="stroke:none; fill:#838383" d="M 417.6 440.8L 418.4 441.6L 417.6 440.8z"/>
<path style="stroke:none; fill:#575757" d="M 536 440.8L 536.8 441.6L 536 440.8M 165.6 441.6L 166.4 442.4L 165.6 441.6z"/>
<path style="stroke:none; fill:#9d9d9d" d="M 165.6 442.4L 166.4 443.2L 165.6 442.4z"/>
<path style="stroke:none; fill:#838383" d="M 283.2 442.4L 284 443.2L 283.2 442.4z"/>
<path style="stroke:none; fill:#575757" d="M 418.4 442.4L 419.2 443.2L 418.4 442.4z"/>
<path style="stroke:none; fill:#9d9d9d" d="M 166.4 444L 167.2 444.8L 166.4 444z"/>
<path style="stroke:none; fill:#838383" d="M 282.4 444L 283.2 444.8L 282.4 444z"/>
<path style="stroke:none; fill:#9d9d9d" d="M 419.2 444.8L 420 445.6L 419.2 444.8z"/>
<path style="stroke:none; fill:#838383" d="M 534.4 444.8L 535.2 445.6L 534.4 444.8z"/>
<path style="stroke:none; fill:#9d9d9d" d="M 167.2 445.6L 168 446.4L 167.2 445.6z"/>
<path style="stroke:none; fill:#575757" d="M 281.6 445.6L 282.4 446.4L 281.6 445.6z"/>
<path style="stroke:none; fill:#9d9d9d" d="M 420 446.4L 420.8 447.2L 420 446.4z"/>
<path style="stroke:none; fill:#838383" d="M 533.6 446.4L 534.4 447.2L 533.6 446.4z"/>
<path style="stroke:none; fill:#9d9d9d" d="M 168 447.2L 168.8 448L 168 447.2z"/>
<path style="stroke:none; fill:#838383" d="M 280.8 447.2L 281.6 448L 280.8 447.2z"/>
<path style="stroke:none; fill:#9d9d9d" d="M 420.8 448L 421.6 448.8L 420.8 448z"/>
<path style="stroke:none; fill:#838383" d="M 532.8 448L 533.6 448.8L 532.8 448z"/>
<path style="stroke:none; fill:#9d9d9d" d="M 280 448.8L 280.8 449.6L 280 448.8z"/>
<path style="stroke:none; fill:#838383" d="M 169.6 449.6L 170.4 450.4L 169.6 449.6z"/>
<path style="stroke:none; fill:#9d9d9d" d="M 279.2 450.4L 280 451.2L 279.2 450.4z"/>
<path style="stroke:none; fill:#575757" d="M 422.4 450.4L 423.2 451.2L 422.4 450.4M 531.2 450.4L 532 451.2L 531.2 450.4z"/>
<path style="stroke:none; fill:#9d9d9d" d="M 170.4 451.2L 171.2 452L 170.4 451.2z"/>
<path style="stroke:none; fill:#575757" d="M 278.4 451.2L 279.2 452L 278.4 451.2M 171.2 452L 172 452.8L 171.2 452z"/>
<path style="stroke:none; fill:#9d9d9d" d="M 423.2 452L 424 452.8L 423.2 452M 277.6 452.8L 278.4 453.6L 277.6 452.8z"/>
<path style="stroke:none; fill:#575757" d="M 424 452.8L 424.8 453.6L 424 452.8M 529.6 452.8L 530.4 453.6L 529.6 452.8z"/>
<path style="stroke:none; fill:#9d9d9d" d="M 172 453.6L 172.8 454.4L 172 453.6z"/>
<path style="stroke:none; fill:#575757" d="M 276.8 453.6L 277.6 454.4L 276.8 453.6M 172.8 454.4L 173.6 455.2L 172.8 454.4z"/>
<path style="stroke:none; fill:#9d9d9d" d="M 276 455.2L 276.8 456L 276 455.2z"/>
<path style="stroke:none; fill:#838383" d="M 425.6 455.2L 426.4 456L 425.6 455.2M 528 455.2L 528.8 456L 528 455.2M 275.2 456L 276 456.8L 275.2 456z"/>
<path style="stroke:none; fill:#575757" d="M 426.4 456L 427.2 456.8L 426.4 456z"/>
<path style="stroke:none; fill:#9d9d9d" d="M 174.4 456.8L 175.2 457.6L 174.4 456.8z"/>
<path style="stroke:none; fill:#575757" d="M 274.4 456.8L 275.2 457.6L 274.4 456.8z"/>
<path style="stroke:none; fill:#838383" d="M 175.2 457.6L 176 458.4L 175.2 457.6z"/>
<path style="stroke:none; fill:#575757" d="M 176 458.4L 176.8 459.2L 176 458.4z"/>
<path style="stroke:none; fill:#9d9d9d" d="M 428 458.4L 428.8 459.2L 428 458.4z"/>
<path style="stroke:none; fill:#838383" d="M 525.6 458.4L 526.4 459.2L 525.6 458.4M 428.8 459.2L 429.6 460L 428.8 459.2z"/>
<path style="stroke:none; fill:#575757" d="M 524.8 459.2L 525.6 460L 524.8 459.2z"/>
<path style="stroke:none; fill:#9d9d9d" d="M 272 460L 272.8 460.8L 272 460z"/>
<path style="stroke:none; fill:#575757" d="M 429.6 460L 430.4 460.8L 429.6 460M 524 460L 524.8 460.8L 524 460z"/>
<path style="stroke:none; fill:#9d9d9d" d="M 271.2 460.8L 272 461.6L 271.2 460.8z"/>
<path style="stroke:none; fill:#575757" d="M 430.4 460.8L 431.2 461.6L 430.4 460.8z"/>
<path style="stroke:none; fill:#838383" d="M 270.4 461.6L 271.2 462.4L 270.4 461.6M 269.6 462.4L 270.4 463.2L 269.6 462.4M 268.8 463.2L 269.6 464L 268.8 463.2M 268 464L 268.8 464.8L 268 464z"/>
<path style="stroke:none; fill:#575757" d="M 433.6 464L 434.4 464.8L 433.6 464M 520 464L 520.8 464.8L 520 464z"/>
<path style="stroke:none; fill:#9d9d9d" d="M 267.2 464.8L 268 465.6L 267.2 464.8z"/>
<path style="stroke:none; fill:#575757" d="M 434.4 464.8L 435.2 465.6L 434.4 464.8M 519.2 464.8L 520 465.6L 519.2 464.8M 183.2 465.6L 184 466.4L 183.2 465.6z"/>
<path style="stroke:none; fill:#9d9d9d" d="M 266.4 465.6L 267.2 466.4L 266.4 465.6z"/>
<path style="stroke:none; fill:#838383" d="M 435.2 465.6L 436 466.4L 435.2 465.6M 518.4 465.6L 519.2 466.4L 518.4 465.6z"/>
<path style="stroke:none; fill:#575757" d="M 184 466.4L 184.8 467.2L 184 466.4z"/>
<path style="stroke:none; fill:#9d9d9d" d="M 436 466.4L 436.8 467.2L 436 466.4M 184.8 467.2L 185.6 468L 184.8 467.2z"/>
<path style="stroke:none; fill:#575757" d="M 264 467.2L 264.8 468L 264 467.2M 263.2 468L 264 468.8L 263.2 468z"/>
<path style="stroke:none; fill:#9d9d9d" d="M 262.4 468.8L 263.2 469.6L 262.4 468.8z"/>
<path style="stroke:none; fill:#838383" d="M 439.2 468.8L 440 469.6L 439.2 468.8z"/>
<path style="stroke:none; fill:#575757" d="M 514.4 468.8L 515.2 469.6L 514.4 468.8z"/>
<path style="stroke:none; fill:#838383" d="M 188 469.6L 188.8 470.4L 188 469.6z"/>
<path style="stroke:none; fill:#575757" d="M 260.8 469.6L 261.6 470.4L 260.8 469.6z"/>
<path style="stroke:none; fill:#9d9d9d" d="M 260 470.4L 260.8 471.2L 260 470.4z"/>
<path style="stroke:none; fill:#575757" d="M 441.6 470.4L 442.4 471.2L 441.6 470.4M 512 470.4L 512.8 471.2L 512 470.4z"/>
<path style="stroke:none; fill:#838383" d="M 190.4 471.2L 191.2 472L 190.4 471.2z"/>
<path style="stroke:none; fill:#575757" d="M 258.4 471.2L 259.2 472L 258.4 471.2z"/>
<path style="stroke:none; fill:#9d9d9d" d="M 442.4 471.2L 443.2 472L 442.4 471.2z"/>
<path style="stroke:none; fill:#575757" d="M 192 472L 192.8 472.8L 192 472z"/>
<path style="stroke:none; fill:#9d9d9d" d="M 257.6 472L 258.4 472.8L 257.6 472M 444 472L 444.8 472.8L 444 472z"/>
<path style="stroke:none; fill:#838383" d="M 509.6 472L 510.4 472.8L 509.6 472z"/>
<path style="stroke:none; fill:#9d9d9d" d="M 192.8 472.8L 193.6 473.6L 192.8 472.8z"/>
<path style="stroke:none; fill:#838383" d="M 256 472.8L 256.8 473.6L 256 472.8z"/>
<path style="stroke:none; fill:#575757" d="M 445.6 472.8L 446.4 473.6L 445.6 472.8z"/>
<path style="stroke:none; fill:#9d9d9d" d="M 194.4 473.6L 195.2 474.4L 194.4 473.6z"/>
<path style="stroke:none; fill:#575757" d="M 254.4 473.6L 255.2 474.4L 254.4 473.6z"/>
<path style="stroke:none; fill:#838383" d="M 196 474.4L 196.8 475.2L 196 474.4z"/>
<path style="stroke:none; fill:#575757" d="M 252.8 474.4L 253.6 475.2L 252.8 474.4z"/>
<path style="stroke:none; fill:#9d9d9d" d="M 448 474.4L 448.8 475.2L 448 474.4z"/>
<path style="stroke:none; fill:#838383" d="M 197.6 475.2L 198.4 476L 197.6 475.2z"/>
<path style="stroke:none; fill:#575757" d="M 251.2 475.2L 252 476L 251.2 475.2z"/>
<path style="stroke:none; fill:#9d9d9d" d="M 449.6 475.2L 450.4 476L 449.6 475.2M 199.2 476L 200 476.8L 199.2 476z"/>
<path style="stroke:none; fill:#575757" d="M 249.6 476L 250.4 476.8L 249.6 476M 452 476L 452.8 476.8L 452 476M 201.6 476.8L 202.4 477.6L 201.6 476.8z"/>
<path style="stroke:none; fill:#9d9d9d" d="M 248 476.8L 248.8 477.6L 248 476.8z"/>
<path style="stroke:none; fill:#838383" d="M 453.6 476.8L 454.4 477.6L 453.6 476.8z"/>
<path style="stroke:none; fill:#575757" d="M 500 476.8L 500.8 477.6L 500 476.8M 203.734 477.866C 203.378 478.222 204.222 478.178 204.266 478.134C 204.622 477.778 203.778 477.822 203.734 477.866z"/>
<path style="stroke:none; fill:#838383" d="M 245.334 477.866C 244.978 478.222 245.822 478.178 245.866 478.134C 246.222 477.778 245.378 477.822 245.334 477.866z"/>
<path style="stroke:none; fill:#575757" d="M 456 477.6L 456.8 478.4L 456 477.6M 497.6 477.6L 498.4 478.4L 497.6 477.6M 206.134 478.666C 205.778 479.022 206.622 478.978 206.666 478.934C 207.022 478.578 206.178 478.622 206.134 478.666z"/>
<path style="stroke:none; fill:#838383" d="M 242.934 478.666C 242.578 479.022 243.422 478.978 243.466 478.934C 243.822 478.578 242.978 478.622 242.934 478.666M 458.134 478.666C 457.778 479.022 458.622 478.978 458.666 478.934C 459.022 478.578 458.178 478.622 458.134 478.666z"/>
<path style="stroke:none; fill:#575757" d="M 495.2 478.4L 496 479.2L 495.2 478.4z"/>
<path style="stroke:none; fill:#838383" d="M 208 479.2L 208 480L 210.4 480C 209.402 479.452 209.162 479.401 208 479.2M 240 479.2L 240.8 480L 240 479.2z"/>
<path style="stroke:none; fill:#9d9d9d" d="M 460.8 479.2L 461.6 480L 460.8 479.2z"/>
<path style="stroke:none; fill:#575757" d="M 461.6 479.2L 462.4 480L 461.6 479.2M 492 479.2L 492.8 480L 492 479.2z"/>
<path style="stroke:none; fill:#9d9d9d" d="M 212 480L 212.8 480.8L 212 480z"/>
<path style="stroke:none; fill:#575757" d="M 212.8 480L 213.6 480.8L 212.8 480M 236 480L 236.8 480.8L 236 480z"/>
<path style="stroke:none; fill:#9d9d9d" d="M 236.8 480L 237.6 480.8L 236.8 480M 464.8 480L 465.6 480.8L 464.8 480z"/>
<path style="stroke:none; fill:#575757" d="M 465.6 480L 466.4 480.8L 465.6 480z"/>
<path style="stroke:none; fill:#838383" d="M 488.534 480.266C 488.178 480.622 489.022 480.578 489.066 480.534C 489.422 480.178 488.578 480.222 488.534 480.266z"/>
<path style="stroke:none; fill:#9d9d9d" d="M 217.6 480.8L 218.4 481.6L 217.6 480.8z"/>
<path style="stroke:none; fill:#575757" d="M 218.4 480.8L 218.4 481.6L 220.8 481.6C 219.802 481.052 219.562 481.001 218.4 480.8z"/>
<path style="stroke:none; fill:#292929" d="M 220.8 480.8L 220.8 481.6L 229.6 481.6C 226.854 480.448 223.76 480.8 220.8 480.8z"/>
<path style="stroke:none; fill:#575757" d="M 230.134 481.066C 229.778 481.422 230.622 481.378 230.666 481.334C 231.022 480.978 230.178 481.022 230.134 481.066z"/>
<path style="stroke:none; fill:#9d9d9d" d="M 231.734 481.066C 231.378 481.422 232.222 481.378 232.266 481.334C 232.622 480.978 231.778 481.022 231.734 481.066z"/>
<path style="stroke:none; fill:#838383" d="M 470.134 481.066C 469.778 481.422 470.622 481.378 470.666 481.334C 471.022 480.978 470.178 481.022 470.134 481.066z"/>
<path style="stroke:none; fill:#575757" d="M 471.734 481.066C 471.378 481.422 472.222 481.378 472.266 481.334C 472.622 480.978 471.778 481.022 471.734 481.066z"/>
<path style="stroke:none; fill:#292929" d="M 472.8 480.8L 472.8 481.6L 481.6 481.6C 478.854 480.448 475.76 480.8 472.8 480.8z"/>
<path style="stroke:none; fill:#575757" d="M 481.6 480.8L 481.6 481.6L 484 481.6C 483.002 481.052 482.762 481.001 481.6 480.8z"/>
</g>
</svg>