<?xml version="1.0" encoding="UTF-8" standalone="yes"?>
<!-- Created with sK1/UniConvertor (http://sk1project.org/) -->
<svg xmlns="http://www.w3.org/2000/svg" xmlns:xlink="http://www.w3.org/1999/xlink"
  width="216.8pt" height="359.2pt" viewBox="0 0 216.8 359.2"
  fill-rule="evenodd">
<g>
<path style="stroke:none; fill:#ffffff" d="M 0 0L 0 359.2L 107.2 359.2C 85.0416 305.906 58.5346 253.56 33.3932 201.6C 17.8498 169.476 -1.66023 136.938 0.871608 100C 1.77383 86.8376 5.86085 73.3224 11.805 61.6C 46.0646 -5.96347 140.406 -17.3618 189.704 40C 197.989 49.6393 204.775 60.8003 209.046 72.8C 224.426 116.011 206.019 150.894 188.247 189.6C 162.254 246.209 132.713 301.688 108.8 359.2L 216.8 359.2L 216.8 0L 0 0z"/>
<path style="stroke:none; fill:#616161" d="M 98.4 2.40002L 98.4 3.20001L 100.8 3.20001C 99.8016 2.65213 99.5616 2.60098 98.4 2.40002z"/>
<path style="stroke:none; fill:#010101" d="M 107.2 359.2L 108.8 359.2C 131.885 303.753 159.642 249.276 185.806 195.2C 205.571 154.353 224.911 116.125 208.244 70.4C 203.59 57.6341 195.849 45.7846 186.469 36.0315C 136.607 -15.8133 43.3824 -5.57849 11.4562 61.6C 5.52979 74.0702 1.81571 87.8136 0.871608 101.6C -1.52494 136.596 16.907 166.21 30.9531 196.8C 55.8453 251.011 84.2776 304.143 107.2 359.2z"/>
<path style="stroke:none; fill:#616161" d="M 115.2 2.40002L 115.2 3.20001L 117.6 3.20001C 116.602 2.65213 116.362 2.60098 115.2 2.40002M 91.7336 3.46667C 91.3776 3.82214 92.2224 3.7778 92.2664 3.73334C 92.6224 3.37772 91.7776 3.42224 91.7336 3.46667M 123.2 3.20001L 124 4L 123.2 3.20001M 87.2 4L 88 4.80002L 87.2 4M 128 4L 128.8 4.80002L 128 4M 83.2 4.80002L 84 5.60001L 83.2 4.80002M 132 4.80002L 132.8 5.60001L 132 4.80002M 80 5.60001L 80.8 6.40002L 80 5.60001M 135.2 5.60001L 136 6.40002L 135.2 5.60001M 76.8 6.40002L 77.6 7.20001L 76.8 6.40002M 138.4 6.40002L 139.2 7.20001L 138.4 6.40002M 74.4 7.20001L 75.2 8L 74.4 7.20001M 140.8 7.20001L 141.6 8L 140.8 7.20001M 72 8L 72.8 8.80002L 72 8M 143.2 8L 144 8.80002L 143.2 8M 69.6 8.80002L 70.4 9.60001L 69.6 8.80002M 145.6 8.80002L 146.4 9.60001L 145.6 8.80002M 65.6 10.4L 66.4 11.2L 65.6 10.4M 149.6 10.4L 150.4 11.2L 149.6 10.4M 64 11.2L 64.8 12L 64 11.2M 151.2 11.2L 152 12L 151.2 11.2M 160.8 16L 161.6 16.8L 160.8 16M 52.8 16.8L 53.6 17.6L 52.8 16.8M 162.4 16.8L 163.2 17.6L 162.4 16.8M 46.4 20.8L 47.2 21.6L 46.4 20.8M 43.2 23.2L 44 24L 43.2 23.2M 172 23.2L 172.8 24L 172 23.2M 40 25.6L 40.8 26.4L 40 25.6M 175.2 25.6L 176 26.4L 175.2 25.6M 35.2 29.6L 36 30.4L 35.2 29.6M 34.4 30.4L 35.2 31.2L 34.4 30.4M 180.8 30.4L 181.6 31.2L 180.8 30.4M 33.6 31.2L 34.4 32L 33.6 31.2M 181.6 31.2L 182.4 32L 181.6 31.2M 32.8 32L 33.6 32.8L 32.8 32M 182.4 32L 183.2 32.8L 182.4 32M 184 33.6L 184.8 34.4L 184 33.6M 30.4 34.4L 31.2 35.2L 30.4 34.4M 184.8 34.4L 185.6 35.2L 184.8 34.4M 29.6 35.2L 30.4 36L 29.6 35.2M 185.6 35.2L 186.4 36L 185.6 35.2M 28.8 36L 29.6 36.8L 28.8 36M 186.4 36L 187.2 36.8L 186.4 36M 28 36.8L 28.8 37.6L 28 36.8M 187.2 36.8L 188 37.6L 187.2 36.8M 191.2 41.6L 192 42.4L 191.2 41.6M 23.2 42.4L 24 43.2L 23.2 42.4M 192 42.4L 192.8 43.2L 192 42.4M 20.8 45.6L 21.6 46.4L 20.8 45.6M 194.4 45.6L 195.2 46.4L 194.4 45.6M 18.4 48.8L 19.2 49.6L 18.4 48.8M 199.2 52.8L 200 53.6L 199.2 52.8M 13.6 56.8L 14.4 57.6L 13.6 56.8M 201.6 56.8L 202.4 57.6L 201.6 56.8M 202.4 58.4L 203.2 59.2L 202.4 58.4M 203.2 60L 204 60.8L 203.2 60M 204.8 63.2L 205.6 64L 204.8 63.2M 9.6 64.8L 10.4 65.6L 9.6 64.8M 205.6 64.8L 206.4 65.6L 205.6 64.8M 8.8 66.4L 9.6 67.2L 8.8 66.4M 206.4 66.4L 207.2 67.2L 206.4 66.4M 102.4 67.2L 103.2 68L 102.4 67.2z"/>
<path style="stroke:none; fill:#ffffff" d="M 103.2 67.5513C 96.4656 68.6031 90.244 70.9789 84.8008 75.1198C 55.4462 97.4512 75.8455 147.82 112.8 142.049C 120.174 140.897 127.026 138.028 132.788 133.226C 160.49 110.14 138.851 61.9832 103.2 67.5513z"/>
<path style="stroke:none; fill:#616161" d="M 113.334 67.4666C 112.978 67.8223 113.822 67.7778 113.866 67.7334C 114.222 67.3779 113.378 67.4222 113.334 67.4666M 98.4 68L 99.2 68.8L 98.4 68M 116.8 68L 117.6 68.8L 116.8 68M 93.6 69.6L 94.4 70.4L 93.6 69.6M 121.6 69.6L 122.4 70.4L 121.6 69.6M 7.2 70.4L 8 71.2L 7.2 70.4M 208 70.4L 208.8 71.2L 208 70.4M 6.4 72.8L 7.2 73.6L 6.4 72.8M 87.2 72.8L 88 73.6L 87.2 72.8M 128 72.8L 128.8 73.6L 128 72.8M 208.8 72.8L 209.6 73.6L 208.8 72.8M 5.6 75.2L 6.4 76L 5.6 75.2M 84 75.2L 84.8 76L 84 75.2M 131.2 75.2L 132 76L 131.2 75.2M 209.6 75.2L 210.4 76L 209.6 75.2M 4.8 77.6L 5.6 78.4L 4.8 77.6M 210.4 77.6L 211.2 78.4L 210.4 77.6M 78.4 80.8L 79.2 81.6L 78.4 80.8M 136.8 80.8L 137.6 81.6L 136.8 80.8M 3.2 83.2L 4 84L 3.2 83.2M 212.266 83.7336C 212.222 83.7776 212.178 84.6224 212.534 84.2664C 212.578 84.2224 212.622 83.3776 212.266 83.7336M 76 84L 76.8 84.8L 76 84M 139.2 84L 140 84.8L 139.2 84M 2.4 87.2L 3.2 88L 2.4 87.2M 212.8 87.2L 213.6 88L 212.8 87.2M 72.8 90.4L 73.6 91.2L 72.8 90.4M 142.4 90.4L 143.2 91.2L 142.4 90.4M 1.86666 91.7336C 1.82226 91.7776 1.77778 92.6224 2.13334 92.2664C 2.1778 92.2224 2.22222 91.3776 1.86666 91.7336M 213.6 92L 214.4 92.8L 213.6 92M 71.2 95.2L 72 96L 71.2 95.2M 144 95.2L 144.8 96L 144 95.2M 0.8 96.8L 0.8 99.2L 1.6 99.2C 1.39903 98.0384 1.34784 97.7984 0.8 96.8M 214.4 97.6L 214.4 100L 215.2 100C 214.999 98.8384 214.948 98.5984 214.4 97.6M 70.4 99.2L 71.2 100L 70.4 99.2M 145.066 99.7336C 145.022 99.7776 144.978 100.622 145.334 100.266C 145.378 100.222 145.422 99.3776 145.066 99.7336M 70.4 109.6L 71.2 110.4L 70.4 109.6M 144.8 109.6L 145.6 110.4L 144.8 109.6M 71.2 113.6L 72 114.4L 71.2 113.6M 144 113.6L 144.8 114.4L 144 113.6M 1.06666 118.134C 1.0222 118.178 0.977784 119.022 1.33334 118.666C 1.37774 118.622 1.42222 117.778 1.06666 118.134M 214.4 117.6L 214.4 120L 215.2 120C 214.999 118.838 214.948 118.598 214.4 117.6M 72.8 118.4L 73.6 119.2L 72.8 118.4M 142.4 118.4L 143.2 119.2L 142.4 118.4M 75.2 123.2L 76 124L 75.2 123.2M 140 123.2L 140.8 124L 140 123.2M 1.86666 124.534C 1.82227 124.578 1.77774 125.422 2.13334 125.066C 2.1778 125.022 2.22222 124.178 1.86666 124.534M 76 124.8L 76.8 125.6L 76 124.8M 213.6 124.8L 214.4 125.6L 213.6 124.8M 78.4 128L 79.2 128.8L 78.4 128M 136.8 128L 137.6 128.8L 136.8 128M 2.4 128.8L 3.2 129.6L 2.4 128.8M 212.8 129.6L 213.6 130.4L 212.8 129.6M 3.2 132.8L 4 133.6L 3.2 132.8M 212 132.8L 212.8 133.6L 212 132.8M 84 133.6L 84.8 134.4L 84 133.6M 131.2 133.6L 132 134.4L 131.2 133.6M 4 136L 4.8 136.8L 4 136M 211.2 136L 212 136.8L 211.2 136M 126.4 136.8L 127.2 137.6L 126.4 136.8M 4.8 138.4L 5.6 139.2L 4.8 138.4M 93.6 139.2L 94.4 140L 93.6 139.2M 121.6 139.2L 122.4 140L 121.6 139.2M 210.4 139.2L 211.2 140L 210.4 139.2M 98.4 140.8L 99.2 141.6L 98.4 140.8M 116.8 140.8L 117.6 141.6L 116.8 140.8M 5.6 141.6L 6.4 142.4L 5.6 141.6M 102.934 141.866C 102.578 142.222 103.422 142.178 103.466 142.134C 103.822 141.778 102.978 141.822 102.934 141.866M 112.8 141.6L 113.6 142.4L 112.8 141.6M 209.6 141.6L 210.4 142.4L 209.6 141.6M 6.4 144L 7.2 144.8L 6.4 144M 208.8 144L 209.6 144.8L 208.8 144M 8 148L 8.8 148.8L 8 148M 207.2 148L 208 148.8L 207.2 148M 10.4 153.6L 11.2 154.4L 10.4 153.6M 204.8 153.6L 205.6 154.4L 204.8 153.6M 11.2 155.2L 12 156L 11.2 155.2M 204 155.2L 204.8 156L 204 155.2M 12 156.8L 12.8 157.6L 12 156.8M 203.2 156.8L 204 157.6L 203.2 156.8M 199.2 165.6L 200 166.4L 199.2 165.6M 16.8 167.2L 17.6 168L 16.8 167.2M 198.4 167.2L 199.2 168L 198.4 167.2M 17.6 168.8L 18.4 169.6L 17.6 168.8M 197.6 168.8L 198.4 169.6L 197.6 168.8M 18.4 170.4L 19.2 171.2L 18.4 170.4M 196.8 170.4L 197.6 171.2L 196.8 170.4M 22.4 179.2L 23.2 180L 22.4 179.2M 192.8 179.2L 193.6 180L 192.8 179.2M 23.2 180.8L 24 181.6L 23.2 180.8M 192 180.8L 192.8 181.6L 192 180.8M 24 182.4L 24.8 183.2L 24 182.4M 191.2 182.4L 192 183.2L 191.2 182.4M 24.8 184L 25.6 184.8L 24.8 184M 190.4 184L 191.2 184.8L 190.4 184M 28.8 192.8L 29.6 193.6L 28.8 192.8M 186.4 192.8L 187.2 193.6L 186.4 192.8M 29.6 194.4L 30.4 195.2L 29.6 194.4M 185.6 194.4L 186.4 195.2L 185.6 194.4M 30.4 196L 31.2 196.8L 30.4 196M 184.8 196L 185.6 196.8L 184.8 196M 31.2 197.6L 32 198.4L 31.2 197.6M 184 197.6L 184.8 198.4L 184 197.6M 35.2 206.4L 36 207.2L 35.2 206.4M 180 206.4L 180.8 207.2L 180 206.4M 36 208L 36.8 208.8L 36 208M 179.2 208L 180 208.8L 179.2 208M 36.8 209.6L 37.6 210.4L 36.8 209.6M 178.4 209.6L 179.2 210.4L 178.4 209.6M 37.6 211.2L 38.4 212L 37.6 211.2M 177.6 211.2L 178.4 212L 177.6 211.2M 40.8 218.4L 41.6 219.2L 40.8 218.4M 41.6 220L 42.4 220.8L 41.6 220M 173.6 220L 174.4 220.8L 173.6 220M 42.4 221.6L 43.2 222.4L 42.4 221.6M 172.8 221.6L 173.6 222.4L 172.8 221.6M 43.2 223.2L 44 224L 43.2 223.2M 172 223.2L 172.8 224L 172 223.2M 48 233.6L 48.8 234.4L 48 233.6M 167.2 233.6L 168 234.4L 167.2 233.6M 48.8 235.2L 49.6 236L 48.8 235.2M 166.4 235.2L 167.2 236L 166.4 235.2M 49.6 236.8L 50.4 237.6L 49.6 236.8M 165.6 236.8L 166.4 237.6L 165.6 236.8M 50.4 238.4L 51.2 239.2L 50.4 238.4M 164.8 238.4L 165.6 239.2L 164.8 238.4M 161.6 245.6L 162.4 246.4L 161.6 245.6M 54.4 247.2L 55.2 248L 54.4 247.2M 160.8 247.2L 161.6 248L 160.8 247.2M 55.2 248.8L 56 249.6L 55.2 248.8M 160 248.8L 160.8 249.6L 160 248.8M 56 250.4L 56.8 251.2L 56 250.4M 159.2 250.4L 160 251.2L 159.2 250.4M 60 259.2L 60.8 260L 60 259.2M 155.2 259.2L 156 260L 155.2 259.2M 60.8 260.8L 61.6 261.6L 60.8 260.8M 154.4 260.8L 155.2 261.6L 154.4 260.8M 61.6 262.4L 62.4 263.2L 61.6 262.4M 153.6 262.4L 154.4 263.2L 153.6 262.4M 62.4 264L 63.2 264.8L 62.4 264M 152.8 264L 153.6 264.8L 152.8 264M 66.4 272.8L 67.2 273.6L 66.4 272.8M 67.2 274.4L 68 275.2L 67.2 274.4M 148 274.4L 148.8 275.2L 148 274.4M 68 276L 68.8 276.8L 68 276M 147.2 276L 148 276.8L 147.2 276M 68.8 277.6L 69.6 278.4L 68.8 277.6M 146.4 277.6L 147.2 278.4L 146.4 277.6M 72.8 286.4L 73.6 287.2L 72.8 286.4M 142.4 286.4L 143.2 287.2L 142.4 286.4M 73.6 288L 74.4 288.8L 73.6 288M 141.6 288L 142.4 288.8L 141.6 288M 74.4 289.6L 75.2 290.4L 74.4 289.6M 140.8 289.6L 141.6 290.4L 140.8 289.6M 75.2 291.2L 76 292L 75.2 291.2M 140 291.2L 140.8 292L 140 291.2M 79.2 300L 80 300.8L 79.2 300M 136 300L 136.8 300.8L 136 300M 80 301.6L 80.8 302.4L 80 301.6M 135.2 301.6L 136 302.4L 135.2 301.6M 80.8 303.2L 81.6 304L 80.8 303.2M 134.4 303.2L 135.2 304L 134.4 303.2M 133.6 304.8L 134.4 305.6L 133.6 304.8M 84.8 312L 85.6 312.8L 84.8 312M 130.4 312L 131.2 312.8L 130.4 312M 85.6 313.6L 86.4 314.4L 85.6 313.6M 129.6 313.6L 130.4 314.4L 129.6 313.6M 86.4 315.2L 87.2 316L 86.4 315.2M 128.8 315.2L 129.6 316L 128.8 315.2M 87.2 316.8L 88 317.6L 87.2 316.8M 128 316.8L 128.8 317.6L 128 316.8M 127.2 318.4L 128 319.2L 127.2 318.4M 124 325.6L 124.8 326.4L 124 325.6M 92 327.2L 92.8 328L 92 327.2M 123.2 327.2L 124 328L 123.2 327.2M 92.8 328.8L 93.6 329.6L 92.8 328.8M 122.4 328.8L 123.2 329.6L 122.4 328.8M 93.6 330.4L 94.4 331.2L 93.6 330.4M 121.6 330.4L 122.4 331.2L 121.6 330.4M 120.8 332L 121.6 332.8L 120.8 332M 97.6 339.2L 98.4 340L 97.6 339.2M 117.6 339.2L 118.4 340L 117.6 339.2M 98.4 340.8L 99.2 341.6L 98.4 340.8M 116.8 340.8L 117.6 341.6L 116.8 340.8M 99.2 342.4L 100 343.2L 99.2 342.4M 116 342.4L 116.8 343.2L 116 342.4M 100 344L 100.8 344.8L 100 344M 115.2 344L 116 344.8L 115.2 344M 104 352.8L 104.8 353.6L 104 352.8M 111.2 352.8L 112 353.6L 111.2 352.8M 104.8 354.4L 105.6 355.2L 104.8 354.4M 110.4 354.4L 111.2 355.2L 110.4 354.4M 105.6 356L 106.4 356.8L 105.6 356M 109.6 356L 110.4 356.8L 109.6 356M 106.4 357.6L 107.2 358.4L 106.4 357.6M 108.8 357.6L 109.6 358.4L 108.8 357.6z"/>
</g>
</svg>