<?xml version="1.0" encoding="UTF-8" standalone="yes"?>
<!-- Created with sK1/UniConvertor (http://sk1project.org/) -->
<svg xmlns="http://www.w3.org/2000/svg" xmlns:xlink="http://www.w3.org/1999/xlink"
  width="240pt" height="240pt" viewBox="0 0 240 240"
  fill-rule="evenodd">
<g>
<path style="stroke:none; fill:#ffffff" d="M 0 0L 0 240L 240 240L 240 0L 0 0z"/>
<path style="stroke:none; fill:#010101" d="M 22.4 22.4L 22.4 44.8L 44.8 44.8L 44.8 22.4L 22.4 22.4M 48 22.4L 48 35.2L 51.2 35.2L 51.2 38.4L 48 38.4L 48 44.8L 51.2 44.8L 51.2 41.6L 54.4 41.6L 54.4 48L 51.2 48L 51.2 54.4L 48 54.4L 48 51.2L 44.8 51.2L 44.8 48L 35.2 48L 35.2 51.2L 32 51.2L 32 54.4L 35.2 54.4L 35.2 57.6L 25.6 57.6L 25.6 54.4L 22.4 54.4L 22.4 60.8L 25.6 60.8L 25.6 64L 22.4 64L 22.4 70.4L 25.6 70.4L 25.6 64L 28.8 64L 28.8 60.8L 32 60.8L 32 67.2L 35.2 67.2L 35.2 70.4L 28.8 70.4L 28.8 73.6L 22.4 73.6L 22.4 89.6L 25.6 89.6L 25.6 80L 28.8 80L 28.8 73.6L 32 73.6L 32 76.8L 35.2 76.8L 35.2 80L 32 80L 32 86.4L 35.2 86.4L 35.2 89.6L 28.8 89.6L 28.8 92.8L 25.6 92.8L 25.6 99.2L 22.4 99.2L 22.4 112L 28.8 112L 28.8 124.8L 35.2 124.8L 35.2 128L 25.6 128L 25.6 124.8L 22.4 124.8L 22.4 137.6L 25.6 137.6L 25.6 134.4L 32 134.4L 32 137.6L 28.8 137.6L 28.8 140.8L 32 140.8L 32 137.6L 35.2 137.6L 35.2 144L 38.4 144L 38.4 147.2L 35.2 147.2L 35.2 150.4L 38.4 150.4L 38.4 153.6L 44.8 153.6L 44.8 150.4L 38.4 150.4L 38.4 147.2L 48 147.2L 48 144L 41.6 144L 41.6 140.8L 48 140.8L 48 137.6L 51.2 137.6L 51.2 140.8L 57.6 140.8L 57.6 144L 51.2 144L 51.2 150.4L 48 150.4L 48 160L 44.8 160L 44.8 156.8L 35.2 156.8L 35.2 160L 44.8 160L 44.8 163.2L 41.6 163.2L 41.6 166.4L 48 166.4L 48 169.6L 41.6 169.6L 41.6 172.8L 38.4 172.8L 38.4 166.4L 35.2 166.4L 35.2 163.2L 22.4 163.2L 22.4 166.4L 25.6 166.4L 25.6 172.8L 22.4 172.8L 22.4 176L 25.6 176L 25.6 172.8L 28.8 172.8L 28.8 176L 35.2 176L 35.2 179.2L 32 179.2L 32 182.4L 28.8 182.4L 28.8 179.2L 25.6 179.2L 25.6 182.4L 28.8 182.4L 28.8 185.6L 22.4 185.6L 22.4 192L 35.2 192L 35.2 188.8L 38.4 188.8L 38.4 185.6L 44.8 185.6L 44.8 182.4L 38.4 182.4L 38.4 179.2L 44.8 179.2L 44.8 176L 41.6 176L 41.6 172.8L 48 172.8L 48 176L 51.2 176L 51.2 179.2L 48 179.2L 48 182.4L 51.2 182.4L 51.2 185.6L 48 185.6L 48 195.2L 51.2 195.2L 51.2 198.4L 48 198.4L 48 204.8L 51.2 204.8L 51.2 211.2L 48 211.2L 48 217.6L 76.8 217.6L 76.8 214.4L 80 214.4L 80 208L 83.2 208L 83.2 211.2L 86.4 211.2L 86.4 208L 89.6 208L 89.6 211.2L 92.8 211.2L 92.8 214.4L 89.6 214.4L 89.6 217.6L 92.8 217.6L 92.8 214.4L 99.2 214.4L 99.2 217.6L 102.4 217.6L 102.4 214.4L 99.2 214.4L 99.2 211.2L 96 211.2L 96 198.4L 99.2 198.4L 99.2 195.2L 102.4 195.2L 102.4 192L 99.2 192L 99.2 188.8L 102.4 188.8L 102.4 185.6L 105.6 185.6L 105.6 182.4L 108.8 182.4L 108.8 185.6L 112 185.6L 112 188.8L 105.6 188.8L 105.6 192L 108.8 192L 108.8 198.4L 112 198.4L 112 201.6L 105.6 201.6L 105.6 198.4L 102.4 198.4L 102.4 201.6L 99.2 201.6L 99.2 204.8L 105.6 204.8L 105.6 217.6L 115.2 217.6L 115.2 214.4L 118.4 214.4L 118.4 204.8L 121.6 204.8L 121.6 208L 131.2 208L 131.2 211.2L 128 211.2L 128 217.6L 140.8 217.6L 140.8 214.4L 144 214.4L 144 217.6L 147.2 217.6L 147.2 214.4L 144 214.4L 144 211.2L 153.6 211.2L 153.6 214.4L 150.4 214.4L 150.4 217.6L 153.6 217.6L 153.6 214.4L 156.8 214.4L 156.8 217.6L 160 217.6L 160 214.4L 163.2 214.4L 163.2 217.6L 169.6 217.6L 169.6 214.4L 172.8 214.4L 172.8 217.6L 176 217.6L 176 214.4L 172.8 214.4L 172.8 211.2L 176 211.2L 176 208L 172.8 208L 172.8 204.8L 179.2 204.8L 179.2 201.6L 176 201.6L 176 198.4L 179.2 198.4L 179.2 185.6L 182.4 185.6L 182.4 182.4L 185.6 182.4L 185.6 188.8L 182.4 188.8L 182.4 198.4L 185.6 198.4L 185.6 201.6L 188.8 201.6L 188.8 211.2L 179.2 211.2L 179.2 214.4L 185.6 214.4L 185.6 217.6L 188.8 217.6L 188.8 211.2L 198.4 211.2L 198.4 214.4L 195.2 214.4L 195.2 217.6L 204.8 217.6L 204.8 214.4L 208 214.4L 208 217.6L 217.6 217.6L 217.6 214.4L 214.4 214.4L 214.4 208L 217.6 208L 217.6 204.8L 214.4 204.8L 214.4 201.6L 217.6 201.6L 217.6 198.4L 214.4 198.4L 214.4 195.2L 211.2 195.2L 211.2 188.8L 214.4 188.8L 214.4 192L 217.6 192L 217.6 188.8L 214.4 188.8L 214.4 185.6L 217.6 185.6L 217.6 176L 214.4 176L 214.4 172.8L 211.2 172.8L 211.2 169.6L 208 169.6L 208 172.8L 204.8 172.8L 204.8 166.4L 208 166.4L 208 163.2L 204.8 163.2L 204.8 166.4L 198.4 166.4L 198.4 160L 201.6 160L 201.6 156.8L 198.4 156.8L 198.4 160L 195.2 160L 195.2 166.4L 192 166.4L 192 163.2L 188.8 163.2L 188.8 160L 192 160L 192 156.8L 195.2 156.8L 195.2 153.6L 192 153.6L 192 150.4L 195.2 150.4L 195.2 137.6L 198.4 137.6L 198.4 128L 201.6 128L 201.6 134.4L 204.8 134.4L 204.8 131.2L 208 131.2L 208 137.6L 204.8 137.6L 204.8 144L 208 144L 208 140.8L 211.2 140.8L 211.2 137.6L 214.4 137.6L 214.4 140.8L 217.6 140.8L 217.6 137.6L 214.4 137.6L 214.4 134.4L 217.6 134.4L 217.6 131.2L 214.4 131.2L 214.4 128L 217.6 128L 217.6 124.8L 214.4 124.8L 214.4 128L 211.2 128L 211.2 131.2L 208 131.2L 208 124.8L 204.8 124.8L 204.8 112L 208 112L 208 115.2L 211.2 115.2L 211.2 108.8L 204.8 108.8L 204.8 105.6L 201.6 105.6L 201.6 102.4L 204.8 102.4L 204.8 99.2L 201.6 99.2L 201.6 96L 198.4 96L 198.4 92.8L 208 92.8L 208 99.2L 214.4 99.2L 214.4 105.6L 217.6 105.6L 217.6 99.2L 214.4 99.2L 214.4 86.4L 217.6 86.4L 217.6 76.8L 214.4 76.8L 214.4 73.6L 217.6 73.6L 217.6 70.4L 211.2 70.4L 211.2 67.2L 208 67.2L 208 70.4L 204.8 70.4L 204.8 67.2L 198.4 67.2L 198.4 73.6L 195.2 73.6L 195.2 70.4L 192 70.4L 192 67.2L 195.2 67.2L 195.2 64L 198.4 64L 198.4 60.8L 195.2 60.8L 195.2 54.4L 198.4 54.4L 198.4 57.6L 201.6 57.6L 201.6 64L 211.2 64L 211.2 60.8L 214.4 60.8L 214.4 64L 217.6 64L 217.6 57.6L 211.2 57.6L 211.2 54.4L 208 54.4L 208 51.2L 214.4 51.2L 214.4 54.4L 217.6 54.4L 217.6 48L 204.8 48L 204.8 57.6L 201.6 57.6L 201.6 48L 198.4 48L 198.4 51.2L 192 51.2L 192 54.4L 188.8 54.4L 188.8 51.2L 182.4 51.2L 182.4 44.8L 185.6 44.8L 185.6 38.4L 188.8 38.4L 188.8 35.2L 192 35.2L 192 22.4L 185.6 22.4L 185.6 28.8L 182.4 28.8L 182.4 22.4L 179.2 22.4L 179.2 28.8L 176 28.8L 176 32L 179.2 32L 179.2 28.8L 182.4 28.8L 182.4 38.4L 179.2 38.4L 179.2 41.6L 176 41.6L 176 35.2L 169.6 35.2L 169.6 32L 172.8 32L 172.8 25.6L 166.4 25.6L 166.4 22.4L 160 22.4L 160 28.8L 166.4 28.8L 166.4 32L 163.2 32L 163.2 38.4L 160 38.4L 160 35.2L 153.6 35.2L 153.6 32L 147.2 32L 147.2 35.2L 153.6 35.2L 153.6 41.6L 150.4 41.6L 150.4 44.8L 147.2 44.8L 147.2 38.4L 144 38.4L 144 35.2L 140.8 35.2L 140.8 32L 137.6 32L 137.6 38.4L 144 38.4L 144 44.8L 147.2 44.8L 147.2 48L 137.6 48L 137.6 44.8L 140.8 44.8L 140.8 41.6L 137.6 41.6L 137.6 44.8L 134.4 44.8L 134.4 41.6L 131.2 41.6L 131.2 44.8L 134.4 44.8L 134.4 48L 131.2 48L 131.2 51.2L 147.2 51.2L 147.2 54.4L 150.4 54.4L 150.4 60.8L 147.2 60.8L 147.2 64L 144 64L 144 54.4L 134.4 54.4L 134.4 57.6L 128 57.6L 128 60.8L 124.8 60.8L 124.8 57.6L 118.4 57.6L 118.4 60.8L 115.2 60.8L 115.2 54.4L 118.4 54.4L 118.4 51.2L 124.8 51.2L 124.8 54.4L 128 54.4L 128 38.4L 131.2 38.4L 131.2 32L 134.4 32L 134.4 22.4L 131.2 22.4L 131.2 25.6L 128 25.6L 128 28.8L 131.2 28.8L 131.2 32L 128 32L 128 35.2L 121.6 35.2L 121.6 28.8L 124.8 28.8L 124.8 25.6L 121.6 25.6L 121.6 22.4L 118.4 22.4L 118.4 28.8L 108.8 28.8L 108.8 32L 118.4 32L 118.4 35.2L 112 35.2L 112 38.4L 108.8 38.4L 108.8 41.6L 105.6 41.6L 105.6 48L 112 48L 112 51.2L 115.2 51.2L 115.2 54.4L 112 54.4L 112 57.6L 108.8 57.6L 108.8 64L 105.6 64L 105.6 73.6L 108.8 73.6L 108.8 70.4L 112 70.4L 112 76.8L 115.2 76.8L 115.2 70.4L 118.4 70.4L 118.4 76.8L 124.8 76.8L 124.8 80L 112 80L 112 83.2L 118.4 83.2L 118.4 86.4L 115.2 86.4L 115.2 89.6L 118.4 89.6L 118.4 92.8L 112 92.8L 112 96L 118.4 96L 118.4 99.2L 112 99.2L 112 102.4L 108.8 102.4L 108.8 99.2L 105.6 99.2L 105.6 96L 102.4 96L 102.4 92.8L 105.6 92.8L 105.6 89.6L 112 89.6L 112 86.4L 108.8 86.4L 108.8 76.8L 105.6 76.8L 105.6 89.6L 99.2 89.6L 99.2 86.4L 102.4 86.4L 102.4 80L 99.2 80L 99.2 76.8L 102.4 76.8L 102.4 73.6L 99.2 73.6L 99.2 70.4L 102.4 70.4L 102.4 64L 99.2 64L 99.2 54.4L 96 54.4L 96 64L 92.8 64L 92.8 67.2L 96 67.2L 96 73.6L 92.8 73.6L 92.8 70.4L 86.4 70.4L 86.4 67.2L 89.6 67.2L 89.6 64L 86.4 64L 86.4 60.8L 89.6 60.8L 89.6 54.4L 92.8 54.4L 92.8 51.2L 99.2 51.2L 99.2 48L 102.4 48L 102.4 41.6L 99.2 41.6L 99.2 44.8L 96 44.8L 96 38.4L 92.8 38.4L 92.8 35.2L 89.6 35.2L 89.6 32L 92.8 32L 92.8 28.8L 96 28.8L 96 35.2L 99.2 35.2L 99.2 38.4L 102.4 38.4L 102.4 32L 99.2 32L 99.2 28.8L 102.4 28.8L 102.4 22.4L 99.2 22.4L 99.2 25.6L 92.8 25.6L 92.8 22.4L 89.6 22.4L 89.6 25.6L 86.4 25.6L 86.4 22.4L 80 22.4L 80 25.6L 86.4 25.6L 86.4 28.8L 89.6 28.8L 89.6 32L 83.2 32L 83.2 28.8L 80 28.8L 80 32L 83.2 32L 83.2 38.4L 80 38.4L 80 44.8L 83.2 44.8L 83.2 41.6L 86.4 41.6L 86.4 44.8L 89.6 44.8L 89.6 48L 80 48L 80 51.2L 73.6 51.2L 73.6 48L 70.4 48L 70.4 54.4L 67.2 54.4L 67.2 48L 60.8 48L 60.8 51.2L 54.4 51.2L 54.4 48L 57.6 48L 57.6 38.4L 64 38.4L 64 41.6L 60.8 41.6L 60.8 44.8L 64 44.8L 64 41.6L 67.2 41.6L 67.2 44.8L 70.4 44.8L 70.4 41.6L 73.6 41.6L 73.6 44.8L 76.8 44.8L 76.8 38.4L 73.6 38.4L 73.6 32L 67.2 32L 67.2 28.8L 70.4 28.8L 70.4 25.6L 73.6 25.6L 73.6 28.8L 76.8 28.8L 76.8 22.4L 64 22.4L 64 25.6L 60.8 25.6L 60.8 28.8L 64 28.8L 64 32L 51.2 32L 51.2 28.8L 54.4 28.8L 54.4 22.4L 48 22.4M 112 22.4L 112 25.6L 115.2 25.6L 115.2 22.4L 112 22.4M 137.6 22.4L 137.6 28.8L 140.8 28.8L 140.8 22.4L 137.6 22.4M 150.4 22.4L 150.4 25.6L 153.6 25.6L 153.6 28.8L 156.8 28.8L 156.8 25.6L 153.6 25.6L 153.6 22.4L 150.4 22.4M 195.2 22.4L 195.2 44.8L 217.6 44.8L 217.6 22.4L 195.2 22.4z"/>
<path style="stroke:none; fill:#ffffff" d="M 25.6 25.6L 25.6 41.6L 41.6 41.6L 41.6 25.6L 25.6 25.6M 89.6 25.6L 89.6 28.8L 92.8 28.8L 92.8 25.6L 89.6 25.6z"/>
<path style="stroke:none; fill:#010101" d="M 144 25.6L 144 28.8L 147.2 28.8L 147.2 25.6L 144 25.6z"/>
<path style="stroke:none; fill:#ffffff" d="M 198.4 25.6L 198.4 41.6L 214.4 41.6L 214.4 25.6L 198.4 25.6z"/>
<path style="stroke:none; fill:#010101" d="M 28.8 28.8L 28.8 38.4L 38.4 38.4L 38.4 28.8L 28.8 28.8M 201.6 28.8L 201.6 38.4L 211.2 38.4L 211.2 28.8L 201.6 28.8z"/>
<path style="stroke:none; fill:#ffffff" d="M 64 32L 64 35.2L 67.2 35.2L 67.2 32L 64 32M 185.6 32L 185.6 35.2L 188.8 35.2L 188.8 32L 185.6 32M 54.4 35.2L 54.4 38.4L 57.6 38.4L 57.6 35.2L 54.4 35.2M 86.4 35.2L 86.4 38.4L 89.6 38.4L 89.6 35.2L 86.4 35.2M 115.2 38.4L 115.2 48L 124.8 48L 124.8 38.4L 115.2 38.4M 156.8 38.4L 156.8 41.6L 153.6 41.6L 153.6 44.8L 150.4 44.8L 150.4 48L 147.2 48L 147.2 51.2L 150.4 51.2L 150.4 54.4L 153.6 54.4L 153.6 57.6L 156.8 57.6L 156.8 67.2L 153.6 67.2L 153.6 64L 147.2 64L 147.2 67.2L 153.6 67.2L 153.6 70.4L 134.4 70.4L 134.4 67.2L 140.8 67.2L 140.8 64L 134.4 64L 134.4 60.8L 140.8 60.8L 140.8 57.6L 134.4 57.6L 134.4 60.8L 128 60.8L 128 64L 118.4 64L 118.4 67.2L 121.6 67.2L 121.6 73.6L 128 73.6L 128 76.8L 134.4 76.8L 134.4 73.6L 137.6 73.6L 137.6 83.2L 134.4 83.2L 134.4 89.6L 131.2 89.6L 131.2 92.8L 137.6 92.8L 137.6 99.2L 134.4 99.2L 134.4 96L 131.2 96L 131.2 99.2L 128 99.2L 128 102.4L 131.2 102.4L 131.2 99.2L 134.4 99.2L 134.4 108.8L 131.2 108.8L 131.2 105.6L 128 105.6L 128 112L 131.2 112L 131.2 115.2L 134.4 115.2L 134.4 124.8L 128 124.8L 128 128L 121.6 128L 121.6 131.2L 118.4 131.2L 118.4 128L 115.2 128L 115.2 131.2L 112 131.2L 112 128L 108.8 128L 108.8 124.8L 112 124.8L 112 118.4L 108.8 118.4L 108.8 115.2L 112 115.2L 112 112L 115.2 112L 115.2 108.8L 121.6 108.8L 121.6 112L 124.8 112L 124.8 108.8L 121.6 108.8L 121.6 105.6L 118.4 105.6L 118.4 102.4L 115.2 102.4L 115.2 108.8L 108.8 108.8L 108.8 105.6L 105.6 105.6L 105.6 102.4L 99.2 102.4L 99.2 112L 105.6 112L 105.6 115.2L 102.4 115.2L 102.4 118.4L 99.2 118.4L 99.2 121.6L 96 121.6L 96 124.8L 92.8 124.8L 92.8 121.6L 89.6 121.6L 89.6 118.4L 92.8 118.4L 92.8 115.2L 96 115.2L 96 105.6L 86.4 105.6L 86.4 108.8L 83.2 108.8L 83.2 105.6L 80 105.6L 80 102.4L 86.4 102.4L 86.4 99.2L 89.6 99.2L 89.6 102.4L 92.8 102.4L 92.8 99.2L 89.6 99.2L 89.6 89.6L 92.8 89.6L 92.8 92.8L 96 92.8L 96 96L 99.2 96L 99.2 99.2L 102.4 99.2L 102.4 96L 99.2 96L 99.2 89.6L 92.8 89.6L 92.8 86.4L 89.6 86.4L 89.6 80L 96 80L 96 76.8L 99.2 76.8L 99.2 73.6L 96 73.6L 96 76.8L 86.4 76.8L 86.4 70.4L 83.2 70.4L 83.2 67.2L 86.4 67.2L 86.4 64L 83.2 64L 83.2 60.8L 80 60.8L 80 64L 83.2 64L 83.2 67.2L 80 67.2L 80 70.4L 76.8 70.4L 76.8 73.6L 73.6 73.6L 73.6 76.8L 70.4 76.8L 70.4 83.2L 73.6 83.2L 73.6 80L 76.8 80L 76.8 89.6L 73.6 89.6L 73.6 86.4L 70.4 86.4L 70.4 89.6L 67.2 89.6L 67.2 76.8L 64 76.8L 64 73.6L 60.8 73.6L 60.8 70.4L 57.6 70.4L 57.6 73.6L 54.4 73.6L 54.4 76.8L 51.2 76.8L 51.2 73.6L 48 73.6L 48 70.4L 51.2 70.4L 51.2 67.2L 48 67.2L 48 64L 51.2 64L 51.2 60.8L 54.4 60.8L 54.4 67.2L 57.6 67.2L 57.6 57.6L 60.8 57.6L 60.8 60.8L 64 60.8L 64 70.4L 67.2 70.4L 67.2 73.6L 70.4 73.6L 70.4 64L 67.2 64L 67.2 60.8L 70.4 60.8L 70.4 57.6L 67.2 57.6L 67.2 60.8L 64 60.8L 64 51.2L 60.8 51.2L 60.8 54.4L 51.2 54.4L 51.2 57.6L 48 57.6L 48 64L 38.4 64L 38.4 60.8L 44.8 60.8L 44.8 57.6L 35.2 57.6L 35.2 67.2L 48 67.2L 48 70.4L 41.6 70.4L 41.6 73.6L 48 73.6L 48 76.8L 38.4 76.8L 38.4 80L 44.8 80L 44.8 83.2L 41.6 83.2L 41.6 86.4L 38.4 86.4L 38.4 89.6L 41.6 89.6L 41.6 92.8L 28.8 92.8L 28.8 99.2L 25.6 99.2L 25.6 102.4L 32 102.4L 32 105.6L 38.4 105.6L 38.4 108.8L 41.6 108.8L 41.6 112L 48 112L 48 105.6L 44.8 105.6L 44.8 102.4L 38.4 102.4L 38.4 99.2L 35.2 99.2L 35.2 96L 41.6 96L 41.6 99.2L 51.2 99.2L 51.2 102.4L 54.4 102.4L 54.4 105.6L 51.2 105.6L 51.2 108.8L 54.4 108.8L 54.4 112L 51.2 112L 51.2 115.2L 54.4 115.2L 54.4 118.4L 57.6 118.4L 57.6 121.6L 51.2 121.6L 51.2 124.8L 54.4 124.8L 54.4 128L 35.2 128L 35.2 134.4L 38.4 134.4L 38.4 137.6L 48 137.6L 48 134.4L 51.2 134.4L 51.2 137.6L 57.6 137.6L 57.6 140.8L 64 140.8L 64 144L 60.8 144L 60.8 147.2L 64 147.2L 64 150.4L 51.2 150.4L 51.2 160L 48 160L 48 166.4L 54.4 166.4L 54.4 163.2L 60.8 163.2L 60.8 169.6L 64 169.6L 64 166.4L 67.2 166.4L 67.2 172.8L 70.4 172.8L 70.4 176L 67.2 176L 67.2 179.2L 64 179.2L 64 172.8L 60.8 172.8L 60.8 179.2L 57.6 179.2L 57.6 185.6L 51.2 185.6L 51.2 188.8L 57.6 188.8L 57.6 195.2L 54.4 195.2L 54.4 192L 51.2 192L 51.2 195.2L 54.4 195.2L 54.4 198.4L 57.6 198.4L 57.6 201.6L 54.4 201.6L 54.4 204.8L 57.6 204.8L 57.6 208L 54.4 208L 54.4 211.2L 57.6 211.2L 57.6 208L 60.8 208L 60.8 211.2L 67.2 211.2L 67.2 214.4L 70.4 214.4L 70.4 211.2L 73.6 211.2L 73.6 204.8L 76.8 204.8L 76.8 208L 80 208L 80 204.8L 86.4 204.8L 86.4 201.6L 89.6 201.6L 89.6 204.8L 92.8 204.8L 92.8 201.6L 89.6 201.6L 89.6 192L 92.8 192L 92.8 188.8L 89.6 188.8L 89.6 192L 86.4 192L 86.4 185.6L 83.2 185.6L 83.2 182.4L 96 182.4L 96 179.2L 99.2 179.2L 99.2 182.4L 105.6 182.4L 105.6 179.2L 108.8 179.2L 108.8 182.4L 112 182.4L 112 176L 108.8 176L 108.8 169.6L 112 169.6L 112 172.8L 115.2 172.8L 115.2 185.6L 118.4 185.6L 118.4 172.8L 115.2 172.8L 115.2 166.4L 118.4 166.4L 118.4 169.6L 121.6 169.6L 121.6 176L 131.2 176L 131.2 172.8L 134.4 172.8L 134.4 176L 137.6 176L 137.6 179.2L 134.4 179.2L 134.4 182.4L 137.6 182.4L 137.6 185.6L 134.4 185.6L 134.4 192L 131.2 192L 131.2 188.8L 128 188.8L 128 192L 131.2 192L 131.2 195.2L 137.6 195.2L 137.6 198.4L 134.4 198.4L 134.4 201.6L 131.2 201.6L 131.2 204.8L 134.4 204.8L 134.4 201.6L 137.6 201.6L 137.6 204.8L 140.8 204.8L 140.8 201.6L 147.2 201.6L 147.2 204.8L 144 204.8L 144 208L 147.2 208L 147.2 204.8L 150.4 204.8L 150.4 208L 153.6 208L 153.6 211.2L 156.8 211.2L 156.8 214.4L 160 214.4L 160 211.2L 163.2 211.2L 163.2 208L 166.4 208L 166.4 214.4L 169.6 214.4L 169.6 211.2L 172.8 211.2L 172.8 208L 169.6 208L 169.6 204.8L 172.8 204.8L 172.8 201.6L 166.4 201.6L 166.4 195.2L 169.6 195.2L 169.6 192L 172.8 192L 172.8 188.8L 169.6 188.8L 169.6 192L 166.4 192L 166.4 185.6L 163.2 185.6L 163.2 188.8L 156.8 188.8L 156.8 185.6L 160 185.6L 160 182.4L 163.2 182.4L 163.2 179.2L 166.4 179.2L 166.4 182.4L 172.8 182.4L 172.8 176L 166.4 176L 166.4 166.4L 169.6 166.4L 169.6 172.8L 172.8 172.8L 172.8 169.6L 176 169.6L 176 176L 179.2 176L 179.2 182.4L 182.4 182.4L 182.4 179.2L 185.6 179.2L 185.6 182.4L 192 182.4L 192 185.6L 188.8 185.6L 188.8 188.8L 185.6 188.8L 185.6 198.4L 188.8 198.4L 188.8 188.8L 198.4 188.8L 198.4 185.6L 195.2 185.6L 195.2 182.4L 192 182.4L 192 176L 195.2 176L 195.2 179.2L 198.4 179.2L 198.4 182.4L 201.6 182.4L 201.6 179.2L 204.8 179.2L 204.8 185.6L 214.4 185.6L 214.4 182.4L 211.2 182.4L 211.2 179.2L 214.4 179.2L 214.4 176L 211.2 176L 211.2 172.8L 208 172.8L 208 176L 201.6 176L 201.6 179.2L 198.4 179.2L 198.4 172.8L 201.6 172.8L 201.6 169.6L 192 169.6L 192 166.4L 188.8 166.4L 188.8 163.2L 185.6 163.2L 185.6 160L 188.8 160L 188.8 156.8L 182.4 156.8L 182.4 153.6L 188.8 153.6L 188.8 150.4L 192 150.4L 192 147.2L 182.4 147.2L 182.4 140.8L 185.6 140.8L 185.6 144L 188.8 144L 188.8 140.8L 192 140.8L 192 137.6L 195.2 137.6L 195.2 134.4L 192 134.4L 192 137.6L 185.6 137.6L 185.6 134.4L 188.8 134.4L 188.8 131.2L 195.2 131.2L 195.2 128L 188.8 128L 188.8 115.2L 182.4 115.2L 182.4 112L 179.2 112L 179.2 105.6L 182.4 105.6L 182.4 108.8L 188.8 108.8L 188.8 105.6L 192 105.6L 192 99.2L 188.8 99.2L 188.8 92.8L 192 92.8L 192 89.6L 188.8 89.6L 188.8 86.4L 195.2 86.4L 195.2 89.6L 198.4 89.6L 198.4 86.4L 195.2 86.4L 195.2 83.2L 201.6 83.2L 201.6 80L 198.4 80L 198.4 76.8L 204.8 76.8L 204.8 86.4L 201.6 86.4L 201.6 89.6L 208 89.6L 208 92.8L 211.2 92.8L 211.2 89.6L 208 89.6L 208 76.8L 211.2 76.8L 211.2 70.4L 208 70.4L 208 73.6L 204.8 73.6L 204.8 70.4L 201.6 70.4L 201.6 73.6L 198.4 73.6L 198.4 76.8L 192 76.8L 192 73.6L 188.8 73.6L 188.8 86.4L 179.2 86.4L 179.2 83.2L 185.6 83.2L 185.6 80L 182.4 80L 182.4 73.6L 185.6 73.6L 185.6 70.4L 188.8 70.4L 188.8 64L 195.2 64L 195.2 60.8L 188.8 60.8L 188.8 57.6L 185.6 57.6L 185.6 54.4L 182.4 54.4L 182.4 51.2L 176 51.2L 176 41.6L 172.8 41.6L 172.8 38.4L 169.6 38.4L 169.6 41.6L 166.4 41.6L 166.4 44.8L 163.2 44.8L 163.2 41.6L 160 41.6L 160 38.4L 156.8 38.4M 89.6 41.6L 89.6 44.8L 92.8 44.8L 92.8 48L 96 48L 96 44.8L 92.8 44.8L 92.8 41.6L 89.6 41.6M 108.8 41.6L 108.8 44.8L 112 44.8L 112 41.6L 108.8 41.6z"/>
<path style="stroke:none; fill:#010101" d="M 118.4 41.6L 118.4 44.8L 121.6 44.8L 121.6 41.6L 118.4 41.6M 156.8 41.6L 156.8 44.8L 153.6 44.8L 153.6 48L 156.8 48L 156.8 51.2L 160 51.2L 160 54.4L 163.2 54.4L 163.2 57.6L 160 57.6L 160 60.8L 163.2 60.8L 163.2 64L 160 64L 160 67.2L 163.2 67.2L 163.2 64L 166.4 64L 166.4 76.8L 160 76.8L 160 80L 163.2 80L 163.2 83.2L 160 83.2L 160 86.4L 163.2 86.4L 163.2 83.2L 166.4 83.2L 166.4 86.4L 172.8 86.4L 172.8 89.6L 169.6 89.6L 169.6 92.8L 172.8 92.8L 172.8 89.6L 176 89.6L 176 92.8L 179.2 92.8L 179.2 99.2L 172.8 99.2L 172.8 96L 160 96L 160 89.6L 150.4 89.6L 150.4 92.8L 147.2 92.8L 147.2 96L 153.6 96L 153.6 99.2L 150.4 99.2L 150.4 102.4L 153.6 102.4L 153.6 105.6L 144 105.6L 144 102.4L 147.2 102.4L 147.2 99.2L 137.6 99.2L 137.6 105.6L 140.8 105.6L 140.8 108.8L 137.6 108.8L 137.6 118.4L 147.2 118.4L 147.2 121.6L 137.6 121.6L 137.6 124.8L 140.8 124.8L 140.8 128L 137.6 128L 137.6 131.2L 134.4 131.2L 134.4 128L 131.2 128L 131.2 131.2L 134.4 131.2L 134.4 134.4L 124.8 134.4L 124.8 131.2L 121.6 131.2L 121.6 137.6L 118.4 137.6L 118.4 140.8L 115.2 140.8L 115.2 147.2L 108.8 147.2L 108.8 144L 102.4 144L 102.4 140.8L 99.2 140.8L 99.2 134.4L 92.8 134.4L 92.8 137.6L 83.2 137.6L 83.2 131.2L 86.4 131.2L 86.4 128L 80 128L 80 134.4L 76.8 134.4L 76.8 137.6L 73.6 137.6L 73.6 140.8L 67.2 140.8L 67.2 137.6L 64 137.6L 64 134.4L 73.6 134.4L 73.6 131.2L 76.8 131.2L 76.8 128L 67.2 128L 67.2 124.8L 76.8 124.8L 76.8 121.6L 80 121.6L 80 115.2L 76.8 115.2L 76.8 112L 80 112L 80 105.6L 76.8 105.6L 76.8 112L 73.6 112L 73.6 108.8L 70.4 108.8L 70.4 105.6L 60.8 105.6L 60.8 108.8L 57.6 108.8L 57.6 115.2L 60.8 115.2L 60.8 121.6L 57.6 121.6L 57.6 124.8L 60.8 124.8L 60.8 128L 67.2 128L 67.2 131.2L 60.8 131.2L 60.8 137.6L 64 137.6L 64 140.8L 67.2 140.8L 67.2 144L 64 144L 64 147.2L 67.2 147.2L 67.2 150.4L 64 150.4L 64 153.6L 57.6 153.6L 57.6 156.8L 54.4 156.8L 54.4 160L 51.2 160L 51.2 163.2L 54.4 163.2L 54.4 160L 57.6 160L 57.6 156.8L 60.8 156.8L 60.8 160L 64 160L 64 163.2L 70.4 163.2L 70.4 169.6L 73.6 169.6L 73.6 172.8L 76.8 172.8L 76.8 182.4L 73.6 182.4L 73.6 185.6L 70.4 185.6L 70.4 179.2L 73.6 179.2L 73.6 176L 70.4 176L 70.4 179.2L 67.2 179.2L 67.2 185.6L 70.4 185.6L 70.4 188.8L 73.6 188.8L 73.6 192L 76.8 192L 76.8 195.2L 73.6 195.2L 73.6 201.6L 76.8 201.6L 76.8 204.8L 80 204.8L 80 201.6L 83.2 201.6L 83.2 195.2L 80 195.2L 80 192L 83.2 192L 83.2 185.6L 80 185.6L 80 182.4L 83.2 182.4L 83.2 179.2L 80 179.2L 80 176L 83.2 176L 83.2 172.8L 86.4 172.8L 86.4 179.2L 96 179.2L 96 176L 99.2 176L 99.2 179.2L 102.4 179.2L 102.4 176L 99.2 176L 99.2 172.8L 96 172.8L 96 176L 92.8 176L 92.8 172.8L 86.4 172.8L 86.4 169.6L 89.6 169.6L 89.6 166.4L 92.8 166.4L 92.8 169.6L 108.8 169.6L 108.8 163.2L 112 163.2L 112 166.4L 115.2 166.4L 115.2 163.2L 118.4 163.2L 118.4 153.6L 115.2 153.6L 115.2 150.4L 118.4 150.4L 118.4 144L 124.8 144L 124.8 140.8L 128 140.8L 128 144L 131.2 144L 131.2 147.2L 124.8 147.2L 124.8 153.6L 121.6 153.6L 121.6 156.8L 128 156.8L 128 150.4L 134.4 150.4L 134.4 144L 137.6 144L 137.6 150.4L 140.8 150.4L 140.8 153.6L 137.6 153.6L 137.6 156.8L 134.4 156.8L 134.4 153.6L 131.2 153.6L 131.2 160L 124.8 160L 124.8 166.4L 121.6 166.4L 121.6 169.6L 128 169.6L 128 163.2L 134.4 163.2L 134.4 166.4L 131.2 166.4L 131.2 169.6L 134.4 169.6L 134.4 166.4L 144 166.4L 144 169.6L 147.2 169.6L 147.2 172.8L 153.6 172.8L 153.6 169.6L 156.8 169.6L 156.8 166.4L 160 166.4L 160 169.6L 163.2 169.6L 163.2 166.4L 166.4 166.4L 166.4 160L 163.2 160L 163.2 153.6L 166.4 153.6L 166.4 156.8L 169.6 156.8L 169.6 163.2L 172.8 163.2L 172.8 160L 176 160L 176 163.2L 179.2 163.2L 179.2 166.4L 176 166.4L 176 169.6L 179.2 169.6L 179.2 176L 185.6 176L 185.6 179.2L 188.8 179.2L 188.8 176L 192 176L 192 172.8L 188.8 172.8L 188.8 166.4L 185.6 166.4L 185.6 163.2L 179.2 163.2L 179.2 160L 182.4 160L 182.4 156.8L 179.2 156.8L 179.2 153.6L 182.4 153.6L 182.4 150.4L 176 150.4L 176 147.2L 179.2 147.2L 179.2 144L 176 144L 176 147.2L 172.8 147.2L 172.8 140.8L 179.2 140.8L 179.2 131.2L 176 131.2L 176 128L 179.2 128L 179.2 124.8L 182.4 124.8L 182.4 118.4L 179.2 118.4L 179.2 115.2L 176 115.2L 176 112L 172.8 112L 172.8 105.6L 179.2 105.6L 179.2 99.2L 182.4 99.2L 182.4 105.6L 188.8 105.6L 188.8 99.2L 182.4 99.2L 182.4 96L 185.6 96L 185.6 92.8L 188.8 92.8L 188.8 89.6L 182.4 89.6L 182.4 92.8L 179.2 92.8L 179.2 86.4L 172.8 86.4L 172.8 83.2L 169.6 83.2L 169.6 80L 166.4 80L 166.4 76.8L 172.8 76.8L 172.8 70.4L 176 70.4L 176 76.8L 179.2 76.8L 179.2 73.6L 182.4 73.6L 182.4 70.4L 185.6 70.4L 185.6 64L 182.4 64L 182.4 60.8L 179.2 60.8L 179.2 64L 172.8 64L 172.8 70.4L 169.6 70.4L 169.6 64L 166.4 64L 166.4 60.8L 176 60.8L 176 51.2L 172.8 51.2L 172.8 48L 169.6 48L 169.6 44.8L 172.8 44.8L 172.8 41.6L 169.6 41.6L 169.6 44.8L 166.4 44.8L 166.4 48L 169.6 48L 169.6 51.2L 166.4 51.2L 166.4 54.4L 163.2 54.4L 163.2 51.2L 160 51.2L 160 48L 163.2 48L 163.2 44.8L 160 44.8L 160 41.6L 156.8 41.6z"/>
<path style="stroke:none; fill:#ffffff" d="M 179.2 41.6L 179.2 44.8L 182.4 44.8L 182.4 41.6L 179.2 41.6z"/>
<path style="stroke:none; fill:#010101" d="M 188.8 41.6L 188.8 48L 192 48L 192 41.6L 188.8 41.6z"/>
<path style="stroke:none; fill:#ffffff" d="M 156.8 44.8L 156.8 48L 160 48L 160 44.8L 156.8 44.8z"/>
<path style="stroke:none; fill:#010101" d="M 22.4 48L 22.4 51.2L 28.8 51.2L 28.8 48L 22.4 48z"/>
<path style="stroke:none; fill:#ffffff" d="M 38.4 51.2L 38.4 54.4L 44.8 54.4L 44.8 51.2L 38.4 51.2M 83.2 51.2L 83.2 57.6L 86.4 57.6L 86.4 54.4L 89.6 54.4L 89.6 51.2L 83.2 51.2z"/>
<path style="stroke:none; fill:#010101" d="M 102.4 51.2L 102.4 60.8L 105.6 60.8L 105.6 54.4L 108.8 54.4L 108.8 51.2L 102.4 51.2z"/>
<path style="stroke:none; fill:#ffffff" d="M 76.8 54.4L 76.8 57.6L 80 57.6L 80 54.4L 76.8 54.4M 166.4 54.4L 166.4 57.6L 169.6 57.6L 169.6 54.4L 166.4 54.4M 73.6 60.8L 73.6 64L 76.8 64L 76.8 60.8L 73.6 60.8M 112 60.8L 112 64L 108.8 64L 108.8 67.2L 115.2 67.2L 115.2 60.8L 112 60.8M 96 64L 96 67.2L 99.2 67.2L 99.2 64L 96 64z"/>
<path style="stroke:none; fill:#010101" d="M 131.2 64L 131.2 67.2L 134.4 67.2L 134.4 64L 131.2 64M 124.8 67.2L 124.8 70.4L 128 70.4L 128 73.6L 134.4 73.6L 134.4 70.4L 128 70.4L 128 67.2L 124.8 67.2z"/>
<path style="stroke:none; fill:#ffffff" d="M 176 67.2L 176 70.4L 182.4 70.4L 182.4 67.2L 176 67.2z"/>
<path style="stroke:none; fill:#010101" d="M 160 70.4L 160 73.6L 163.2 73.6L 163.2 70.4L 160 70.4M 76.8 73.6L 76.8 80L 80 80L 80 89.6L 83.2 89.6L 83.2 76.8L 80 76.8L 80 73.6L 76.8 73.6M 140.8 73.6L 140.8 83.2L 137.6 83.2L 137.6 86.4L 140.8 86.4L 140.8 83.2L 144 83.2L 144 86.4L 147.2 86.4L 147.2 83.2L 153.6 83.2L 153.6 86.4L 156.8 86.4L 156.8 83.2L 153.6 83.2L 153.6 80L 156.8 80L 156.8 76.8L 153.6 76.8L 153.6 73.6L 150.4 73.6L 150.4 76.8L 153.6 76.8L 153.6 80L 144 80L 144 76.8L 147.2 76.8L 147.2 73.6L 140.8 73.6M 48 76.8L 48 86.4L 41.6 86.4L 41.6 89.6L 44.8 89.6L 44.8 92.8L 41.6 92.8L 41.6 96L 44.8 96L 44.8 92.8L 51.2 92.8L 51.2 89.6L 54.4 89.6L 54.4 96L 57.6 96L 57.6 92.8L 60.8 92.8L 60.8 96L 64 96L 64 99.2L 60.8 99.2L 60.8 102.4L 64 102.4L 64 99.2L 67.2 99.2L 67.2 102.4L 70.4 102.4L 70.4 99.2L 73.6 99.2L 73.6 102.4L 80 102.4L 80 99.2L 83.2 99.2L 83.2 92.8L 80 92.8L 80 96L 70.4 96L 70.4 92.8L 73.6 92.8L 73.6 89.6L 70.4 89.6L 70.4 92.8L 67.2 92.8L 67.2 96L 64 96L 64 92.8L 60.8 92.8L 60.8 86.4L 64 86.4L 64 80L 60.8 80L 60.8 76.8L 54.4 76.8L 54.4 80L 51.2 80L 51.2 76.8L 48 76.8z"/>
<path style="stroke:none; fill:#ffffff" d="M 128 80L 128 83.2L 121.6 83.2L 121.6 86.4L 128 86.4L 128 83.2L 131.2 83.2L 131.2 80L 128 80z"/>
<path style="stroke:none; fill:#010101" d="M 176 80L 176 83.2L 179.2 83.2L 179.2 80L 176 80M 192 80L 192 83.2L 195.2 83.2L 195.2 80L 192 80z"/>
<path style="stroke:none; fill:#ffffff" d="M 211.2 80L 211.2 83.2L 214.4 83.2L 214.4 80L 211.2 80M 51.2 83.2L 51.2 86.4L 48 86.4L 48 89.6L 51.2 89.6L 51.2 86.4L 54.4 86.4L 54.4 83.2L 51.2 83.2M 96 83.2L 96 86.4L 99.2 86.4L 99.2 83.2L 96 83.2z"/>
<path style="stroke:none; fill:#010101" d="M 86.4 86.4L 86.4 89.6L 89.6 89.6L 89.6 86.4L 86.4 86.4z"/>
<path style="stroke:none; fill:#ffffff" d="M 121.6 89.6L 121.6 92.8L 118.4 92.8L 118.4 96L 121.6 96L 121.6 92.8L 124.8 92.8L 124.8 89.6L 121.6 89.6z"/>
<path style="stroke:none; fill:#010101" d="M 137.6 89.6L 137.6 92.8L 140.8 92.8L 140.8 96L 144 96L 144 92.8L 140.8 92.8L 140.8 89.6L 137.6 89.6M 163.2 89.6L 163.2 92.8L 166.4 92.8L 166.4 89.6L 163.2 89.6z"/>
<path style="stroke:none; fill:#ffffff" d="M 156.8 96L 156.8 99.2L 160 99.2L 160 96L 156.8 96M 195.2 96L 195.2 102.4L 201.6 102.4L 201.6 99.2L 198.4 99.2L 198.4 96L 195.2 96M 166.4 99.2L 166.4 102.4L 163.2 102.4L 163.2 105.6L 166.4 105.6L 166.4 112L 169.6 112L 169.6 118.4L 166.4 118.4L 166.4 115.2L 163.2 115.2L 163.2 108.8L 160 108.8L 160 102.4L 156.8 102.4L 156.8 105.6L 153.6 105.6L 153.6 108.8L 150.4 108.8L 150.4 112L 147.2 112L 147.2 108.8L 140.8 108.8L 140.8 112L 144 112L 144 115.2L 153.6 115.2L 153.6 118.4L 150.4 118.4L 150.4 121.6L 147.2 121.6L 147.2 124.8L 144 124.8L 144 128L 140.8 128L 140.8 131.2L 137.6 131.2L 137.6 134.4L 134.4 134.4L 134.4 137.6L 131.2 137.6L 131.2 144L 134.4 144L 134.4 137.6L 137.6 137.6L 137.6 140.8L 140.8 140.8L 140.8 137.6L 147.2 137.6L 147.2 140.8L 144 140.8L 144 144L 147.2 144L 147.2 140.8L 153.6 140.8L 153.6 144L 156.8 144L 156.8 140.8L 160 140.8L 160 134.4L 166.4 134.4L 166.4 137.6L 163.2 137.6L 163.2 140.8L 166.4 140.8L 166.4 137.6L 169.6 137.6L 169.6 140.8L 172.8 140.8L 172.8 137.6L 176 137.6L 176 131.2L 172.8 131.2L 172.8 128L 169.6 128L 169.6 124.8L 172.8 124.8L 172.8 121.6L 176 121.6L 176 124.8L 179.2 124.8L 179.2 118.4L 172.8 118.4L 172.8 112L 169.6 112L 169.6 102.4L 172.8 102.4L 172.8 99.2L 166.4 99.2z"/>
<path style="stroke:none; fill:#010101" d="M 208 102.4L 208 105.6L 211.2 105.6L 211.2 102.4L 208 102.4M 41.6 105.6L 41.6 108.8L 44.8 108.8L 44.8 105.6L 41.6 105.6z"/>
<path style="stroke:none; fill:#ffffff" d="M 195.2 105.6L 195.2 112L 201.6 112L 201.6 105.6L 195.2 105.6M 32 108.8L 32 112L 35.2 112L 35.2 108.8L 32 108.8M 64 108.8L 64 112L 67.2 112L 67.2 108.8L 64 108.8z"/>
<path style="stroke:none; fill:#010101" d="M 153.6 108.8L 153.6 115.2L 160 115.2L 160 112L 156.8 112L 156.8 108.8L 153.6 108.8M 83.2 112L 83.2 115.2L 86.4 115.2L 86.4 118.4L 89.6 118.4L 89.6 115.2L 92.8 115.2L 92.8 112L 89.6 112L 89.6 115.2L 86.4 115.2L 86.4 112L 83.2 112M 214.4 112L 214.4 115.2L 217.6 115.2L 217.6 112L 214.4 112z"/>
<path style="stroke:none; fill:#ffffff" d="M 38.4 115.2L 38.4 124.8L 48 124.8L 48 115.2L 38.4 115.2M 70.4 115.2L 70.4 118.4L 64 118.4L 64 124.8L 67.2 124.8L 67.2 121.6L 70.4 121.6L 70.4 118.4L 73.6 118.4L 73.6 115.2L 70.4 115.2M 115.2 115.2L 115.2 124.8L 124.8 124.8L 124.8 115.2L 115.2 115.2M 192 115.2L 192 124.8L 201.6 124.8L 201.6 115.2L 192 115.2M 32 118.4L 32 121.6L 35.2 121.6L 35.2 118.4L 32 118.4z"/>
<path style="stroke:none; fill:#010101" d="M 41.6 118.4L 41.6 121.6L 44.8 121.6L 44.8 118.4L 41.6 118.4M 118.4 118.4L 118.4 121.6L 121.6 121.6L 121.6 118.4L 118.4 118.4z"/>
<path style="stroke:none; fill:#ffffff" d="M 128 118.4L 128 121.6L 131.2 121.6L 131.2 118.4L 128 118.4z"/>
<path style="stroke:none; fill:#010101" d="M 153.6 118.4L 153.6 121.6L 150.4 121.6L 150.4 124.8L 147.2 124.8L 147.2 128L 150.4 128L 150.4 131.2L 147.2 131.2L 147.2 134.4L 150.4 134.4L 150.4 131.2L 153.6 131.2L 153.6 124.8L 156.8 124.8L 156.8 128L 160 128L 160 131.2L 156.8 131.2L 156.8 134.4L 160 134.4L 160 131.2L 166.4 131.2L 166.4 128L 163.2 128L 163.2 124.8L 166.4 124.8L 166.4 121.6L 160 121.6L 160 124.8L 156.8 124.8L 156.8 118.4L 153.6 118.4M 195.2 118.4L 195.2 121.6L 198.4 121.6L 198.4 118.4L 195.2 118.4M 208 118.4L 208 121.6L 211.2 121.6L 211.2 118.4L 208 118.4M 83.2 121.6L 83.2 124.8L 86.4 124.8L 86.4 121.6L 83.2 121.6M 96 124.8L 96 128L 99.2 128L 99.2 131.2L 102.4 131.2L 102.4 128L 105.6 128L 105.6 124.8L 96 124.8M 54.4 128L 54.4 131.2L 57.6 131.2L 57.6 128L 54.4 128M 89.6 128L 89.6 131.2L 92.8 131.2L 92.8 128L 89.6 128M 182.4 128L 182.4 131.2L 188.8 131.2L 188.8 128L 182.4 128M 38.4 131.2L 38.4 134.4L 48 134.4L 48 131.2L 38.4 131.2M 105.6 131.2L 105.6 134.4L 108.8 134.4L 108.8 137.6L 105.6 137.6L 105.6 140.8L 108.8 140.8L 108.8 137.6L 112 137.6L 112 131.2L 105.6 131.2M 115.2 131.2L 115.2 134.4L 118.4 134.4L 118.4 131.2L 115.2 131.2M 140.8 131.2L 140.8 134.4L 144 134.4L 144 131.2L 140.8 131.2M 169.6 134.4L 169.6 137.6L 172.8 137.6L 172.8 134.4L 169.6 134.4M 153.6 137.6L 153.6 140.8L 156.8 140.8L 156.8 137.6L 153.6 137.6M 22.4 140.8L 22.4 144L 25.6 144L 25.6 140.8L 22.4 140.8z"/>
<path style="stroke:none; fill:#ffffff" d="M 73.6 140.8L 73.6 144L 70.4 144L 70.4 150.4L 67.2 150.4L 67.2 153.6L 64 153.6L 64 156.8L 76.8 156.8L 76.8 160L 70.4 160L 70.4 163.2L 73.6 163.2L 73.6 166.4L 76.8 166.4L 76.8 160L 80 160L 80 166.4L 83.2 166.4L 83.2 169.6L 80 169.6L 80 172.8L 83.2 172.8L 83.2 169.6L 86.4 169.6L 86.4 166.4L 89.6 166.4L 89.6 163.2L 83.2 163.2L 83.2 160L 86.4 160L 86.4 156.8L 89.6 156.8L 89.6 160L 92.8 160L 92.8 166.4L 99.2 166.4L 99.2 153.6L 112 153.6L 112 156.8L 105.6 156.8L 105.6 160L 102.4 160L 102.4 163.2L 108.8 163.2L 108.8 160L 112 160L 112 156.8L 115.2 156.8L 115.2 153.6L 112 153.6L 112 150.4L 105.6 150.4L 105.6 147.2L 102.4 147.2L 102.4 144L 99.2 144L 99.2 150.4L 96 150.4L 96 153.6L 92.8 153.6L 92.8 156.8L 89.6 156.8L 89.6 153.6L 83.2 153.6L 83.2 156.8L 76.8 156.8L 76.8 153.6L 80 153.6L 80 150.4L 92.8 150.4L 92.8 147.2L 89.6 147.2L 89.6 140.8L 86.4 140.8L 86.4 147.2L 83.2 147.2L 83.2 140.8L 80 140.8L 80 147.2L 76.8 147.2L 76.8 140.8L 73.6 140.8M 92.8 140.8L 92.8 144L 96 144L 96 140.8L 92.8 140.8z"/>
<path style="stroke:none; fill:#010101" d="M 198.4 140.8L 198.4 144L 201.6 144L 201.6 140.8L 198.4 140.8M 28.8 144L 28.8 150.4L 32 150.4L 32 144L 28.8 144z"/>
<path style="stroke:none; fill:#ffffff" d="M 160 144L 160 147.2L 156.8 147.2L 156.8 150.4L 160 150.4L 160 153.6L 153.6 153.6L 153.6 156.8L 150.4 156.8L 150.4 160L 147.2 160L 147.2 153.6L 140.8 153.6L 140.8 156.8L 137.6 156.8L 137.6 163.2L 144 163.2L 144 166.4L 156.8 166.4L 156.8 163.2L 160 163.2L 160 166.4L 163.2 166.4L 163.2 163.2L 160 163.2L 160 153.6L 163.2 153.6L 163.2 150.4L 166.4 150.4L 166.4 153.6L 169.6 153.6L 169.6 150.4L 172.8 150.4L 172.8 147.2L 169.6 147.2L 169.6 144L 160 144z"/>
<path style="stroke:none; fill:#010101" d="M 211.2 144L 211.2 147.2L 208 147.2L 208 150.4L 211.2 150.4L 211.2 153.6L 214.4 153.6L 214.4 144L 211.2 144M 22.4 147.2L 22.4 150.4L 25.6 150.4L 25.6 147.2L 22.4 147.2z"/>
<path style="stroke:none; fill:#ffffff" d="M 147.2 147.2L 147.2 150.4L 150.4 150.4L 150.4 147.2L 147.2 147.2z"/>
<path style="stroke:none; fill:#010101" d="M 166.4 147.2L 166.4 150.4L 169.6 150.4L 169.6 147.2L 166.4 147.2M 70.4 150.4L 70.4 153.6L 76.8 153.6L 76.8 150.4L 70.4 150.4M 201.6 150.4L 201.6 153.6L 204.8 153.6L 204.8 150.4L 201.6 150.4M 28.8 153.6L 28.8 156.8L 32 156.8L 32 153.6L 28.8 153.6M 22.4 156.8L 22.4 160L 25.6 160L 25.6 156.8L 22.4 156.8M 140.8 156.8L 140.8 160L 144 160L 144 163.2L 147.2 163.2L 147.2 160L 144 160L 144 156.8L 140.8 156.8M 153.6 156.8L 153.6 163.2L 156.8 163.2L 156.8 156.8L 153.6 156.8M 204.8 156.8L 204.8 160L 214.4 160L 214.4 156.8L 204.8 156.8M 214.4 163.2L 214.4 166.4L 217.6 166.4L 217.6 163.2L 214.4 163.2z"/>
<path style="stroke:none; fill:#ffffff" d="M 28.8 166.4L 28.8 169.6L 32 169.6L 32 166.4L 28.8 166.4M 182.4 166.4L 182.4 172.8L 185.6 172.8L 185.6 176L 188.8 176L 188.8 172.8L 185.6 172.8L 185.6 166.4L 182.4 166.4M 48 169.6L 48 172.8L 51.2 172.8L 51.2 176L 54.4 176L 54.4 169.6L 48 169.6z"/>
<path style="stroke:none; fill:#010101" d="M 137.6 169.6L 137.6 172.8L 140.8 172.8L 140.8 169.6L 137.6 169.6z"/>
<path style="stroke:none; fill:#ffffff" d="M 35.2 172.8L 35.2 176L 38.4 176L 38.4 172.8L 35.2 172.8z"/>
<path style="stroke:none; fill:#010101" d="M 156.8 172.8L 156.8 176L 150.4 176L 150.4 179.2L 153.6 179.2L 153.6 182.4L 144 182.4L 144 179.2L 147.2 179.2L 147.2 176L 140.8 176L 140.8 179.2L 137.6 179.2L 137.6 182.4L 140.8 182.4L 140.8 185.6L 137.6 185.6L 137.6 188.8L 144 188.8L 144 192L 147.2 192L 147.2 188.8L 144 188.8L 144 185.6L 153.6 185.6L 153.6 182.4L 156.8 182.4L 156.8 179.2L 160 179.2L 160 176L 163.2 176L 163.2 172.8L 156.8 172.8z"/>
<path style="stroke:none; fill:#ffffff" d="M 51.2 179.2L 51.2 182.4L 54.4 182.4L 54.4 179.2L 51.2 179.2M 121.6 179.2L 121.6 182.4L 124.8 182.4L 124.8 179.2L 121.6 179.2z"/>
<path style="stroke:none; fill:#010101" d="M 60.8 182.4L 60.8 188.8L 64 188.8L 64 182.4L 60.8 182.4z"/>
<path style="stroke:none; fill:#ffffff" d="M 128 182.4L 128 185.6L 131.2 185.6L 131.2 182.4L 128 182.4M 32 185.6L 32 188.8L 35.2 188.8L 35.2 185.6L 32 185.6M 96 185.6L 96 188.8L 99.2 188.8L 99.2 185.6L 96 185.6M 121.6 185.6L 121.6 188.8L 124.8 188.8L 124.8 185.6L 121.6 185.6z"/>
<path style="stroke:none; fill:#010101" d="M 41.6 188.8L 41.6 192L 44.8 192L 44.8 188.8L 41.6 188.8M 153.6 188.8L 153.6 192L 156.8 192L 156.8 198.4L 153.6 198.4L 153.6 195.2L 150.4 195.2L 150.4 198.4L 147.2 198.4L 147.2 201.6L 150.4 201.6L 150.4 204.8L 153.6 204.8L 153.6 208L 156.8 208L 156.8 198.4L 160 198.4L 160 195.2L 166.4 195.2L 166.4 192L 156.8 192L 156.8 188.8L 153.6 188.8z"/>
<path style="stroke:none; fill:#ffffff" d="M 204.8 188.8L 204.8 208L 214.4 208L 214.4 204.8L 211.2 204.8L 211.2 201.6L 214.4 201.6L 214.4 198.4L 211.2 198.4L 211.2 201.6L 208 201.6L 208 188.8L 204.8 188.8z"/>
<path style="stroke:none; fill:#010101" d="M 60.8 192L 60.8 198.4L 70.4 198.4L 70.4 192L 60.8 192z"/>
<path style="stroke:none; fill:#ffffff" d="M 115.2 192L 115.2 201.6L 124.8 201.6L 124.8 192L 115.2 192z"/>
<path style="stroke:none; fill:#010101" d="M 137.6 192L 137.6 195.2L 140.8 195.2L 140.8 198.4L 144 198.4L 144 195.2L 140.8 195.2L 140.8 192L 137.6 192z"/>
<path style="stroke:none; fill:#ffffff" d="M 192 192L 192 201.6L 201.6 201.6L 201.6 192L 192 192z"/>
<path style="stroke:none; fill:#010101" d="M 22.4 195.2L 22.4 217.6L 44.8 217.6L 44.8 195.2L 22.4 195.2z"/>
<path style="stroke:none; fill:#ffffff" d="M 76.8 195.2L 76.8 198.4L 80 198.4L 80 195.2L 76.8 195.2z"/>
<path style="stroke:none; fill:#010101" d="M 118.4 195.2L 118.4 198.4L 121.6 198.4L 121.6 195.2L 118.4 195.2M 195.2 195.2L 195.2 198.4L 198.4 198.4L 198.4 195.2L 195.2 195.2z"/>
<path style="stroke:none; fill:#ffffff" d="M 25.6 198.4L 25.6 214.4L 41.6 214.4L 41.6 198.4L 25.6 198.4z"/>
<path style="stroke:none; fill:#010101" d="M 28.8 201.6L 28.8 211.2L 38.4 211.2L 38.4 201.6L 28.8 201.6M 60.8 201.6L 60.8 204.8L 64 204.8L 64 201.6L 60.8 201.6M 67.2 201.6L 67.2 211.2L 70.4 211.2L 70.4 201.6L 67.2 201.6M 163.2 201.6L 163.2 204.8L 160 204.8L 160 208L 163.2 208L 163.2 204.8L 166.4 204.8L 166.4 201.6L 163.2 201.6z"/>
<path style="stroke:none; fill:#ffffff" d="M 108.8 204.8L 108.8 214.4L 112 214.4L 112 208L 115.2 208L 115.2 204.8L 108.8 204.8z"/>
<path style="stroke:none; fill:#010101" d="M 182.4 204.8L 182.4 208L 185.6 208L 185.6 204.8L 182.4 204.8z"/>
<path style="stroke:none; fill:#ffffff" d="M 192 204.8L 192 208L 201.6 208L 201.6 204.8L 192 204.8M 134.4 208L 134.4 211.2L 137.6 211.2L 137.6 214.4L 140.8 214.4L 140.8 208L 134.4 208z"/>
<path style="stroke:none; fill:#010101" d="M 121.6 211.2L 121.6 214.4L 124.8 214.4L 124.8 211.2L 121.6 211.2z"/>
<path style="stroke:none; fill:#ffffff" d="M 201.6 211.2L 201.6 214.4L 204.8 214.4L 204.8 211.2L 201.6 211.2M 208 211.2L 208 214.4L 211.2 214.4L 211.2 211.2L 208 211.2z"/>
<path style="stroke:none; fill:#010101" d="M 83.2 214.4L 83.2 217.6L 86.4 217.6L 86.4 214.4L 83.2 214.4z"/>
</g>
</svg>